<?xml version="1.0" standalone="no"?>
<!DOCTYPE svg PUBLIC "-//W3C//DTD SVG 20010904//EN"
 "http://www.w3.org/TR/2001/REC-SVG-20010904/DTD/svg10.dtd">
<svg version="1.0" xmlns="http://www.w3.org/2000/svg"
 width="540.000000pt" height="360.000000pt" viewBox="0 0 540.000000 360.000000"
 preserveAspectRatio="xMidYMid meet">

<g transform="translate(0.000000,360.000000) scale(0.100000,-0.100000)"
fill="#000000" stroke="none">
<path d="M1246 3589 c41 -12 90 -68 104 -119 20 -76 -18 -207 -72 -244 -26
-18 -80 -21 -110 -5 -11 6 -22 8 -25 6 -3 -3 12 -15 34 -26 21 -11 34 -20 30
-21 -13 0 -50 21 -73 42 -21 18 -22 18 -150 -28 -71 -26 -137 -54 -146 -62
-24 -20 -23 -65 2 -87 19 -17 23 -16 131 24 205 77 353 100 380 61 14 -19 17
-19 94 -5 44 8 98 14 121 15 26 0 64 12 104 33 l63 32 370 -3 c211 -2 377 -7
388 -12 9 -6 24 -7 33 -4 20 7 40 68 32 98 -7 29 -49 36 -232 36 -112 0 -134
3 -142 16 -7 13 -13 14 -30 5 -16 -9 -78 -6 -265 13 -283 28 -293 31 -402 136
-38 37 -85 75 -102 84 l-33 16 32 -46 c29 -40 33 -55 37 -125 3 -71 0 -85 -28
-144 -26 -56 -36 -68 -73 -85 -24 -11 -56 -19 -73 -19 -25 0 -22 3 18 13 83
23 135 93 144 197 8 89 -2 125 -52 175 -41 40 -49 44 -92 43 -46 -1 -47 -1
-17 -10z"/>
<path d="M1138 3538 c-75 -70 -76 -202 -3 -275 98 -98 238 39 196 192 -17 65
-58 106 -112 112 -41 5 -49 2 -81 -29z"/>
<path d="M1495 3120 c-27 -5 -109 -16 -180 -24 -152 -18 -275 -48 -313 -75
-92 -65 -169 -187 -215 -341 -25 -80 -88 -390 -86 -421 0 -8 15 45 33 116 68
266 149 468 223 555 20 23 57 51 82 62 79 34 201 58 293 58 l87 0 -20 -67
c-40 -138 -119 -462 -141 -578 -17 -95 -22 -156 -22 -295 -1 -159 2 -180 22
-232 28 -69 59 -116 91 -137 l25 -16 -27 46 c-52 88 -69 155 -74 292 -8 193 6
266 139 719 l81 278 36 7 c20 5 79 8 131 8 77 -1 105 -5 147 -24 62 -27 125
-92 144 -147 21 -59 16 -204 -10 -294 -52 -179 -100 -385 -116 -498 -27 -190
-19 -266 53 -527 69 -250 131 -449 138 -443 2 3 -16 92 -41 199 -90 391 -119
626 -96 764 21 128 63 308 103 450 92 323 46 475 -167 549 -58 20 -242 29
-320 16z"/>
<path d="M3445 3053 c-63 -33 -90 -72 -110 -158 l-12 -50 -15 30 c-57 108
-201 149 -300 86 -30 -19 -52 -44 -67 -74 l-22 -46 -30 34 c-71 81 -206 68
-273 -26 l-28 -40 -34 68 c-80 158 -162 178 -179 42 -5 -39 -2 -71 9 -109 16
-55 20 -207 7 -265 l-7 -30 -18 40 c-21 49 -32 99 -41 187 -4 38 -13 72 -21
79 -8 6 -14 18 -14 25 0 7 -12 21 -26 30 -24 16 -27 16 -54 1 -15 -9 -38 -17
-49 -17 -28 0 -41 -35 -41 -113 1 -84 13 -134 66 -256 25 -56 49 -127 54 -157
10 -59 50 -136 83 -159 12 -8 41 -15 64 -15 35 0 50 6 83 36 42 38 95 134 106
190 7 38 19 44 29 15 3 -10 23 -46 45 -80 79 -123 219 -143 316 -46 l26 26 38
-35 c87 -78 226 -73 312 11 l37 36 11 -24 c15 -32 33 -63 49 -83 18 -21 57
-20 73 2 7 9 26 26 41 36 25 15 28 22 23 49 -21 116 -21 115 10 129 16 7 46
23 67 35 20 13 37 20 37 16 0 -5 -9 -37 -20 -73 -24 -78 -26 -133 -5 -150 8
-7 15 -18 15 -25 0 -26 26 -35 84 -27 l58 7 25 63 c14 34 29 62 33 62 5 0 20
-20 35 -45 30 -51 64 -78 89 -69 9 3 28 29 42 58 24 48 25 55 15 121 -6 39
-20 162 -32 275 -23 218 -34 259 -85 299 -32 25 -46 26 -90 5 -29 -14 -37 -25
-52 -78 l-18 -61 -33 61 c-45 84 -88 133 -135 155 -50 23 -131 24 -171 2z
m179 -57 c75 -57 119 -185 97 -287 -14 -65 -41 -109 -91 -149 -52 -41 -135
-75 -128 -52 2 4 -1 8 -7 9 -5 1 -9 -4 -9 -12 14 -144 15 -185 5 -185 -6 0
-15 15 -20 33 -9 31 -9 31 -10 -15 -2 -103 -46 -44 -55 75 -3 37 -11 77 -18
90 -8 15 -12 81 -13 212 0 185 1 191 25 235 47 83 148 104 224 46z m-1154 -68
c0 -5 9 -21 19 -36 48 -66 59 -296 21 -417 -44 -141 -99 -215 -157 -215 -37 0
-52 21 -72 104 -7 26 -26 78 -42 115 -56 121 -69 169 -69 258 0 82 13 110 26
56 l7 -26 11 33 c20 60 32 45 44 -50 7 -62 22 -118 47 -178 20 -48 44 -106 53
-130 9 -23 21 -41 27 -39 5 2 18 28 29 58 28 78 34 271 11 358 -12 49 -14 66
-4 71 7 5 9 18 5 34 -9 38 2 51 25 30 10 -9 19 -21 19 -26z m739 -6 c41 -31
63 -67 68 -116 6 -54 -9 -62 -25 -13 -7 24 -10 27 -11 10 -3 -57 -34 -73 -44
-23 -10 46 -42 72 -85 68 -46 -4 -63 -38 -43 -87 12 -28 31 -43 165 -130 22
-14 52 -46 68 -70 82 -130 -17 -276 -174 -258 -80 10 -102 32 -106 102 -4 73
3 95 23 74 8 -8 16 -26 17 -41 1 -15 6 -24 10 -22 5 3 15 -2 24 -10 17 -18 70
-21 107 -7 13 5 29 23 36 39 22 52 -17 104 -115 157 -107 56 -163 126 -164
200 0 47 40 116 80 137 43 24 131 19 169 -10z m726 1 c3 -9 10 -57 15 -107 5
-50 17 -156 25 -236 8 -80 18 -160 21 -177 5 -27 3 -33 -11 -33 -13 0 -16 -6
-12 -21 12 -44 -16 -67 -32 -26 -36 87 -34 85 -74 91 -21 4 -42 4 -46 1 -5 -2
-19 -32 -31 -65 -23 -62 -51 -83 -43 -32 5 27 5 27 -16 -5 -24 -38 -41 -43
-41 -12 0 22 58 222 89 309 11 30 20 70 21 89 0 30 8 66 41 194 6 24 18 41 32
46 27 10 54 3 62 -16z m-1109 -49 c45 -21 74 -83 74 -156 0 -78 -49 -175 -104
-203 -29 -15 -40 -17 -43 -7 -7 18 -43 15 -43 -4 0 -29 44 -95 67 -100 38 -10
70 4 85 36 17 39 43 41 34 3 -6 -25 -5 -26 5 -8 6 11 18 31 27 44 15 25 15 25
23 4 26 -70 -67 -183 -151 -183 -73 0 -123 41 -166 134 -24 54 -27 71 -28 185
-1 117 1 130 24 176 19 38 36 55 70 73 52 26 80 28 126 6z m334 -118 c0 -2 3
-12 6 -21 6 -15 4 -15 -15 -4 -25 16 -27 29 -6 29 8 0 15 -2 15 -4z m170 -118
l0 -32 -30 29 c-16 16 -30 30 -30 32 0 2 14 3 30 3 27 0 30 -3 30 -32z m-272
-91 c20 -16 58 -40 85 -53 53 -27 60 -50 20 -60 -27 -7 -38 1 -86 70 -18 27
-55 34 -73 16 -8 -8 -15 -6 -24 5 -7 8 -19 15 -27 15 -10 0 -13 5 -8 18 4 9
12 32 17 50 l9 34 25 -34 c13 -18 41 -46 62 -61z m527 -77 c-3 -5 -14 -10 -23
-10 -15 0 -15 2 -2 10 20 13 33 13 25 0z m-675 -190 c-8 -5 -17 -7 -19 -4 -3
3 1 9 9 14 8 5 17 7 19 4 3 -3 -1 -9 -9 -14z m330 -14 c0 -2 -9 -6 -20 -9 -11
-3 -18 -1 -14 4 5 9 34 13 34 5z"/>
<path d="M3496 2927 c-26 -19 -33 -69 -29 -207 3 -139 6 -150 28 -150 9 0 14
4 10 10 -3 5 9 17 27 26 74 37 108 88 108 161 -1 112 -83 204 -144 160z m88
-103 c3 -9 6 -39 6 -68 0 -39 -5 -58 -21 -74 -11 -12 -24 -20 -29 -17 -8 5 -5
70 6 143 5 34 27 43 38 16z"/>
<path d="M3878 2630 c-7 -14 -38 -120 -38 -127 0 -7 49 -3 52 5 2 4 1 36 -2
72 -3 36 -9 58 -12 50z"/>
<path d="M2722 2780 c-35 -37 -52 -136 -36 -197 17 -62 107 16 125 109 15 72
1 108 -40 108 -17 0 -38 -9 -49 -20z"/>
<path d="M1545 2880 c-4 -6 -24 -19 -45 -30 -22 -11 -48 -30 -60 -42 -21 -23
-27 -63 -10 -73 6 -4 10 5 10 20 0 16 12 38 29 56 43 42 53 38 45 -20 -3 -28
-3 -62 0 -76 5 -21 12 -26 34 -23 22 2 33 14 55 60 30 59 47 138 30 138 -6 0
-13 -20 -16 -45 -8 -55 -54 -148 -70 -142 -19 6 -13 134 7 156 9 10 16 21 16
24 0 11 -18 8 -25 -3z"/>
<path d="M1283 2838 c-6 -7 -27 -58 -48 -113 -117 -315 -205 -502 -317 -673
-38 -57 -68 -105 -66 -106 2 -1 43 -10 92 -19 112 -23 203 -59 282 -113 l62
-43 -45 97 c-24 53 -51 121 -59 151 -36 139 -1 366 106 695 21 66 37 123 34
128 -8 12 -30 10 -41 -4z"/>
<path d="M1642 2788 c-14 -14 -16 -64 -2 -73 5 -3 7 0 5 8 -3 7 1 26 9 41 9
18 16 23 19 14 4 -9 6 -7 6 5 1 20 -19 23 -37 5z"/>
<path d="M1707 2793 c-4 -3 -7 -21 -7 -39 0 -27 -3 -32 -17 -27 -14 5 -16 3
-6 -7 22 -24 43 -4 41 40 -1 43 -1 43 -11 33z"/>
<path d="M1735 2730 c-10 -39 -15 -74 -11 -77 3 -3 8 3 12 13 3 10 10 28 14
39 14 33 22 95 12 95 -6 0 -18 -32 -27 -70z"/>
<path d="M1787 2775 c-4 -16 -10 -39 -14 -50 -5 -18 -4 -19 12 -4 11 11 15 28
13 50 l-3 34 -8 -30z"/>
<path d="M1820 2781 c-13 -26 -13 -58 2 -67 6 -4 8 -3 5 3 -8 13 12 73 23 73
5 0 6 -15 3 -34 -3 -19 -1 -36 6 -40 6 -4 11 -1 11 7 0 8 3 29 6 46 6 28 4 31
-19 31 -16 0 -31 -8 -37 -19z"/>
<path d="M691 2224 c0 -11 3 -14 6 -6 3 7 2 16 -1 19 -3 4 -6 -2 -5 -13z"/>
<path d="M3371 1926 c-16 -17 -25 -44 -31 -88 -5 -34 -12 -79 -16 -98 -6 -29
-9 -31 -15 -15 -4 11 -8 31 -8 45 -1 33 -36 99 -67 128 -35 31 -77 28 -116 -7
-31 -28 -32 -29 -35 -132 -1 -57 -7 -120 -11 -139 l-8 -35 -14 25 c-73 139
-128 179 -247 184 -90 4 -149 -17 -179 -61 -16 -26 -18 -26 -26 -7 -34 79 -68
99 -114 69 -23 -15 -26 -15 -50 4 -57 45 -145 36 -210 -21 -122 -108 -139
-371 -37 -575 65 -129 133 -183 232 -183 86 0 135 30 173 105 l21 40 16 -25
c35 -54 105 -120 139 -131 84 -28 175 -4 236 60 32 33 46 39 46 19 0 -7 14
-34 30 -60 22 -35 36 -48 53 -48 27 0 47 17 47 42 0 10 12 25 26 35 14 9 29
26 34 37 7 19 8 18 24 -12 22 -42 52 -72 71 -72 8 0 24 14 35 32 l19 31 12
-25 c12 -27 40 -41 65 -31 16 6 54 74 54 96 0 14 37 54 44 46 2 -2 15 -25 30
-51 37 -63 74 -93 135 -108 69 -16 136 0 191 47 22 19 42 34 43 32 1 -2 8 -13
15 -24 6 -11 16 -29 21 -40 22 -50 76 -59 97 -16 7 13 22 28 35 35 22 11 24
19 29 105 l5 94 28 -84 c31 -96 113 -257 140 -273 32 -20 50 5 81 115 34 124
47 159 39 108 -4 -28 1 -44 27 -83 49 -72 94 -83 150 -38 26 21 27 29 36 218
5 95 3 137 -6 153 -11 21 -9 26 24 53 58 47 82 170 50 253 -4 10 0 15 15 15
21 0 21 -3 21 -202 0 -112 -5 -236 -10 -277 -9 -67 -8 -79 11 -117 48 -100 86
-117 148 -64 34 29 34 30 47 157 7 70 13 165 13 211 1 45 4 82 9 82 4 0 22
-23 40 -50 l32 -50 0 -160 c0 -143 2 -164 21 -200 39 -75 92 -90 146 -43 l32
28 10 175 c9 160 12 180 39 240 48 105 96 264 89 291 -4 13 -21 47 -39 74 -26
40 -39 51 -63 52 -46 4 -105 -56 -105 -106 0 -11 -11 -46 -25 -78 -29 -63 -27
-64 -70 19 -14 26 -32 51 -40 55 -12 7 -13 14 -3 40 10 28 9 38 -10 75 -12 24
-33 55 -47 70 -25 27 -28 28 -103 22 -231 -17 -255 -21 -275 -45 -13 -16 -17
-32 -13 -51 5 -25 2 -28 -19 -28 -16 0 -41 -16 -71 -45 -25 -25 -49 -45 -54
-45 -5 0 -19 21 -32 47 -29 60 -80 113 -106 113 -36 0 -55 -28 -46 -69 4 -20
6 -45 5 -56 -2 -11 -3 -42 -3 -70 l-1 -50 -28 84 c-16 46 -42 105 -59 131 -48
75 -116 87 -165 28 -22 -26 -25 -39 -25 -104 0 -71 -12 -96 -25 -54 -4 11 -17
27 -30 36 -32 21 -55 7 -89 -50 -22 -38 -26 -56 -26 -128 0 -118 -17 -264 -35
-297 -15 -29 -41 -46 -49 -32 -14 22 -15 121 -2 231 l14 125 -24 52 c-25 55
-51 71 -83 54 -11 -6 -33 -11 -49 -11 -29 0 -30 1 -37 66 -7 67 -50 167 -82
192 -29 21 -87 15 -112 -12z m106 -57 c17 -53 33 -244 33 -401 0 -150 -13
-240 -34 -232 -9 3 -15 -8 -20 -35 -8 -49 -26 -91 -39 -91 -8 0 -5 102 4 157
1 4 1 71 -1 148 l-1 140 -20 -70 c-11 -38 -36 -132 -57 -207 -20 -76 -41 -136
-47 -135 -19 7 -64 112 -81 190 -9 43 -21 74 -25 70 -9 -9 -29 -159 -29 -220
0 -24 -4 -43 -10 -43 -9 0 -14 39 -11 100 1 23 0 23 -8 5 -5 -11 -10 -47 -11
-80 -1 -33 -5 -69 -10 -80 l-8 -20 -8 20 c-5 11 -8 47 -7 80 3 140 21 421 27
436 4 9 10 69 14 134 6 102 10 119 27 131 16 11 25 11 45 1 24 -12 26 -22 54
-225 16 -117 32 -209 36 -205 12 13 80 300 90 375 10 79 23 100 59 96 20 -2
29 -12 38 -39z m1483 0 c0 -7 7 -17 16 -24 13 -9 14 -16 6 -32 -11 -20 -55
-38 -70 -29 -4 2 -6 -77 -3 -176 3 -160 -11 -442 -25 -490 -3 -10 -10 -18 -16
-18 -6 0 -16 -7 -23 -17 -32 -43 -55 54 -35 145 9 42 10 118 5 297 l-7 241
-77 -1 c-69 0 -76 2 -76 20 0 11 -4 26 -9 33 -4 8 -4 17 0 22 5 4 70 13 144
20 74 7 137 14 139 16 9 9 31 3 31 -7z m-827 -31 c22 -17 64 -152 118 -375 24
-101 46 -183 50 -183 3 0 11 46 18 101 11 91 9 195 -5 287 -4 25 -1 32 12 32
12 0 15 6 10 23 -4 12 -9 40 -12 62 l-5 40 25 -28 c14 -15 28 -40 32 -55 3
-15 12 -40 21 -56 22 -40 22 -293 0 -386 -8 -36 -27 -119 -42 -185 -15 -66
-30 -124 -34 -128 -21 -22 -96 197 -162 476 -14 60 -26 92 -31 84 -9 -17 -48
-329 -48 -386 0 -53 -14 -52 -27 2 l-11 42 -1 -60 c-2 -75 -15 -102 -30 -62
-14 36 -14 82 -1 127 6 19 16 161 21 315 11 299 16 325 62 325 13 0 31 -6 40
-12z m-1740 -62 c18 -7 41 -25 50 -40 22 -33 33 -33 49 1 7 14 19 28 26 31 9
3 11 -13 8 -70 -6 -107 -18 -201 -27 -219 -12 -23 -44 -29 -68 -12 -17 12 -21
25 -22 76 0 86 -26 151 -61 155 -17 2 -34 -4 -47 -17 -26 -26 -51 -112 -51
-175 0 -58 31 -189 56 -238 44 -88 131 -91 159 -7 16 45 40 53 32 10 -9 -44 6
-31 23 18 7 23 16 41 20 41 24 0 14 -93 -15 -150 -44 -86 -163 -102 -245 -33
-35 29 -80 113 -101 188 -22 80 -18 248 9 316 26 64 71 115 116 128 44 13 53
13 89 -3z m2916 -9 c6 -8 8 -17 4 -21 -4 -4 -2 -11 6 -15 10 -7 10 -20 -4 -70
-10 -33 -22 -61 -26 -61 -5 0 -9 -7 -9 -16 0 -8 -16 -50 -36 -92 -22 -48 -37
-96 -39 -127 -2 -27 -6 -112 -10 -187 -4 -78 -11 -135 -16 -132 -5 3 -12 -2
-15 -10 -3 -9 -13 -16 -21 -16 -35 0 -39 22 -37 195 l2 170 -64 85 c-55 73
-64 91 -64 128 0 24 4 41 9 37 5 -3 11 5 13 17 6 40 26 29 61 -34 20 -35 47
-76 60 -92 l23 -28 15 23 c22 34 65 147 73 191 5 25 11 35 20 32 8 -3 16 4 19
15 6 24 20 27 36 8z m-2569 -24 c0 -4 -12 -18 -27 -31 -22 -18 -23 -21 -6 -13
30 15 73 14 73 -1 0 -7 -13 -20 -28 -29 -51 -29 -67 -79 -67 -209 0 -100 3
-122 24 -168 31 -68 84 -116 120 -107 39 9 78 58 97 121 33 114 3 284 -61 344
-13 12 -21 28 -18 36 3 8 -9 19 -32 28 -20 9 -34 20 -30 26 9 15 52 12 85 -5
17 -9 30 -13 30 -10 0 18 43 -22 66 -61 40 -68 55 -121 60 -204 9 -172 -49
-312 -146 -351 -43 -18 -107 -12 -152 13 -47 26 -108 108 -108 144 0 14 -8 37
-17 51 -15 22 -18 50 -18 148 0 126 14 176 62 230 36 41 93 70 93 48z m1891
-34 l41 -42 -4 -70 c-3 -64 -6 -72 -37 -99 -29 -26 -39 -29 -74 -25 -22 3 -46
11 -53 19 -7 7 -16 46 -20 85 -7 72 -6 73 26 103 31 29 57 32 46 4 -3 -8 -1
-14 3 -14 15 0 22 33 10 41 -14 8 -5 39 11 39 6 0 29 -19 51 -41z m-693 -52
c2 -20 8 -37 14 -37 8 0 9 -41 5 -138 -13 -272 -58 -368 -186 -388 -69 -11
-148 35 -177 103 -18 42 -19 318 -1 386 12 48 33 65 31 25 -1 -19 0 -19 17 3
10 13 19 27 19 32 0 4 5 7 11 7 9 0 9 -30 3 -112 -17 -213 -6 -312 39 -343 51
-36 108 -2 132 78 10 33 18 110 22 210 5 122 9 157 19 157 8 0 14 10 14 23 0
52 34 47 38 -6z m-1079 -81 c33 -35 48 -137 34 -223 -14 -81 -39 -118 -78
-118 -25 0 -31 6 -46 50 -21 58 -25 185 -8 236 13 38 46 79 64 79 6 0 22 -11
34 -24z m-489 -54 c0 -29 9 -59 26 -88 29 -49 50 -64 89 -64 36 0 27 -23 -11
-30 -23 -4 -31 -13 -44 -50 -26 -75 -70 -61 -89 30 -14 65 -14 184 0 234 13
49 29 32 29 -32z m2224 -273 c-2 -166 -4 -177 -37 -197 -24 -15 -27 -15 -46 2
-16 15 -18 22 -9 54 6 22 8 75 4 128 -8 104 3 149 33 139 11 -3 22 -1 26 5 4
6 12 9 18 7 9 -3 12 -44 11 -138z m281 -218 c-3 -6 -11 -11 -17 -11 -6 0 -6 6
2 15 14 17 26 13 15 -4z m-255 -11 c0 -5 -5 -10 -11 -10 -5 0 -7 5 -4 10 3 6
8 10 11 10 2 0 4 -4 4 -10z"/>
<path d="M4577 1614 c-4 -4 -7 -17 -7 -28 1 -19 1 -20 11 -3 11 19 8 43 -4 31z"/>
<path d="M495 1903 c-209 -44 -380 -173 -460 -344 -31 -67 -31 -79 -1 -79 17
0 27 9 36 31 18 41 85 145 126 193 38 45 121 109 177 138 58 29 54 16 -7 -26
-99 -68 -207 -198 -250 -301 -9 -21 -15 -40 -12 -42 2 -2 138 -8 302 -13 311
-9 393 -20 461 -60 48 -28 145 -101 141 -106 -2 -2 -26 8 -53 21 -26 14 -59
25 -72 25 -20 0 -22 4 -17 24 5 21 1 25 -43 35 -107 24 -192 31 -493 35 -301
5 -310 5 -204 -8 113 -14 199 -35 242 -59 24 -14 23 -14 -42 -66 -117 -94
-211 -235 -253 -381 -27 -97 -24 -365 5 -472 51 -185 157 -326 297 -393 78
-37 106 -40 46 -4 -214 125 -344 430 -311 730 21 190 81 319 204 437 79 76
144 118 225 142 92 29 96 24 11 -13 -184 -80 -317 -219 -389 -405 -24 -63 -25
-77 -25 -242 0 -162 2 -182 28 -265 58 -191 159 -324 295 -389 89 -42 161 -53
244 -36 91 19 154 46 223 96 123 87 206 215 260 399 22 76 26 110 27 215 0
182 -38 326 -120 460 l-34 55 37 -40 c43 -48 147 -203 199 -297 31 -57 42 -69
74 -79 28 -8 44 -8 71 3 l34 14 -24 22 c-13 12 -30 22 -38 22 -12 0 -14 14 -9
76 17 222 -50 437 -202 648 -92 129 -145 177 -262 234 -160 79 -291 98 -444
65z m123 -597 c-90 -39 -141 -75 -223 -156 -116 -114 -164 -224 -173 -392 -11
-236 54 -432 188 -567 68 -69 139 -108 228 -126 l67 -15 -55 4 c-178 9 -374
217 -434 457 -20 82 -21 269 -1 363 40 191 199 375 380 443 93 34 109 27 23
-11z m190 -196 c107 -48 172 -192 172 -380 -1 -145 -38 -249 -120 -331 -86
-86 -212 -129 -277 -96 -104 54 -194 269 -179 427 6 74 37 183 68 243 26 52
84 114 127 137 49 26 152 26 209 0z m196 -162 c45 -87 60 -163 53 -263 -5 -85
-42 -202 -82 -265 -56 -87 -147 -145 -242 -155 l-48 -6 49 21 c183 78 276 230
276 450 0 98 -18 177 -60 269 -17 35 -30 66 -30 70 0 16 53 -61 84 -121z"/>
<path d="M657 1094 c-3 -3 14 -34 38 -69 71 -104 89 -163 90 -285 0 -98 -2
-109 -33 -175 -18 -38 -58 -102 -88 -141 -30 -39 -54 -74 -54 -78 0 -13 94 -5
128 11 55 26 131 110 165 180 77 166 51 403 -55 499 -22 20 -55 42 -74 50 -34
14 -106 19 -117 8z"/>
<path d="M2219 857 c7 -10 39 -25 70 -35 48 -14 95 -17 326 -16 158 1 318 8
385 16 111 13 102 13 -235 10 -282 -3 -367 -1 -435 11 -47 8 -94 19 -105 23
-18 7 -19 6 -6 -9z"/>
</g>
</svg>
