<?xml version="1.0" standalone="no"?>
<!DOCTYPE svg PUBLIC "-//W3C//DTD SVG 20010904//EN"
 "http://www.w3.org/TR/2001/REC-SVG-20010904/DTD/svg10.dtd">
<svg version="1.0" xmlns="http://www.w3.org/2000/svg"
 width="563.000000pt" height="659.000000pt" viewBox="0 0 563.000000 659.000000"
 preserveAspectRatio="xMidYMid meet">

<g transform="translate(0.000000,659.000000) scale(0.100000,-0.100000)"
fill="#000000" stroke="none">
<path d="M2755 6580 c-3 -5 -18 -10 -32 -10 -30 0 -79 -22 -150 -67 -29 -18
-56 -33 -62 -33 -5 0 -11 -3 -13 -7 -1 -5 -19 -17 -38 -27 -81 -44 -238 -134
-277 -159 -24 -15 -45 -27 -48 -27 -3 0 -24 -12 -48 -27 -51 -32 -208 -123
-213 -123 -2 0 -28 -16 -58 -35 -30 -19 -57 -35 -60 -35 -3 0 -30 -16 -60 -35
-30 -19 -58 -35 -61 -35 -3 0 -31 -16 -61 -35 -30 -19 -57 -35 -59 -35 -3 0
-24 -12 -48 -27 -23 -15 -87 -52 -142 -83 -55 -31 -144 -82 -197 -113 -105
-61 -241 -140 -377 -218 -46 -27 -85 -49 -87 -49 -2 0 -28 -16 -58 -35 -30
-19 -58 -35 -61 -35 -3 0 -31 -16 -61 -35 -30 -19 -56 -35 -58 -35 -13 0 -269
-157 -304 -186 -48 -40 -102 -127 -102 -164 0 -15 -5 -31 -10 -36 -15 -15 -8
-3136 7 -3189 28 -95 98 -180 181 -220 23 -11 42 -23 42 -27 0 -5 5 -8 10 -8
6 0 36 -16 66 -35 30 -19 57 -35 59 -35 3 0 24 -11 46 -26 40 -25 53 -32 159
-91 30 -17 101 -58 158 -92 57 -34 106 -61 108 -61 2 0 23 -12 47 -27 51 -32
208 -123 213 -123 2 0 28 -16 58 -35 30 -19 57 -35 60 -35 3 0 30 -16 60 -35
30 -19 58 -35 61 -35 3 0 31 -16 61 -35 30 -19 56 -35 59 -35 3 0 26 -13 52
-28 27 -16 82 -48 123 -72 41 -24 103 -61 137 -82 34 -21 65 -38 68 -38 3 0
29 -15 58 -33 29 -18 88 -53 132 -77 44 -24 103 -59 132 -77 29 -18 55 -33 58
-33 3 0 31 -16 61 -35 30 -19 56 -35 58 -35 4 0 178 -100 191 -110 6 -4 41
-24 78 -45 144 -78 296 -66 447 35 14 9 51 29 82 46 32 16 58 32 58 37 0 4 5
7 10 7 6 0 28 11 50 25 22 14 66 39 97 57 87 47 91 49 195 111 53 31 99 57
102 57 3 0 37 20 76 45 39 25 72 45 75 45 3 0 34 18 70 40 36 22 67 40 70 40
4 0 62 34 172 102 34 21 65 38 68 38 3 0 31 16 61 35 30 19 56 35 58 35 2 0
43 23 92 52 49 28 119 68 156 89 127 73 288 167 343 200 17 10 41 24 55 32 14
8 65 37 114 65 49 29 90 52 92 52 2 0 28 16 58 35 30 19 57 35 60 35 5 0 117
66 198 116 38 24 70 62 109 129 l24 40 0 1625 0 1625 -28 55 c-16 30 -38 66
-50 79 -19 20 -179 131 -190 131 -2 0 -43 23 -91 50 -47 28 -125 73 -172 100
-48 28 -89 50 -91 50 -2 0 -29 16 -59 35 -30 19 -57 35 -60 35 -3 0 -28 15
-57 33 -29 18 -88 53 -132 77 -44 24 -103 59 -132 77 -29 18 -54 33 -57 33 -4
0 -139 78 -347 201 -64 38 -121 69 -128 69 -6 0 -11 5 -11 10 0 6 -5 10 -10
10 -6 0 -39 17 -73 38 -120 74 -185 112 -191 112 -3 0 -30 16 -60 35 -30 19
-58 35 -61 35 -4 0 -19 8 -33 19 -28 19 -131 77 -169 95 -13 6 -23 14 -23 19
0 4 -4 7 -9 7 -5 0 -59 29 -121 65 -62 36 -115 65 -117 65 -3 0 -17 8 -31 19
-25 16 -87 53 -152 87 -14 8 -37 14 -52 14 -15 0 -30 5 -33 10 -3 6 -28 10
-55 10 -27 0 -52 -4 -55 -10z m85 -75 c36 -18 35 -39 -1 -43 -57 -5 -135 -25
-163 -42 -17 -9 -89 -51 -161 -93 -418 -242 -521 -301 -720 -416 -121 -69
-221 -129 -223 -133 -2 -5 -8 -8 -12 -8 -5 0 -31 -13 -57 -28 -26 -16 -79 -45
-118 -66 -89 -49 -108 -65 -95 -81 6 -7 9 -19 8 -26 -2 -11 14 -14 67 -15 39
0 76 -4 83 -8 7 -4 12 -30 12 -62 l0 -56 68 2 c37 1 72 2 79 1 7 -1 13 -23 15
-58 l3 -58 75 0 75 0 5 -60 5 -60 72 0 c39 0 75 -4 79 -8 4 -4 8 -31 8 -60 l1
-52 71 -1 c40 -1 77 -5 83 -8 6 -4 11 -34 11 -67 l0 -59 33 0 c17 0 49 4 69 9
49 11 63 -5 63 -73 l0 -51 70 -1 c39 0 76 -4 83 -8 7 -4 12 -23 12 -42 0 -47
15 -44 83 17 40 35 57 58 57 75 0 23 -3 24 -71 24 -55 0 -75 -4 -84 -17 -10
-13 -12 -2 -11 58 l1 74 -77 3 c-66 2 -77 0 -81 -15 -3 -10 -5 14 -4 53 0 39
-2 75 -6 80 -9 15 -136 17 -154 2 -14 -11 -15 -7 -9 43 11 86 8 89 -86 85
l-80 -3 6 46 c3 25 2 51 -2 58 -9 14 -115 20 -148 10 -20 -7 -21 -4 -20 55 l1
63 -80 5 -80 5 3 47 c3 42 1 49 -20 57 -26 9 -114 9 -124 -2 -20 -20 -33 33
-15 62 7 11 13 12 23 4 11 -9 74 -25 118 -29 8 0 21 -2 28 -3 8 -1 12 -14 10
-41 -1 -22 0 -41 3 -44 2 -2 38 -10 79 -18 l75 -13 3 -42 c4 -47 9 -51 94 -60
51 -5 61 -9 69 -31 5 -13 7 -32 4 -42 -9 -27 19 -42 90 -48 70 -5 71 -5 77
-77 3 -29 4 -30 78 -40 l75 -10 5 -50 5 -50 53 -11 c29 -7 61 -10 70 -7 26 6
40 -16 44 -67 l3 -45 74 -10 c43 -6 76 -15 79 -23 7 -22 31 -13 47 18 20 39
20 38 -22 42 l-38 3 0 57 c0 32 3 58 8 58 4 0 7 -16 7 -36 0 -31 4 -37 36 -50
44 -18 58 -14 78 23 25 49 58 204 46 218 -8 9 -8 24 -1 47 9 32 9 32 10 6 1
-30 18 -38 27 -13 10 25 -6 67 -26 72 -19 5 -26 23 -14 36 3 3 14 2 23 -3 9
-5 23 -11 33 -14 11 -3 17 -20 21 -58 10 -113 56 -261 82 -267 10 -1 30 -14
44 -27 26 -24 26 -24 3 -24 -29 0 -28 -9 7 -56 47 -64 108 -118 116 -103 5 8
12 1 19 -21 7 -20 23 -39 43 -50 17 -9 43 -24 57 -33 14 -9 30 -17 37 -17 6 0
20 -11 30 -24 16 -20 118 -86 134 -86 3 0 5 13 5 30 l0 29 35 -22 c40 -25 45
-40 13 -35 -42 5 -32 -17 28 -59 43 -31 65 -41 82 -38 19 5 34 -5 70 -42 26
-27 63 -56 82 -66 51 -26 91 -49 127 -74 17 -13 34 -23 38 -23 4 0 24 -15 45
-33 21 -18 60 -43 87 -56 26 -13 75 -43 108 -66 33 -23 75 -46 93 -49 18 -4
56 -30 86 -57 30 -27 56 -49 59 -49 9 0 72 -55 137 -121 36 -37 77 -74 92 -84
15 -9 25 -22 22 -29 -4 -12 9 -40 60 -130 6 -11 18 -27 27 -37 9 -9 20 -35 24
-57 5 -30 15 -46 43 -66 32 -23 34 -26 14 -26 -17 0 -22 -6 -22 -27 1 -49 18
-107 37 -121 17 -12 17 -14 1 -23 -14 -8 -18 -23 -18 -74 0 -62 1 -64 38 -87
l37 -23 -37 -3 c-37 -3 -38 -4 -38 -44 0 -22 -6 -52 -14 -66 -24 -45 -40 -112
-30 -121 5 -5 18 -11 29 -13 16 -2 20 -12 22 -43 1 -22 -1 -31 -4 -20 -7 28
-23 45 -42 45 -20 0 -107 -168 -94 -181 5 -5 40 -15 78 -22 70 -12 70 -12 76
-49 7 -48 -8 -76 -17 -31 -6 31 -7 31 -71 35 -36 2 -70 0 -76 -4 -6 -4 -16 1
-22 9 -10 14 -17 11 -48 -23 -19 -21 -33 -43 -30 -48 3 -4 23 -6 43 -3 21 3
43 0 49 -6 6 -6 11 -37 11 -69 0 -67 0 -66 85 -71 83 -4 88 -9 83 -74 -4 -51
-3 -55 20 -64 14 -5 50 -10 79 -11 64 -2 72 -11 69 -81 -2 -44 0 -50 23 -59
14 -5 47 -11 73 -13 26 -2 51 -6 57 -10 6 -3 11 -33 11 -65 l0 -59 38 -10 c20
-6 55 -12 76 -15 49 -6 58 -20 51 -78 -4 -32 -2 -49 7 -55 18 -11 98 -32 125
-33 26 0 37 -28 31 -81 -4 -35 -11 -28 -22 23 -6 26 -7 26 -73 22 -49 -3 -72
-9 -82 -22 -11 -15 -12 -6 -8 63 9 116 5 121 -79 116 -38 -1 -72 -8 -76 -15
-4 -6 -7 27 -7 73 1 45 -4 88 -9 93 -6 6 -43 9 -87 6 l-76 -3 2 45 c1 25 2 60
1 78 l-2 32 -69 0 c-39 0 -73 -5 -76 -10 -15 -24 -24 5 -22 68 1 37 -2 72 -6
79 -5 8 -32 10 -89 6 l-81 -5 7 49 c10 79 0 95 -65 100 -49 4 -63 -1 -146 -44
-51 -26 -92 -52 -92 -58 1 -5 6 -8 12 -6 21 7 122 18 130 14 4 -2 7 -36 7 -75
l0 -70 85 7 84 7 3 -74 3 -73 80 0 80 0 3 -67 3 -67 82 -3 82 -3 5 -70 5 -70
80 -5 80 -5 3 -62 c3 -74 12 -82 98 -85 33 -1 62 -7 66 -12 11 -16 9 -144 -2
-151 -6 -4 -10 8 -10 29 0 19 -4 46 -10 60 -9 25 -12 26 -84 23 -85 -4 -87 -1
-79 77 8 65 -1 72 -91 66 l-75 -5 -3 75 -3 75 -83 0 -82 0 0 66 c0 78 -2 79
-106 75 -39 -1 -64 2 -65 8 -1 6 -1 34 1 63 2 64 -9 71 -102 69 l-67 -2 0 57
c1 32 -2 63 -6 69 -4 6 -23 11 -44 10 -20 -1 -58 -2 -84 -1 -45 1 -48 3 -42
22 6 19 4 21 -16 15 -13 -4 -48 -12 -77 -18 -51 -11 -75 -31 -71 -61 1 -6 1
-20 0 -31 -1 -15 -4 -16 -15 -7 -9 8 -42 11 -91 9 -72 -3 -76 -2 -71 17 10 40
-15 53 -134 72 -19 3 -42 11 -50 18 -8 6 -44 20 -80 29 -63 17 -199 72 -250
101 -14 8 -45 23 -70 35 -25 12 -85 42 -133 66 -49 25 -90 44 -92 42 -2 -2 -5
-22 -6 -45 -2 -31 -8 -43 -21 -46 -16 -5 -18 -18 -19 -119 0 -62 -1 -129 -2
-148 -2 -31 1 -35 21 -32 22 3 23 0 20 -40 -2 -24 -7 -41 -12 -40 -19 7 -25
-28 -27 -163 -2 -139 -2 -140 20 -137 20 3 22 0 19 -40 -2 -28 -7 -42 -16 -40
-19 3 -21 -10 -24 -156 -3 -128 -2 -132 17 -130 20 3 21 2 17 -57 l-2 -24
-202 3 c-112 2 -208 1 -215 -1 -7 -3 -13 -15 -13 -27 0 -20 -5 -22 -45 -22
-50 1 -55 5 -25 24 29 18 25 32 -10 32 l-30 0 -1 118 c0 64 -2 295 -4 512 -1
217 -3 402 -3 410 -1 8 1 54 4 103 5 71 3 87 -8 87 -24 0 -58 -39 -58 -66 0
-23 -3 -25 -29 -19 -44 9 -114 -15 -322 -113 -89 -42 -117 -52 -189 -72 -105
-29 -140 -42 -148 -56 -6 -10 -23 -15 -53 -14 -61 1 -235 17 -287 26 -34 5
-43 4 -42 -7 7 -48 1 -56 -45 -56 -25 0 -45 1 -45 2 0 1 18 15 40 30 22 15 40
31 40 35 0 4 -24 17 -52 28 -38 15 -68 20 -108 17 -55 -4 -55 -4 -33 14 13 11
23 21 23 24 0 2 -19 17 -42 32 -32 21 -54 28 -96 29 l-54 0 28 22 28 23 -38
45 c-37 46 -56 57 -56 34 0 -8 -17 -14 -48 -15 l-47 -2 30 24 c17 14 33 25 38
25 14 0 7 37 -16 81 -27 53 -72 161 -86 209 -14 50 -32 201 -36 314 -2 53 -6
105 -10 115 -3 10 3 28 13 42 11 13 25 49 32 79 7 30 26 86 42 124 32 79 34
90 12 82 -22 -9 -15 5 29 53 21 23 42 39 46 36 5 -3 32 24 61 59 81 100 208
206 343 286 32 19 67 43 77 53 11 9 24 17 29 17 6 0 36 17 67 38 31 20 70 46
88 56 17 11 52 34 79 53 26 18 52 33 58 33 13 0 108 66 126 88 7 8 9 22 4 34
-6 18 -17 21 -77 22 -56 1 -69 4 -72 18 -3 13 16 26 73 53 42 19 81 33 86 29
5 -3 9 -36 9 -75 0 -38 4 -69 10 -69 17 0 117 68 123 85 4 8 12 15 19 15 7 0
24 9 38 20 l25 20 -25 0 c-15 0 -31 -5 -38 -12 -9 -9 -12 -1 -13 38 -1 27 -4
60 -8 74 -6 23 -11 24 -69 23 -35 -1 -69 -7 -77 -13 -13 -11 -15 -5 -15 41 0
99 -2 101 -84 98 l-71 -2 -7 58 c-4 32 -10 60 -12 62 -2 2 -36 5 -75 6 l-71 2
0 31 c0 31 1 32 58 39 31 3 67 13 78 20 19 12 23 11 34 -9 7 -14 11 -48 9 -82
l-4 -59 35 3 c19 2 51 9 71 16 54 19 59 13 59 -70 0 -83 -3 -81 80 -63 27 6
50 16 50 22 0 7 6 6 14 -3 9 -9 16 -42 18 -85 l4 -70 32 3 c17 1 50 8 72 16
38 13 41 12 55 -7 14 -20 15 -20 72 15 42 26 59 43 61 61 3 23 0 24 -53 26
-65 1 -92 -10 -98 -41 -2 -13 -5 15 -6 62 -1 47 -5 90 -9 96 -4 6 -34 8 -79 4
-80 -6 -87 -1 -77 50 4 16 4 41 0 54 -6 25 -8 25 -86 23 l-80 -3 0 63 0 63
-80 0 -80 0 0 39 c0 22 -4 51 -9 65 -9 22 -13 24 -43 16 -40 -12 -100 -9 -110
5 -4 6 -5 18 -2 28 3 10 3 34 -1 53 l-6 34 -69 0 c-63 0 -70 -2 -70 -20 0 -11
-4 -20 -8 -20 -4 0 -7 26 -7 58 1 93 -4 99 -73 101 -33 1 -63 -3 -67 -9 -3 -5
-11 -10 -17 -10 -6 0 -8 23 -5 65 6 75 0 79 -61 42 -20 -12 -46 -27 -57 -33
-11 -6 -20 -16 -19 -23 1 -6 2 -39 3 -72 l1 -62 52 7 c28 4 59 11 67 15 32 16
41 1 41 -65 0 -62 -12 -84 -25 -44 -4 11 -16 21 -28 21 -65 4 -100 0 -108 -12
-8 -13 -14 29 -10 73 4 32 -27 66 -54 60 -18 -3 -25 0 -25 12 0 17 -8 15 -90
-23 -57 -26 -107 -55 -128 -74 -9 -8 -72 -42 -139 -76 -67 -34 -125 -66 -128
-71 -4 -6 -61 -38 -128 -71 -67 -33 -131 -69 -142 -78 -25 -22 -66 -45 -127
-71 -46 -18 -48 -18 -48 -1 0 32 63 89 173 156 59 36 110 65 113 65 2 0 23 12
45 26 36 22 85 50 154 88 11 6 22 13 25 16 3 3 14 10 25 16 101 55 141 78 150
84 6 4 54 33 108 64 53 31 141 81 195 112 265 154 354 205 386 223 19 11 53
31 75 45 22 15 43 26 46 26 3 0 31 16 61 35 30 19 56 35 58 35 3 0 50 27 106
60 56 33 104 60 106 60 2 0 40 23 84 50 44 28 82 50 84 50 4 0 175 99 286 165
116 69 258 146 289 156 36 12 113 3 151 -16z m70 -216 c0 -34 -3 -39 -13 -30
-9 7 -33 9 -63 5 -27 -3 -45 -2 -41 3 11 10 100 61 110 62 4 1 7 -18 7 -40z
m-309 -92 c-1 -4 -1 -17 -1 -28 0 -17 -3 -19 -13 -10 -8 6 -34 8 -68 4 -64 -7
-60 3 13 28 54 18 70 19 69 6z m470 0 c-1 -4 -1 -23 -1 -43 0 -36 0 -36 -18
-14 -15 18 -21 20 -45 11 -36 -14 -64 -14 -51 -1 14 14 98 59 107 56 5 -1 8
-5 8 -9z m-776 -76 c-3 -6 -11 -8 -17 -5 -6 4 -5 9 3 15 16 10 23 4 14 -10z
m465 -51 c0 -15 -8 -18 -50 -18 -28 -1 -59 -4 -69 -7 -11 -3 -22 -1 -26 5 -3
6 4 10 17 11 13 0 43 8 68 18 50 20 60 18 60 -9z m470 -32 c0 -41 0 -41 -18
-20 -16 18 -24 19 -56 12 -21 -5 -36 -4 -34 1 4 11 91 56 101 51 4 -2 7 -22 7
-44z m-774 -27 c-2 -3 -39 -6 -82 -6 -57 0 -78 4 -82 14 -3 10 2 12 19 9 13
-3 47 -3 74 1 46 6 80 -2 71 -18z m-316 6 c0 -10 -10 -12 -32 -8 -32 4 -32 5
-8 12 37 11 40 10 40 -4z m774 -46 c4 -5 3 -16 0 -24 -4 -12 -23 -15 -80 -15
-41 0 -74 4 -74 9 0 5 12 9 28 9 15 0 45 7 67 15 48 17 52 18 59 6z m476 -48
c0 -45 0 -46 -20 -28 -15 14 -29 16 -60 11 -22 -3 -40 -3 -40 1 0 7 92 57 113
61 4 1 7 -19 7 -45z m-1172 7 c17 0 32 -4 32 -10 0 -5 -25 -10 -55 -10 -44 0
-55 3 -55 16 0 12 6 15 23 10 12 -3 37 -6 55 -6z m390 -23 c3 -13 -8 -15 -77
-14 -43 1 -82 5 -86 9 -16 16 8 23 82 22 63 -1 79 -4 81 -17z m-313 3 c3 -5 2
-10 -4 -10 -5 0 -13 5 -16 10 -3 6 -2 10 4 10 5 0 13 -4 16 -10z m-251 -42
c-6 -9 -54 0 -68 12 -4 5 -5 13 -2 19 5 7 18 5 41 -6 19 -9 32 -20 29 -25z
m-188 7 l29 -15 -32 0 c-23 0 -33 5 -33 15 0 18 1 18 36 0z m1216 -21 c3 -3 4
-13 1 -22 -3 -14 -15 -17 -78 -14 -41 2 -75 8 -75 12 0 5 6 7 13 5 6 -3 35 2
62 9 58 17 70 18 77 10z m-682 -34 c13 0 20 -4 15 -8 -6 -5 -34 -7 -62 -4 -43
3 -53 7 -53 22 0 16 3 17 38 4 20 -7 48 -13 62 -14z m1160 -10 c0 -29 -13 -40
-25 -20 -3 6 -16 8 -28 5 -58 -12 -97 -14 -97 -4 0 5 3 8 8 6 4 -3 32 5 62 18
73 31 80 31 80 -5z m416 11 c-8 -12 -46 -21 -46 -11 0 9 18 18 38 19 7 1 11
-3 8 -8z m-2128 -20 c28 -24 28 -31 -2 -31 -26 0 -51 24 -41 40 9 14 16 12 43
-9z m615 4 c4 -8 2 -17 -2 -20 -5 -2 -11 4 -14 15 -6 23 8 27 16 5z m307 -5
c0 -12 -16 -15 -80 -15 -64 0 -80 3 -80 15 0 12 16 15 80 15 64 0 80 -3 80
-15z m-740 -32 c0 -11 -32 -10 -49 1 -8 5 -11 16 -8 26 6 15 9 15 32 -2 13
-10 25 -21 25 -25z m150 27 c39 -20 38 -25 -5 -25 -28 0 -35 4 -35 20 0 24 3
24 40 5z m-483 -1 c-3 -3 -12 -4 -19 -1 -8 3 -5 6 6 6 11 1 17 -2 13 -5z m-55
-66 c2 -16 15 -27 45 -38 65 -24 63 -32 -7 -28 -62 4 -65 5 -62 28 1 14 4 33
5 43 2 24 15 21 19 -5z m1598 -21 c-1 -25 -3 -28 -10 -16 -8 13 -22 15 -80 11
-45 -3 -70 -1 -70 6 0 5 15 10 33 10 17 0 50 7 72 15 49 18 55 15 55 -26z
m-672 -2 c3 -3 -20 -5 -51 -5 -53 0 -75 10 -63 29 5 8 103 -12 114 -24z m-727
0 l44 -25 -47 0 c-45 0 -48 2 -48 25 0 14 2 25 4 25 2 0 24 -11 47 -25z m1879
-23 c0 -33 -1 -35 -16 -20 -13 12 -24 14 -56 6 -36 -8 -68 -1 -43 9 6 2 30 14
55 26 25 13 48 21 53 19 4 -2 7 -20 7 -40z m-1715 13 c30 -25 23 -31 -22 -19
-14 4 -23 14 -23 25 0 25 9 24 45 -6z m348 -18 c12 -2 3 -5 -20 -6 -43 -1 -48
4 -37 34 6 14 8 14 20 -4 8 -11 24 -22 37 -24z m1817 35 c0 -9 -58 -32 -81
-32 -20 0 42 38 64 39 9 1 17 -3 17 -7z m-2014 -16 c7 -8 19 -16 26 -19 23 -8
0 -20 -27 -13 -16 4 -25 13 -25 26 0 24 6 25 26 6z m464 -2 c0 -8 -4 -12 -10
-9 -5 3 -10 10 -10 16 0 5 5 9 10 9 6 0 10 -7 10 -16z m303 7 c4 -1 7 -8 7
-16 0 -12 -15 -15 -78 -15 -81 0 -94 4 -86 23 3 10 92 14 157 8z m-1123 -71
c0 -5 -4 -10 -10 -10 -5 0 -10 5 -10 10 0 6 5 10 10 10 6 0 10 -4 10 -10z
m887 -19 c37 -9 37 -9 -19 -10 -52 -1 -58 1 -58 19 0 17 3 19 19 10 11 -5 37
-14 58 -19z m-670 -21 c7 0 13 -4 13 -10 0 -16 -66 -12 -80 5 -10 12 -10 18 0
30 10 12 15 12 33 -5 11 -11 27 -20 34 -20z m1383 18 c0 -22 -4 -23 -77 -23
-50 1 -78 5 -81 13 -2 8 12 12 45 13 26 0 57 4 68 9 33 14 45 11 45 -12z
m-1235 -13 l30 -25 -37 0 c-34 0 -38 3 -38 25 0 31 7 31 45 0z m-324 -12 l54
-28 -54 -3 c-60 -3 -76 6 -66 37 3 12 7 21 9 21 1 0 27 -12 57 -27z m484 -21
c-32 -4 -48 8 -39 31 5 14 9 14 36 -6 l30 -22 -27 -3z m177 6 c-13 -13 -52 4
-52 23 0 17 1 17 30 1 16 -9 26 -20 22 -24z m1378 10 l0 -33 -60 0 c-33 0 -59
4 -57 9 2 6 75 41 115 55 1 1 2 -14 2 -31z m470 28 c0 -2 2 -10 5 -18 4 -9 -8
-14 -42 -15 l-48 -2 25 19 c22 17 60 27 60 16z m-1270 -21 c28 -18 0 -28 -71
-26 -72 2 -97 10 -86 28 6 9 141 8 157 -2z m-1118 -75 c2 -20 13 -29 55 -44
29 -10 51 -21 49 -25 -2 -3 -33 -4 -68 -1 -52 4 -63 8 -62 23 0 9 1 34 2 54 2
40 18 36 24 -7z m224 -37 c16 -10 12 -12 -28 -10 -51 2 -65 16 -48 47 10 18
11 18 33 -3 13 -12 32 -27 43 -34z m647 32 c45 -9 30 -23 -20 -17 -57 6 -55 5
-47 25 4 11 11 13 22 7 10 -5 29 -11 45 -15z m-507 -20 l37 -25 -34 0 c-43 0
-64 13 -56 34 8 21 9 21 53 -9z m163 -33 c-26 -4 -52 19 -44 40 5 13 11 11 36
-11 29 -25 29 -26 8 -29z m1071 32 c0 -21 -3 -25 -17 -19 -10 4 -49 6 -86 6
-44 -2 -67 2 -63 8 4 5 14 10 24 10 9 0 37 5 62 10 75 15 80 14 80 -15z m-883
-30 c-2 -2 -18 -1 -35 2 -22 5 -32 12 -32 25 0 17 2 17 35 -3 20 -11 34 -22
32 -24z m1861 24 c3 -14 -4 -18 -31 -18 -20 0 -42 -3 -51 -6 -26 -10 -18 10
12 28 34 21 66 19 70 -4z m-1298 -15 c0 -16 -9 -18 -80 -15 -61 3 -80 7 -80
18 0 11 17 14 80 14 70 0 80 -2 80 -17z m802 11 c3 -3 3 -14 1 -26 -5 -16 -12
-19 -42 -15 -20 2 -46 0 -58 -4 -12 -5 -25 -4 -28 0 -2 5 10 14 28 21 17 6 41
16 52 20 24 10 40 12 47 4z m-1922 -73 c0 -25 6 -31 48 -46 74 -28 75 -37 2
-33 -71 3 -82 10 -70 44 5 12 6 31 3 43 -3 12 -1 21 6 21 6 0 11 -13 11 -29z
m210 -31 c43 -18 37 -26 -15 -22 -39 4 -45 7 -45 26 0 29 12 41 22 23 4 -8 21
-20 38 -27z m663 24 c44 -10 31 -19 -23 -16 -37 3 -50 8 -50 19 0 11 6 14 23
9 12 -4 34 -9 50 -12z m-508 -19 l30 -25 -37 0 c-40 0 -51 9 -42 34 8 21 13
20 49 -9z m175 -27 c0 -12 -48 -9 -55 2 -4 6 -4 18 -1 26 5 13 9 13 31 -3 13
-10 25 -21 25 -25z m1060 24 c0 -17 -9 -19 -82 -18 -55 1 -83 5 -85 13 -3 9 4
11 24 7 15 -3 46 -1 68 4 62 15 75 14 75 -6z m990 -9 c0 -27 -2 -28 -55 -30
-30 -1 -55 0 -55 2 0 10 76 54 93 54 12 1 17 -7 17 -26z m-1374 -3 c47 0 64
-4 64 -13 0 -20 -156 -23 -163 -3 -7 18 3 28 21 21 7 -3 43 -5 78 -5z m865
-28 c-6 -10 -7 -23 -3 -27 4 -5 1 -5 -7 0 -8 4 -37 8 -65 7 l-51 -1 60 29 c62
29 85 27 66 -8z m-3193 -26 c6 -47 -7 -101 -21 -87 -6 6 -39 11 -73 11 -52 0
-62 3 -67 19 -7 26 2 35 51 51 24 7 51 19 60 27 26 20 47 11 50 -21z m1274
-17 c3 -33 9 -39 66 -60 43 -16 25 -27 -40 -26 l-47 1 2 58 c2 62 14 78 19 27z
m197 -25 c12 -7 28 -17 34 -24 10 -10 3 -11 -31 -7 -24 3 -46 7 -48 10 -3 3
-2 22 2 43 7 35 8 37 14 14 3 -14 16 -30 29 -36z m-1009 -50 c0 -84 -1 -84 86
-58 70 20 80 12 78 -58 -3 -71 -3 -68 -13 -68 -5 0 -11 10 -13 23 -3 21 -7 22
-75 20 -69 -2 -73 -1 -74 20 -1 12 -1 26 0 31 1 4 -3 24 -10 43 l-11 35 -69
-4 -69 -4 0 36 c0 29 4 35 23 37 57 4 109 17 114 30 4 10 9 11 19 2 10 -8 14
-35 14 -85z m1685 60 c30 -13 29 -13 -20 -11 -40 2 -51 6 -53 20 -4 21 11 19
73 -9z m-514 -13 c33 -20 24 -37 -14 -25 -24 7 -38 24 -31 36 7 11 9 10 45
-11z m330 -11 c5 0 9 -5 9 -10 0 -6 -11 -8 -27 -4 -36 9 -37 10 -29 29 5 15 7
15 22 1 8 -9 20 -16 25 -16z m907 -21 c2 -42 2 -43 -11 -19 -12 23 -17 25 -85
24 -80 -2 -99 18 -21 22 24 1 55 7 69 12 37 16 45 10 48 -39z m1002 15 c0 -29
-3 -34 -13 -25 -8 6 -16 9 -18 7 -9 -8 -79 -14 -79 -7 0 8 89 60 103 61 4 0 7
-16 7 -36z m-1635 6 c3 -5 1 -10 -4 -10 -6 0 -11 5 -11 10 0 6 2 10 4 10 3 0
8 -4 11 -10z m314 -26 c2 -12 -2 -15 -14 -10 -9 3 -48 6 -86 6 -52 0 -69 3
-69 14 0 11 17 13 83 11 68 -3 83 -7 86 -21z m811 -3 c0 -28 -1 -28 -56 -30
-64 -1 -64 11 0 39 55 25 56 24 56 -9z m-3655 -62 l0 -54 -47 -1 c-26 -1 -53
-4 -61 -7 -7 -3 -19 3 -25 13 -10 16 -7 22 21 42 17 13 45 33 62 45 16 11 35
20 40 19 6 -2 10 -27 10 -57z m451 -11 c-4 -55 -11 -67 -28 -50 -7 7 -38 12
-69 12 -44 0 -58 4 -63 17 -8 21 -3 25 67 53 31 12 60 27 63 32 3 5 11 4 19
-2 10 -8 13 -28 11 -62z m1286 13 c3 -31 8 -36 46 -49 53 -17 48 -24 -17 -26
-50 -1 -70 12 -54 36 3 6 5 29 5 52 -2 48 15 37 20 -13z m203 -27 c19 -9 35
-18 35 -20 0 -3 -21 -3 -47 -1 -36 4 -48 9 -47 21 0 9 2 31 3 49 l3 32 9 -32
c7 -22 20 -37 44 -49z m650 27 l50 -19 -45 3 c-25 2 -51 4 -57 4 -14 1 -19 31
-5 31 4 0 30 -9 57 -19z m-338 -49 c-34 -4 -52 10 -44 32 5 13 11 12 40 -7
l34 -22 -30 -3z m1072 0 c0 -33 -1 -35 -10 -14 -8 22 -13 23 -70 18 -70 -5
-89 -1 -89 21 0 12 3 13 14 4 10 -8 29 -8 77 2 35 7 67 12 72 9 4 -2 7 -20 6
-40z m1011 23 c0 -26 -6 -28 -52 -25 -15 1 -36 -4 -48 -10 -12 -6 -24 -10 -26
-7 -6 6 97 66 114 66 6 1 12 -10 12 -24z m-1919 -1 c38 -19 34 -25 -14 -17
-22 3 -37 11 -37 19 0 18 14 18 51 -2z m587 -35 c3 -19 1 -21 -10 -12 -8 7
-45 13 -83 15 -43 2 -70 8 -72 15 -3 9 16 12 79 9 78 -4 83 -5 86 -27z m815
-2 c-4 -21 -10 -23 -69 -24 -36 0 -63 1 -60 4 9 10 120 51 127 48 3 -3 4 -15
2 -28z m-3659 -22 c3 -9 3 -35 0 -58 l-6 -42 -52 1 c-109 2 -112 11 -23 70 72
49 73 49 81 29z m454 -14 c2 -13 1 -38 -2 -55 l-6 -32 -68 4 c-113 7 -120 28
-24 76 77 39 96 40 100 7z m-880 -62 l-3 -44 -65 -2 -65 -3 60 54 c33 30 64
51 68 47 5 -5 7 -28 5 -52z m3022 40 c10 -6 1 -8 -27 -9 -32 0 -43 4 -43 15 0
12 7 14 28 9 15 -4 34 -10 42 -15z m1756 -11 c-3 -13 -6 -26 -6 -29 0 -3 -16
-6 -36 -7 -20 -1 -45 -4 -55 -7 -33 -11 -21 4 29 35 58 36 77 38 68 8z m-1906
-34 c0 -8 -71 0 -77 9 -2 4 -2 14 1 22 4 12 11 11 41 -6 19 -12 35 -23 35 -25z
m-188 16 l33 -20 -37 0 c-37 0 -54 12 -43 30 8 13 9 13 47 -10z m1068 -6 c0
-18 -4 -23 -12 -17 -7 4 -44 8 -82 8 -49 0 -71 4 -74 14 -3 9 1 11 14 7 11 -3
39 -2 64 3 80 16 90 14 90 -15z m-321 -19 c2 -13 -1 -16 -14 -11 -9 3 -48 6
-86 6 -51 0 -69 3 -69 13 0 11 19 13 83 12 69 -2 83 -5 86 -20z m821 13 c0
-28 -19 -38 -81 -44 -35 -4 -62 -4 -59 -1 6 6 121 55 133 56 4 1 7 -5 7 -11z
m-3669 -93 c-1 -28 -4 -51 -6 -53 -1 -1 -31 -4 -66 -5 -84 -3 -89 16 -14 63
30 19 55 39 55 43 0 5 8 7 18 5 14 -3 16 -12 13 -53z m456 15 c1 -19 0 -45 -3
-58 -4 -19 -7 -21 -25 -11 -12 6 -45 9 -75 7 -46 -2 -55 0 -60 15 -7 24 -5 26
69 58 78 35 91 33 94 -11z m2148 0 c37 -14 31 -19 -17 -15 -24 2 -46 4 -50 4
-5 1 -8 8 -8 17 0 17 19 15 75 -6z m1765 -2 c0 -19 -19 -65 -20 -47 0 3 -20 3
-45 -1 -60 -9 -59 7 3 42 58 33 62 34 62 6z m-4797 -45 c-3 -27 -8 -50 -10
-52 -9 -11 -47 -10 -59 0 -11 9 -18 8 -29 -1 -9 -7 -19 -9 -23 -5 -8 8 97 105
115 105 9 0 11 -13 6 -47z m2547 -3 c-6 -4 -22 -5 -36 -2 -17 3 -24 11 -24 28
l0 23 36 -21 c22 -13 31 -24 24 -28z m1210 22 c0 -15 -12 -17 -79 -19 -54 -2
-81 2 -84 10 -3 8 11 13 47 14 28 1 62 6 76 11 29 11 40 7 40 -16z m-1055 -22
c-3 -4 -16 -5 -30 -2 -16 3 -25 11 -25 24 0 18 1 19 29 2 17 -10 28 -21 26
-24z m159 8 c-9 -13 -52 -9 -57 6 -3 8 -3 16 -1 19 8 8 63 -16 58 -25z m574
-19 c3 -19 1 -22 -9 -11 -8 7 -41 12 -86 12 -53 0 -73 4 -73 13 0 10 20 13 83
11 78 -2 82 -3 85 -25z m822 7 c0 -19 -6 -24 -37 -30 -21 -3 -54 -6 -73 -6
l-35 0 30 14 c17 7 46 20 65 29 47 21 50 21 50 -7z m-4662 -38 l-3 -43 -42 -1
c-24 0 -43 2 -43 5 0 9 74 81 83 81 4 0 7 -19 5 -42z m1448 -49 c2 -61 -3 -74
-20 -60 -6 5 -38 11 -71 13 -55 3 -74 11 -75 30 0 4 26 19 58 33 31 14 64 29
72 35 27 16 35 4 36 -51z m-456 -4 l0 -55 -71 0 c-56 0 -70 3 -67 15 3 16 106
93 126 94 8 1 12 -16 12 -54z m2600 22 l35 -12 -39 -3 c-47 -4 -66 3 -66 24 0
11 5 14 18 9 9 -4 33 -12 52 -18z m1780 6 c0 -29 -16 -47 -36 -39 -9 4 -32 1
-51 -5 -52 -17 -48 -6 10 28 61 36 77 40 77 16z m-4810 -55 c0 -62 -19 -80
-61 -57 -15 8 -24 7 -35 -2 -8 -6 -18 -8 -22 -4 -7 7 95 105 110 105 4 0 8
-19 8 -42z m2535 -6 c-32 -4 -50 10 -41 33 5 14 10 13 37 -7 l31 -23 -27 -3z
m335 13 c0 -3 -13 -5 -30 -5 -23 0 -30 4 -30 20 0 20 1 20 30 5 17 -9 30 -18
30 -20z m890 16 c0 -16 -9 -19 -87 -20 -100 -2 -102 9 -5 25 93 16 92 16 92
-5z m-1068 -11 l33 -20 -37 0 c-31 0 -38 4 -38 20 0 25 2 25 42 0z m746 -27
c3 -26 2 -27 -13 -12 -12 12 -28 15 -60 11 -52 -5 -95 4 -95 21 0 9 22 12 83
10 82 -2 82 -2 85 -30z m832 18 c0 -28 -14 -34 -84 -37 l-61 -3 60 29 c71 35
85 36 85 11z m-4680 -60 c0 -38 -19 -68 -28 -43 -2 8 -12 8 -32 -3 -52 -27
-53 -16 -4 35 26 28 52 50 56 50 4 0 8 -18 8 -39z m1458 -63 c-2 -66 -13 -92
-20 -45 -3 20 -9 22 -64 23 -109 1 -113 26 -11 75 90 43 98 39 95 -53z m-460
16 l-3 -49 -70 1 c-44 0 -70 4 -70 11 0 15 128 101 138 93 5 -4 7 -29 5 -56z
m2583 34 c47 -13 53 -33 8 -24 -17 3 -38 6 -45 6 -8 0 -14 7 -14 15 0 18 2 18
51 3z m754 -28 c0 -12 -17 -16 -82 -18 -53 -2 -83 1 -83 8 0 5 17 11 38 11 20
1 51 5 67 9 41 11 60 7 60 -10z m-3771 -13 c0 -9 -1 -32 -2 -51 l-2 -34 -57 3
c-32 2 -60 4 -62 4 -2 1 13 16 34 34 22 17 46 39 55 49 18 20 35 17 34 -5z
m2872 -16 c-10 -16 -56 1 -56 20 0 18 2 19 30 4 17 -9 28 -20 26 -24z m-177
10 c13 -10 20 -21 15 -23 -15 -9 -54 10 -54 27 0 20 10 19 39 -4z m710 1 c25
2 36 -1 39 -12 2 -13 -11 -14 -83 -12 -60 3 -85 7 -85 16 0 21 9 24 53 14 23
-5 57 -8 76 -6z m881 6 c0 -28 -18 -37 -80 -43 -60 -6 -63 -6 -44 8 11 9 33
19 47 22 15 4 30 11 33 16 8 14 44 11 44 -3z m-4694 -86 c-2 -33 -5 -37 -31
-38 -17 -1 -38 -5 -47 -9 -10 -4 -18 -3 -18 1 0 13 83 94 91 88 4 -2 7 -21 5
-42z m1002 -12 c7 -69 0 -75 -75 -73 -37 1 -69 6 -71 11 -3 10 60 62 76 62 5
0 17 9 27 20 25 27 39 21 43 -20z m2622 -3 c8 -3 -9 -6 -37 -6 -46 -1 -53 2
-53 18 0 19 8 18 90 -12z m720 -6 c0 -17 -9 -20 -72 -23 -79 -4 -98 -1 -98 14
0 5 8 7 18 4 9 -3 42 1 72 8 76 19 80 19 80 -3z m520 -10 c0 -27 -18 -36 -80
-39 l-55 -2 60 29 c71 36 75 36 75 12z m-5250 -16 c0 -14 -4 -25 -10 -25 -11
0 -14 33 -3 43 11 11 13 8 13 -18z m950 -14 c0 -61 -6 -70 -45 -61 -18 4 -39
4 -46 -1 -8 -5 -21 -9 -29 -8 -14 0 97 108 113 109 4 0 7 -18 7 -39z m2859 16
c6 -8 8 -16 5 -19 -10 -10 -44 4 -44 18 0 18 24 18 39 1z m527 3 c50 0 64 -3
64 -15 0 -12 -15 -15 -79 -15 -44 0 -83 5 -86 10 -9 15 5 32 22 26 8 -3 44 -6
79 -6z m-675 -20 l24 -20 -30 2 c-19 2 -31 9 -33 21 -5 23 10 22 39 -3z
m-3121 -67 c0 -52 -8 -59 -59 -53 l-45 5 45 42 c24 24 47 43 52 43 4 0 7 -17
7 -37z m1005 17 c3 -6 3 -30 0 -54 l-7 -43 -69 1 c-45 0 -69 5 -69 12 0 10
114 91 132 93 4 1 10 -4 13 -9z m2608 -24 c20 -4 37 -12 37 -18 0 -5 -7 -7
-16 -4 -9 3 -33 6 -55 6 -33 0 -39 3 -39 20 0 17 4 19 18 12 9 -5 34 -12 55
-16z m738 1 c-1 -4 -1 -13 -1 -20 0 -11 -20 -14 -80 -15 -48 -1 -80 2 -80 8 0
5 10 10 23 10 12 0 45 7 72 14 52 15 67 15 66 3z m529 -9 c0 -26 -17 -35 -72
-42 -32 -4 -58 -5 -58 -2 0 8 100 54 118 55 6 1 12 -5 12 -11z m-5270 -58 c-7
-38 -20 -66 -20 -43 0 5 -13 8 -30 5 -16 -2 -30 -1 -30 3 0 12 73 84 81 80 3
-3 3 -23 -1 -45z m959 18 c-1 -63 -10 -71 -72 -72 -31 -1 -57 1 -57 4 -1 10
105 99 118 100 7 0 12 -13 11 -32z m3381 19 c69 3 70 2 70 -23 0 -20 -3 -23
-17 -17 -10 5 -46 8 -81 7 -34 -1 -65 2 -67 6 -8 13 7 42 16 33 5 -5 41 -8 79
-6z m-515 -9 c35 -16 31 -30 -7 -26 -22 2 -34 9 -36 21 -4 20 7 21 43 5z
m-155 -18 l25 -20 -32 0 c-26 0 -33 4 -33 20 0 25 8 25 40 0z m-3132 -72 c-3
-38 -6 -43 -29 -44 -14 -1 -39 -4 -55 -8 -28 -7 -27 -5 21 43 28 28 54 51 58
51 5 0 7 -19 5 -42z m4369 -10 c-6 -16 -167 -25 -167 -10 0 5 12 10 28 10 15
1 50 7 77 15 51 14 72 9 62 -15z m-712 -3 l40 -13 -41 -1 c-61 -1 -104 9 -104
26 0 16 26 13 105 -12z m-3087 -47 l-3 -53 -57 -2 c-32 -1 -58 2 -58 5 0 9
103 101 113 102 4 0 7 -24 5 -52z m3467 13 c0 -11 -17 -14 -80 -12 -86 3 -97
5 -89 24 7 18 169 7 169 -12z m-4425 -26 c0 -44 -1 -45 -30 -41 -17 2 -33 0
-36 -5 -3 -5 -13 -9 -22 -9 -11 0 0 17 33 50 27 28 51 50 52 50 2 0 3 -20 3
-45z m3844 24 c14 -7 23 -15 21 -19 -7 -11 -68 4 -73 18 -5 15 19 16 52 1z
m-163 -14 c33 -18 30 -40 -4 -29 -22 7 -37 22 -37 37 0 10 7 9 41 -8z m-3137
-62 c-9 -62 -11 -65 -34 -53 -14 8 -25 7 -39 -2 -38 -23 -32 0 11 45 54 57 68
59 62 10z m4379 -3 c-5 -17 -15 -20 -64 -22 -33 -1 -66 -2 -76 -2 -9 -1 -18 5
-21 12 -2 7 2 10 10 7 7 -3 42 3 78 14 36 10 68 17 72 15 3 -2 4 -13 1 -24z
m-733 -14 c23 -10 22 -11 -18 -14 -41 -3 -72 10 -72 29 0 10 53 1 90 -15z m75
-17 c11 -17 -1 -21 -15 -4 -8 9 -8 15 -2 15 6 0 14 -5 17 -11z m256 1 c59 0
69 -2 69 -18 0 -15 -9 -17 -77 -14 -94 4 -104 7 -97 27 4 9 13 14 21 11 8 -3
46 -6 84 -6z m-4376 -89 c-6 -15 -7 -14 -16 1 -9 16 -13 17 -39 3 -48 -25 -47
-18 5 36 l50 50 3 -37 c2 -20 0 -44 -3 -53z m3860 59 l40 -19 -42 0 c-24 -1
-43 1 -43 3 0 2 -3 11 -6 20 -8 20 1 19 51 -4z m-3309 -52 c-3 -13 -6 -33 -6
-45 0 -14 -6 -23 -15 -23 -8 0 -15 5 -15 11 0 8 -4 8 -15 -1 -8 -6 -19 -9 -24
-6 -5 4 -12 2 -16 -4 -3 -5 -12 -10 -18 -10 -16 0 85 99 102 100 9 0 11 -7 7
-22z m-916 -33 c0 -33 -4 -45 -15 -45 -8 0 -15 5 -15 11 0 6 -9 8 -20 4 -11
-3 -20 -4 -20 0 0 10 54 75 63 75 4 0 7 -20 7 -45z m5310 33 c0 -7 -4 -18 -8
-23 -10 -15 -154 -13 -159 2 -3 7 3 10 14 7 10 -2 41 2 68 10 64 18 85 19 85
4z m-735 -33 l50 -13 -69 1 c-46 1 -71 6 -74 15 -5 15 27 14 93 -3z m75 -15
c0 -5 -4 -10 -10 -10 -5 0 -10 5 -10 10 0 6 5 10 10 10 6 0 10 -4 10 -10z
m318 -14 c3 -14 -8 -16 -82 -16 -75 0 -86 2 -86 18 0 15 10 17 82 16 68 -1 84
-4 86 -18z m-4448 -31 c0 -43 -1 -45 -27 -43 -16 1 -39 -2 -53 -6 -21 -7 -16
1 25 43 27 28 51 51 52 51 2 0 3 -20 3 -45z m3880 -1 c24 -13 23 -14 -20 -11
-34 1 -46 6 -48 20 -3 16 0 18 20 12 12 -4 34 -14 48 -21z m-4250 -61 c0 -47
-15 -77 -25 -50 -5 13 -11 14 -25 7 -39 -21 -40 -8 -3 35 21 24 41 44 46 45 4
0 7 -17 7 -37z m5240 18 c0 -13 -57 -24 -72 -14 -9 5 1 10 27 14 22 3 41 7 43
8 1 0 2 -3 2 -8z m-636 -30 c27 -3 51 -10 53 -16 5 -14 -150 -6 -159 8 -15 23
-8 29 25 21 17 -4 54 -9 81 -13z m376 -23 c0 -16 -10 -18 -85 -18 -74 0 -85 2
-85 18 0 15 11 17 85 17 75 1 85 -1 85 -17z m-4460 -29 c0 -36 -2 -40 -22 -38
-13 1 -31 -2 -41 -6 -10 -4 -20 -6 -22 -3 -5 5 67 86 78 87 4 1 7 -17 7 -40z
m3895 -21 c5 -4 -7 -8 -27 -8 -37 0 -54 12 -43 30 6 9 49 -4 70 -22z m-4265
-52 c0 -38 -8 -50 -25 -36 -9 7 -21 7 -39 0 -41 -15 -41 -14 5 35 23 24 46 42
50 39 5 -3 9 -20 9 -38z m4629 -10 c19 -1 37 -8 39 -15 3 -10 -12 -11 -69 -6
-87 8 -99 11 -99 25 0 8 15 9 48 4 26 -4 62 -8 81 -8z m369 -13 c-2 -11 -23
-15 -85 -18 -71 -2 -83 0 -83 14 0 13 14 16 86 17 70 1 84 -1 82 -13z m-588
-55 c22 -7 40 -15 40 -18 0 -3 -20 -7 -44 -8 -36 -1 -45 2 -49 18 -6 23 0 24
53 8z m-4270 -35 c0 -31 -15 -61 -25 -51 -4 3 -23 0 -42 -9 l-36 -15 24 29
c74 86 79 89 79 46z m4115 -3 l30 -20 -37 0 c-31 0 -38 4 -38 20 0 25 7 25 45
0z m513 -27 c36 -4 62 -10 62 -17 0 -13 -149 -9 -164 4 -13 13 4 32 23 25 9
-4 44 -9 79 -12z m321 -9 c9 -8 -6 -13 -49 -16 -35 -2 -45 1 -48 13 -3 14 4
16 45 11 26 -2 50 -6 52 -8z m-5311 -31 c-3 -37 -4 -38 -45 -38 l-42 0 36 38
c21 20 41 37 46 37 4 0 7 -17 5 -37z m504 -82 c-7 -42 -8 -44 -25 -27 -14 15
-20 16 -33 6 -8 -7 -17 -10 -21 -6 -4 3 11 24 32 46 22 22 43 36 47 32 4 -4 4
-27 0 -51z m4313 34 l30 -13 -46 -1 c-44 -1 -78 17 -62 33 7 7 31 1 78 -19z
m-175 -35 l35 -20 -40 2 c-29 2 -41 8 -43 21 -4 22 4 21 48 -3z m-4500 -39 c0
-39 0 -39 -44 -42 -38 -3 -43 -2 -33 11 12 15 70 69 75 70 1 0 2 -18 2 -39z
m5006 29 c55 0 64 -3 64 -18 0 -15 -9 -17 -77 -14 -43 2 -82 8 -87 12 -12 12
4 32 21 26 8 -3 44 -6 79 -6z m-195 -90 l44 -20 -47 0 c-46 0 -65 11 -53 30 8
13 6 13 56 -10z m-4673 -66 c-3 -35 -4 -36 -46 -38 l-42 -2 37 38 c20 21 41
38 46 38 4 0 7 -16 5 -36z m4523 15 c23 -11 39 -22 37 -24 -1 -1 -21 0 -43 4
-26 4 -41 12 -43 24 -4 22 0 21 49 -4z m483 6 c67 -11 15 -33 -61 -26 -7 0
-13 10 -13 20 0 13 6 18 18 16 9 -2 34 -7 56 -10z m-599 -53 c4 -11 -3 -12
-28 -7 -43 10 -47 13 -47 35 0 19 1 19 35 2 19 -9 37 -23 40 -30z m-4755 16
c0 -7 -3 -23 -6 -35 -6 -22 -9 -22 -53 4 -6 4 40 43 51 43 4 0 8 -6 8 -12z
m5208 -64 c37 -8 43 -24 8 -24 -44 0 -85 12 -91 27 -4 12 0 14 22 9 16 -3 43
-9 61 -12z m-4718 -40 c0 -27 -4 -35 -14 -31 -8 3 -30 2 -48 -3 l-33 -10 40
40 c22 21 43 39 48 40 4 0 7 -16 7 -36z m4540 -11 c44 -19 54 -35 18 -29 -13
3 -33 5 -45 5 -16 1 -23 7 -23 21 0 24 0 24 50 3z m-4899 -6 c-1 -4 -1 -19 -2
-34 0 -16 -3 -22 -6 -15 -3 9 -16 11 -41 7 l-37 -6 35 30 c33 28 53 35 51 18z
m4747 -23 c46 -22 48 -33 5 -31 -31 2 -39 7 -41 25 -4 26 -4 26 36 6z m-139
-18 c15 -8 33 -21 40 -30 11 -13 8 -14 -16 -11 -15 2 -36 4 -45 4 -12 1 -18 9
-18 26 0 29 2 30 39 11z m-4110 -59 c-5 -17 -9 -33 -9 -35 0 -2 -9 -1 -19 3
-11 3 -22 1 -26 -5 -3 -5 -14 -10 -23 -10 -11 0 -2 14 28 45 49 49 63 50 49 2z
m4719 16 c49 -9 38 -24 -15 -21 -38 2 -49 7 -51 22 -3 15 0 17 14 12 11 -4 34
-10 52 -13z m-5076 -59 c-3 -26 -8 -34 -19 -30 -8 3 -27 6 -41 6 l-27 1 35 29
c46 39 57 38 52 -6z m4925 -9 c45 -19 38 -28 -16 -19 -25 4 -41 12 -41 20 0
18 12 18 57 -1z m-152 -32 c44 -21 45 -34 3 -31 -33 2 -48 13 -48 36 0 16 2
15 45 -5z m-139 -24 c43 -26 43 -37 2 -35 -36 1 -48 11 -48 39 0 22 5 22 46
-4z m-96 -48 c11 -8 1 -11 -37 -11 -52 0 -53 0 -53 30 l0 30 38 -19 c20 -11
44 -25 52 -30z m-4400 9 c0 -24 -4 -30 -22 -30 -13 0 -34 -3 -48 -6 -22 -5
-20 -1 15 30 22 20 43 36 48 36 4 0 7 -13 7 -30z m-356 -15 c-4 -16 -15 -21
-52 -23 l-47 -3 45 29 c47 31 63 30 54 -3z m4584 -10 c29 -14 52 -29 52 -33 0
-5 -21 -5 -47 -1 -27 4 -54 8 -60 8 -14 1 -18 51 -5 51 5 0 32 -11 60 -25z
m712 -30 c40 -21 38 -27 -7 -23 -26 3 -39 9 -41 21 -4 21 10 22 48 2z m-610
-38 c0 -18 -2 -19 -10 -7 -13 20 -13 43 0 35 6 -3 10 -16 10 -28z m459 -3 c38
-19 33 -32 -9 -26 -21 3 -30 10 -30 23 0 23 -1 23 39 3z m-4654 -26 c-9 -41
-14 -46 -24 -29 -6 9 -18 12 -37 7 l-29 -6 35 30 c46 40 64 40 55 -2z m-355 5
c0 -30 -13 -38 -63 -39 l-47 0 42 27 c51 33 68 35 68 12z m4879 -35 c-36 -7
-49 2 -49 35 0 17 3 16 41 -5 l41 -23 -33 -7z m-134 -2 c29 -18 36 -26 25 -31
-36 -13 -80 6 -80 36 0 25 7 24 55 -5z m-144 -28 c27 -13 49 -26 49 -30 0 -10
-100 -10 -100 0 0 4 -3 17 -6 30 -8 27 -4 27 57 0z m-4823 -20 c-2 -6 -10 -14
-16 -16 -7 -2 -10 2 -6 12 7 18 28 22 22 4z m712 -26 c0 -25 -4 -29 -30 -30
-17 0 -40 -4 -53 -8 -14 -4 -6 6 23 29 25 20 48 36 53 36 4 1 7 -12 7 -27z
m-360 -7 c0 -21 -5 -25 -27 -25 -16 0 -38 -3 -50 -6 -38 -10 -26 10 20 32 55
28 57 28 57 -1z m4368 -13 c62 -22 72 -28 72 -49 0 -28 -16 -31 -23 -3 -4 16
-15 19 -78 22 l-74 3 -3 34 c-3 29 -1 33 15 26 10 -5 51 -20 91 -33z m209 -14
c-3 -7 -5 -2 -5 12 0 14 2 19 5 13 2 -7 2 -19 0 -25z m458 10 c31 -14 32 -28
2 -28 -23 0 -47 17 -47 32 0 11 15 10 45 -4z m-137 -34 c47 -23 48 -34 3 -34
-37 0 -41 2 -41 25 0 30 -1 29 38 9z m-93 -54 c5 -8 -7 -10 -37 -8 -39 3 -43
6 -46 31 l-3 28 40 -20 c22 -12 43 -26 46 -31z m-5027 23 c-2 -14 -14 -18 -53
-20 l-50 -2 40 19 c50 24 67 25 63 3z m353 -16 c-1 -4 -1 -13 -1 -21 0 -15
-68 -28 -76 -15 -2 4 11 16 28 27 33 20 50 23 49 9z m4544 -41 c19 -15 16 -15
-35 -12 -54 4 -75 21 -63 53 5 13 57 -9 98 -41z m-220 -5 c6 -10 109 -47 111
-40 0 2 8 -2 17 -10 10 -7 17 -25 17 -40 l-1 -26 -15 28 c-15 28 -39 34 -121
29 -27 -1 -34 3 -39 23 -9 35 14 62 31 36z m282 -33 c-3 -8 -6 -5 -6 6 -1 11
2 17 5 13 3 -3 4 -12 1 -19z m-4827 -13 c0 -18 -9 -21 -67 -28 -24 -3 -43 -1
-43 3 0 8 73 38 98 39 6 1 12 -6 12 -14z m360 -17 c0 -7 -4 -18 -8 -24 -8 -12
-102 -26 -102 -15 0 7 85 48 103 50 4 1 7 -5 7 -11z m4780 -8 l25 -19 -25 -9
c-25 -10 -37 1 -39 36 -1 17 10 15 39 -8z m-2300 -38 c0 -49 -6 -55 -39 -37
-18 9 -32 10 -42 4 -18 -11 -39 -12 -39 0 0 11 89 69 108 70 7 1 12 -13 12
-37z m1565 23 c22 -8 56 -14 76 -15 46 0 61 -18 57 -67 l-4 -38 -13 30 c-7 16
-16 32 -21 35 -5 3 -39 3 -75 0 -36 -3 -68 -4 -71 -1 -10 11 -2 73 10 71 1 0
19 -7 41 -15z m-4639 -6 c3 -6 2 -15 -2 -19 -12 -12 -38 5 -30 19 9 14 23 14
32 0z m5257 -14 c49 -25 47 -37 -5 -33 -39 3 -43 6 -46 32 -2 15 0 26 5 24 4
-2 25 -12 46 -23z m-139 -31 c48 -27 62 -51 24 -40 -13 3 -35 6 -50 6 -24 0
-28 4 -28 30 0 17 2 30 4 30 2 0 24 -12 50 -26z m-4754 -20 c0 -8 -10 -14 -24
-14 -13 0 -38 -3 -55 -6 -48 -10 -36 9 17 26 51 17 62 16 62 -6z m1648 -35
c-2 -17 -11 -21 -53 -24 l-49 -3 49 43 c52 45 62 42 53 -16z m-1288 12 c0 -16
-9 -21 -45 -27 -61 -9 -65 -1 -13 24 54 26 58 26 58 3z m4265 -7 c31 -15 52
-30 48 -34 -4 -3 -34 -4 -65 -2 -56 4 -58 5 -58 33 0 36 5 36 75 3z m-1755
-35 c0 -27 -4 -39 -14 -39 -8 0 -17 4 -20 9 -3 4 -24 6 -46 4 -22 -2 -40 0
-40 4 0 11 103 71 113 66 4 -2 7 -22 7 -44z m-3106 7 c-3 -7 -27 -10 -64 -8
-63 4 -84 21 -27 23 17 1 43 4 57 8 26 8 41 -3 34 -23z m4954 -32 l2 -29 -14
25 c-19 31 -20 43 -3 38 6 -3 13 -18 15 -34z m-245 -6 c23 -5 49 -9 57 -10 28
-2 40 -20 39 -62 l-1 -41 -12 35 -13 35 -74 1 c-68 2 -74 3 -77 24 -2 12 -1
28 2 37 5 12 9 13 21 3 9 -7 34 -17 58 -22z m-4343 -8 c0 -18 -7 -20 -57 -20
-65 0 -65 2 -3 23 58 21 60 21 60 -3z m1670 -7 c0 -38 -12 -54 -30 -43 -8 5
-22 4 -33 -2 -36 -19 -32 4 8 38 49 41 55 42 55 7z m3224 -6 c6 -9 7 -19 3
-23 -9 -9 -37 15 -37 33 0 18 20 12 34 -10z m-4533 -19 c-6 -16 -18 -21 -56
-25 -56 -5 -56 -4 4 31 50 27 64 26 52 -6z m2539 -21 c0 -35 -12 -45 -55 -42
-22 2 -45 -1 -52 -7 -7 -5 -14 -5 -17 1 -7 10 4 18 74 58 40 23 50 21 50 -10z
m1887 7 c44 -26 50 -49 9 -38 -12 3 -31 6 -42 8 -12 2 -20 12 -22 29 -4 33 0
33 55 1z m-5027 1 c0 -12 -13 -15 -60 -15 -69 0 -82 17 -17 23 23 2 50 4 60 5
9 1 17 -5 17 -13z m-240 -21 c0 -18 -14 -18 -29 0 -9 11 -9 15 1 19 17 6 28
-1 28 -19z m1738 -25 c-3 -29 -6 -31 -45 -33 -24 -1 -43 0 -43 3 0 10 65 60
78 61 9 0 12 -10 10 -31z m3387 4 c30 -15 55 -30 55 -34 0 -4 -26 -6 -57 -4
-56 3 -58 4 -61 34 -2 17 -1 31 2 31 3 0 30 -12 61 -27z m-4515 -17 c0 -14
-42 -26 -92 -26 -17 0 -27 4 -23 10 3 6 16 10 28 10 12 1 33 7 47 14 27 15 40
12 40 -8z m1685 14 c4 -6 4 -23 0 -38 -5 -26 -9 -28 -57 -29 l-52 0 34 28 c19
15 40 32 45 38 13 13 22 13 30 1z m-947 -37 c-2 -15 -10 -27 -19 -29 -9 -1
-31 -5 -48 -9 -17 -4 -31 -4 -31 -1 0 7 83 65 93 66 5 0 7 -12 5 -27z m-368 5
c0 -25 -16 -35 -65 -42 -56 -7 -52 5 12 35 47 21 53 22 53 7z m2907 -20 c-3
-7 -5 -2 -5 12 0 14 2 19 5 13 2 -7 2 -19 0 -25z m-3520 -11 c-5 -16 -117 -17
-117 -1 0 9 18 14 53 16 59 3 70 1 64 -15z m3176 -20 c-7 -40 -9 -42 -26 -29
-7 6 -34 9 -60 7 -26 -2 -47 -2 -47 0 0 8 125 63 132 59 4 -3 5 -19 1 -37z
m521 25 c-1 -6 -2 -33 -3 -59 -2 -38 -4 -43 -10 -23 -7 24 -11 25 -86 26 -52
1 -80 5 -79 13 2 27 5 30 17 25 7 -2 40 4 72 15 66 21 91 22 89 3z m919 -2
c31 -11 65 -20 76 -20 24 0 32 -21 21 -57 -7 -22 -8 -24 -9 -7 -1 34 -21 42
-93 39 -64 -2 -66 -1 -71 24 -9 47 -3 49 76 21z m247 -2 c0 -19 -2 -20 -10 -8
-13 19 -13 30 0 30 6 0 10 -10 10 -22z m-5152 2 c23 0 42 -4 42 -10 0 -6 -28
-10 -65 -10 -53 0 -65 3 -65 16 0 12 6 15 23 10 12 -3 41 -6 65 -6z m1800 -42
c-3 -29 -5 -31 -40 -31 -21 1 -41 2 -45 2 -9 1 69 60 80 61 5 0 7 -14 5 -32z
m-1140 -15 c-2 -14 -16 -19 -56 -23 -29 -3 -55 -4 -58 -1 -4 5 81 37 104 40 8
0 12 -7 10 -16z m2311 -28 c-3 -47 -12 -56 -28 -28 -8 15 -12 16 -34 4 -49
-26 -49 -4 -1 31 27 20 53 37 57 37 4 1 7 -19 6 -44z m2331 24 c0 -11 -4 -17
-10 -14 -5 3 -10 13 -10 21 0 8 5 14 10 14 6 0 10 -9 10 -21z m-3890 -11 c0
-24 -15 -35 -55 -42 l-40 -6 35 30 c36 31 60 39 60 18z m-380 -17 c0 -16 -9
-21 -45 -27 -61 -9 -65 -1 -13 24 54 26 58 26 58 3z m-610 -17 c0 -11 -15 -14
-65 -14 -36 0 -65 4 -65 8 0 9 109 30 123 24 4 -2 7 -10 7 -18z m4778 1 c82
-42 83 -45 17 -43 -61 3 -73 11 -74 51 -1 22 1 22 57 -8z m-5077 5 c38 0 49
-3 49 -16 0 -12 -6 -15 -22 -10 -13 3 -42 6 -65 6 -33 0 -43 4 -43 16 0 11 5
14 16 10 9 -3 38 -6 65 -6z m3508 -41 c-2 -35 -5 -46 -11 -35 -7 12 -24 16
-65 16 -41 0 -54 3 -46 11 11 11 102 57 116 58 4 1 7 -22 6 -50z m526 -17 c1
-29 -3 -52 -7 -52 -4 0 -8 6 -8 14 0 19 -15 23 -97 21 -71 -1 -73 0 -73 23 0
19 4 22 20 17 19 -6 38 -2 115 23 45 15 50 10 50 -46z m-2213 42 c3 -3 3 -17
-1 -32 -6 -22 -13 -26 -52 -28 l-44 -2 40 34 c41 35 48 38 57 28z m1186 -60
c-3 -36 -3 -36 -55 -38 -29 -2 -53 0 -53 3 0 7 91 69 103 70 5 1 7 -15 5 -35z
m1896 29 c4 -4 37 -17 74 -29 62 -20 67 -24 70 -53 2 -17 -1 -31 -7 -31 -6 0
-11 9 -11 19 0 28 -10 32 -90 34 l-70 1 0 33 c0 32 16 44 34 26z m-4234 -22
c0 -16 -9 -18 -61 -19 -68 -1 -69 7 -6 25 60 16 67 15 67 -6z m-822 -9 c17 -2
32 -8 32 -12 0 -7 -45 -7 -92 -1 -5 1 -8 8 -8 17 0 12 5 14 18 9 9 -5 32 -10
50 -13z m1576 -9 c-9 -39 -15 -46 -27 -34 -5 5 -24 7 -41 4 -35 -7 -34 -3 14
31 48 33 62 33 54 -1z m-374 -7 c0 -22 -23 -32 -60 -26 l-35 6 40 21 c41 22
55 21 55 -1z m-873 -23 c3 -8 -15 -11 -62 -8 -67 3 -81 7 -72 22 8 12 130 0
134 -14z m253 12 c0 -12 -14 -15 -65 -15 -78 0 -87 17 -12 23 28 2 58 4 65 5
6 1 12 -5 12 -13z m3249 -22 c-1 -39 -14 -70 -23 -55 -4 7 -33 12 -69 12 -69
1 -67 5 28 47 64 28 65 28 64 -4z m-1721 -15 c-3 -29 -6 -32 -35 -31 -18 1
-36 2 -40 2 -10 2 58 61 70 61 4 0 7 -14 5 -32z m2162 -4 c40 9 77 13 81 10 5
-3 9 -37 9 -76 l0 -71 63 7 c34 3 71 7 82 9 18 2 20 -5 23 -70 3 -80 7 -84 77
-71 22 4 52 7 68 8 27 0 27 0 27 -69 0 -54 4 -70 16 -75 23 -9 74 -7 112 3 42
12 51 -5 42 -79 -6 -51 -14 -53 -22 -5 -2 12 -12 20 -23 21 -11 1 -48 2 -82 3
l-62 1 1 60 c0 33 -1 63 -4 66 -3 2 -41 6 -84 7 l-79 2 -1 40 c-1 62 -12 96
-32 94 -9 -1 -45 -1 -79 0 l-63 1 1 54 c1 29 -2 59 -5 65 -4 6 -39 11 -85 11
-43 0 -80 2 -83 5 -2 3 -2 19 0 37 4 28 6 29 17 14 12 -15 18 -16 85 -2z
m-950 -31 l0 -38 -60 0 c-32 -1 -57 1 -55 4 12 11 101 70 108 70 4 1 7 -16 7
-36z m-2370 7 c0 -11 -6 -21 -12 -22 -38 -4 -98 -4 -98 1 0 5 77 35 103 40 4
0 7 -8 7 -19z m-820 -20 c0 -10 -69 -10 -75 0 -12 20 5 27 40 16 19 -6 35 -13
35 -16z m1580 1 c0 -27 -2 -28 -42 -28 l-41 0 34 28 c43 36 49 36 49 0z m-382
-13 c-3 -20 -9 -23 -58 -25 l-55 -2 50 24 c63 30 67 30 63 3z m-912 -8 c19 0
34 -5 34 -10 0 -17 -122 -8 -128 9 -4 11 3 13 28 8 18 -4 48 -7 66 -7z m284
-5 c0 -13 -120 -19 -120 -6 0 5 17 12 38 14 55 6 83 3 82 -8z m1556 -32 c-6
-26 -10 -28 -52 -28 l-45 0 43 37 c46 39 64 37 54 -9z m3026 1 c46 -23 36 -30
-36 -26 -49 3 -57 7 -62 27 -9 37 3 48 34 31 15 -7 44 -22 64 -32z m-1282 1
c0 -40 -10 -57 -26 -44 -10 8 -36 10 -80 5 -86 -9 -82 7 10 39 37 13 71 26 73
29 11 10 23 -5 23 -29z m-4005 3 c6 -6 -1 -7 -20 -4 -16 2 -36 5 -42 5 -7 1
-13 5 -13 11 0 11 60 2 75 -12z m3485 -43 c0 -35 -8 -43 -26 -25 -5 5 -24 6
-49 0 -22 -5 -40 -8 -42 -7 -9 10 77 64 105 66 7 1 12 -12 12 -34z m-3220 -2
l35 -10 -44 -4 c-45 -5 -79 10 -67 29 4 8 13 8 24 3 9 -5 33 -13 52 -18z m824
18 c12 -18 -24 -32 -76 -29 l-53 3 50 16 c60 20 72 22 79 10z m762 -48 c-4
-11 -10 -12 -19 -5 -7 5 -21 6 -32 1 -52 -21 -47 3 8 35 41 25 42 25 45 5 2
-11 1 -27 -2 -36z m-386 12 c0 -22 -4 -25 -34 -25 -19 0 -42 -3 -52 -7 -31
-12 -5 16 34 37 48 25 52 25 52 -5z m-922 -5 c32 0 42 -4 42 -16 0 -11 -5 -14
-16 -10 -9 3 -38 6 -65 6 -38 0 -49 3 -49 16 0 12 6 15 23 10 12 -3 41 -6 65
-6z m297 -10 c0 -9 -18 -13 -59 -13 -77 -1 -89 20 -14 26 67 4 73 3 73 -13z
m-764 -24 c-24 -10 -48 5 -37 23 5 7 15 7 32 -1 26 -12 26 -12 5 -22z m2927
-23 c-1 -45 -2 -46 -19 -25 -16 21 -19 21 -53 7 -20 -9 -36 -11 -36 -6 0 12
93 79 103 74 4 -2 6 -25 5 -50z m1172 4 l0 -33 -90 -2 c-76 -1 -90 1 -90 14 0
10 6 14 14 11 7 -3 42 5 77 18 85 32 89 31 89 -8z m-521 -9 c0 -13 -4 -32 -8
-42 -7 -18 -8 -18 -14 -3 -4 12 -14 16 -29 12 -77 -17 -83 -17 -72 -6 15 16
96 60 112 61 6 0 12 -10 11 -22z m-2434 2 c13 -21 -16 -37 -70 -39 -66 -2 -73
14 -10 23 24 4 47 11 50 17 8 12 22 12 30 -1z m775 -15 c0 -25 -5 -28 -72 -38
-16 -2 -28 -3 -28 -1 0 5 84 63 93 64 4 0 7 -11 7 -25z m-2037 8 c-7 -2 -19
-2 -25 0 -7 3 -2 5 12 5 14 0 19 -2 13 -5z m444 -19 c-11 -7 -66 -11 -76 -4
-27 16 -2 28 38 17 22 -6 39 -12 38 -13z m1197 -22 c-11 -16 -69 -26 -88 -15
-5 3 11 16 35 27 47 23 71 18 53 -12z m-1371 -22 c9 0 18 -4 21 -9 5 -8 -73
-3 -83 5 -2 2 -1 11 3 20 6 15 8 16 24 0 10 -9 26 -16 35 -16z m491 9 c15 -13
6 -15 -66 -11 -50 3 -68 7 -68 18 0 11 13 12 63 8 34 -4 66 -10 71 -15z m256
6 c0 -12 -14 -15 -65 -15 -70 0 -89 16 -27 23 81 8 92 7 92 -8z m2180 -31 c0
-40 -2 -44 -15 -30 -11 10 -26 13 -53 9 -24 -4 -34 -2 -27 4 10 11 88 63 92
63 2 0 3 -21 3 -46z m-3102 -10 c41 -20 40 -24 -3 -24 -28 0 -35 4 -35 20 0
24 -1 24 38 4z m3762 -17 l0 -33 -66 -1 c-74 -1 -73 6 2 42 64 31 64 30 64 -8z
m530 -41 c0 -50 4 -76 12 -78 13 -5 49 3 115 23 18 6 38 7 43 4 6 -4 9 -35 8
-73 l-3 -67 45 1 c25 0 63 2 85 5 40 4 40 4 40 -31 0 -26 -4 -34 -15 -31 -8 2
-50 3 -92 3 -50 1 -78 5 -79 12 0 6 -1 34 -2 61 l-2 50 -40 1 c-22 1 -60 2
-85 3 l-46 1 1 58 0 57 -82 3 c-83 3 -83 3 -83 30 0 20 3 23 9 13 10 -15 17
-14 121 19 49 16 50 14 50 -64z m880 64 c0 -5 -7 -10 -15 -10 -8 0 -15 5 -15
10 0 6 7 10 15 10 8 0 15 -4 15 -10z m-3090 -17 c0 -31 -13 -40 -65 -47 -55
-8 -54 -4 10 38 47 31 55 32 55 9z m-780 -13 c0 -18 -7 -20 -67 -20 -75 0 -77
5 -7 24 69 19 74 19 74 -4z m-825 -11 c14 -6 5 -8 -29 -6 -31 1 -51 7 -54 16
-3 10 3 11 29 6 19 -4 43 -11 54 -16z m1205 -13 c0 -21 -5 -24 -34 -24 -19 0
-43 -3 -55 -7 -37 -12 -22 11 22 32 56 27 67 27 67 -1z m-934 -8 c33 -1 44 -5
44 -17 0 -13 -11 -15 -65 -13 -57 3 -65 6 -65 24 0 15 5 18 21 13 11 -4 40 -7
65 -7z m300 -17 c-4 -6 -34 -11 -67 -11 -45 0 -59 3 -59 15 0 10 15 15 58 17
60 3 79 -3 68 -21z m2212 -3 c-3 -31 -4 -31 -57 -34 -60 -3 -58 6 9 44 48 28
52 27 48 -10z m-2962 -3 l29 -15 -37 0 c-27 0 -38 4 -38 15 0 19 10 19 46 0z
m3630 -72 c-4 -10 -13 -12 -28 -7 -13 4 -40 6 -60 6 -21 -1 -38 1 -38 4 0 3
28 18 63 34 l62 28 3 -25 c2 -13 1 -31 -2 -40z m-3786 37 l35 -20 -40 2 c-29
2 -41 8 -43 21 -4 22 4 21 48 -3z m2080 1 c0 -39 -10 -51 -37 -40 -16 6 -31 5
-45 -2 -42 -23 -28 1 18 30 58 36 64 37 64 12z m-790 -11 c0 -11 -6 -20 -14
-20 -7 0 -34 -3 -60 -6 -31 -5 -46 -3 -46 5 0 6 8 11 18 12 9 0 33 6 52 13 48
19 50 19 50 -4z m-840 -16 l35 -12 -47 -1 c-46 -1 -65 9 -53 29 4 6 12 7 18 3
7 -5 28 -13 47 -19z m1230 4 c0 -26 -16 -34 -65 -36 l-50 -1 45 23 c52 28 70
31 70 14z m1600 -38 c0 -30 -14 -48 -25 -31 -3 6 -11 8 -18 6 -7 -2 -27 -6
-46 -9 -34 -6 -34 -6 -16 14 10 11 23 20 29 20 6 0 22 9 36 19 30 24 40 19 40
-19z m-2502 5 c6 -3 12 -9 12 -14 0 -6 -27 -9 -67 -8 -51 3 -69 7 -71 19 -2
12 7 14 55 11 32 -3 64 -6 71 -8z m260 -2 c-2 -13 -15 -16 -62 -17 -78 -1 -90
21 -14 27 29 2 59 4 66 5 8 1 12 -5 10 -15z m-738 -29 c0 -2 -13 -4 -30 -4
-23 0 -30 5 -30 19 0 18 2 19 30 5 17 -9 30 -17 30 -20z m3660 -28 l0 -34 -77
-4 c-80 -5 -103 2 -103 30 0 13 3 12 14 -3 13 -18 16 -18 82 13 38 17 72 31
77 31 4 1 7 -14 7 -33z m-3834 -14 c-31 -4 -52 10 -42 27 5 7 17 5 39 -6 l32
-18 -29 -3z m1298 20 c11 -18 -12 -30 -59 -32 -73 -3 -75 -1 -20 19 59 22 72
24 79 13z m1381 -28 c-5 -45 -10 -50 -29 -35 -9 8 -28 10 -53 6 l-38 -7 50 35
c65 47 76 47 70 1z m-989 15 c12 -20 -21 -41 -62 -37 l-39 3 40 22 c47 26 52
27 61 12z m-1251 -14 l30 -13 -42 -1 c-32 -1 -43 3 -43 14 0 18 16 18 55 0z
m2875 -17 l0 -33 -62 -3 c-68 -3 -68 0 0 39 61 35 62 35 62 -3z m-2270 -14 c0
-11 -15 -14 -65 -14 -37 0 -65 4 -65 10 0 6 19 10 43 10 23 0 49 4 57 9 17 12
30 5 30 -15z m-262 1 c6 -3 12 -9 12 -14 0 -18 -134 -6 -138 11 -2 12 8 14 55
11 32 -3 64 -6 71 -8z m-493 -19 c42 -18 45 -26 8 -22 -16 2 -34 4 -40 5 -7 0
-13 8 -13 16 0 18 2 19 45 1z m1951 -8 c-3 -13 -6 -29 -6 -37 0 -10 -3 -11
-14 -2 -7 6 -27 8 -45 5 -41 -9 -39 0 7 30 48 32 66 33 58 4z m594 -31 c0 -36
-14 -51 -30 -32 -8 9 -17 12 -24 7 -6 -5 -24 -12 -41 -16 -30 -7 -30 -7 -10
13 26 25 88 60 98 54 4 -2 7 -14 7 -26z m1170 -18 c0 -30 -3 -38 -12 -32 -7 4
-46 8 -87 8 -60 0 -75 3 -76 16 -2 11 4 15 19 12 11 -2 48 7 81 20 33 13 63
22 68 20 4 -2 7 -22 7 -44z m-2572 20 c-3 -18 -12 -21 -67 -24 -73 -5 -73 0 1
26 68 23 70 23 66 -2z m-1298 -4 c16 -9 19 -14 9 -15 -8 0 -24 7 -35 15 -24
18 -7 19 26 0z m1690 -10 c0 -23 -4 -25 -47 -25 -49 0 -50 9 -1 35 36 20 48
17 48 -10z m1656 -7 c-3 -13 -6 -27 -6 -33 0 -5 -25 -11 -55 -12 -30 -1 -55 2
-55 7 0 11 88 59 109 60 9 0 11 -7 7 -22z m-2881 -9 c14 -6 5 -8 -29 -6 -31 1
-51 7 -54 16 -3 10 3 11 29 6 19 -4 43 -11 54 -16z m578 -13 c9 -22 -2 -26
-65 -26 -72 0 -75 15 -5 28 28 5 55 10 58 11 4 0 9 -5 12 -13z m-253 -22 c0
-19 -113 -20 -129 -1 -16 20 -9 22 63 19 49 -3 66 -7 66 -18z m1460 -6 l0 -33
-54 0 c-30 0 -52 2 -49 5 10 10 88 59 96 59 4 1 7 -14 7 -31z m-1960 -8 l35
-20 -40 2 c-29 2 -41 8 -43 21 -4 22 4 21 48 -3z m2560 -25 c0 -33 -14 -48
-22 -24 -3 8 -14 8 -41 1 -48 -13 -48 1 1 32 51 34 62 33 62 -9z m-1420 -6 c0
-21 -4 -28 -12 -23 -7 4 -35 7 -62 6 -45 -1 -48 0 -26 9 14 6 39 17 55 24 43
19 45 18 45 -16z m400 -2 c0 -20 -6 -22 -52 -24 l-51 -1 44 28 c48 30 59 30
59 -3z m2210 12 c0 -16 -81 -48 -131 -51 -42 -3 -44 -2 -47 27 -3 28 -3 29 11
11 15 -21 16 -21 127 14 35 12 40 11 40 -1z m-530 -32 l0 -32 -47 3 c-79 5
-80 8 -23 34 30 15 58 27 63 27 4 1 7 -14 7 -32z m-2922 -4 c48 -8 39 -25 -10
-19 -24 2 -46 5 -50 5 -5 1 -8 8 -8 17 0 11 5 14 18 9 9 -4 32 -9 50 -12z
m1807 -48 c1 -47 -9 -60 -18 -24 -6 21 -20 22 -92 2 -16 -4 -17 -3 -8 7 16 17
107 69 112 64 3 -3 5 -25 6 -49z m-1219 34 c10 -17 -12 -26 -72 -28 -61 -2
-73 15 -16 24 20 4 44 8 52 10 8 1 18 3 22 4 4 0 10 -4 14 -10z m-516 -9 c0
-5 -7 -7 -15 -4 -8 4 -15 8 -15 10 0 2 7 4 15 4 8 0 15 -4 15 -10z m260 -14
c0 -8 -20 -11 -65 -10 -66 1 -81 6 -72 21 8 13 137 3 137 -11z m2089 -3 c-1
-30 -15 -58 -23 -45 -4 6 -23 9 -49 6 -46 -6 -44 2 13 34 44 26 60 27 59 5z
m-2584 -18 l40 -14 -42 -1 c-40 0 -60 10 -46 24 3 3 7 6 7 6 1 0 19 -7 41 -15z
m1141 -20 c-3 -10 -12 -15 -20 -12 -7 3 -31 2 -52 -3 -63 -14 -62 2 2 25 61
22 82 19 70 -10z m402 8 c-3 -25 -7 -27 -55 -30 -29 -2 -53 -1 -53 1 0 6 91
55 103 56 5 0 7 -12 5 -27z m1712 -27 c0 -36 -13 -55 -25 -36 -4 7 -23 8 -50
5 -57 -9 -68 10 -18 30 21 8 45 19 53 24 29 19 40 12 40 -23z m-1140 -27 c0
-29 -3 -38 -12 -33 -7 4 -29 7 -50 5 -21 -1 -38 1 -38 4 0 4 90 64 98 65 1 0
2 -18 2 -41z m-1800 6 l55 -13 -72 -1 c-68 -1 -73 0 -73 20 0 16 4 19 18 14 9
-4 42 -13 72 -20z m568 -17 c-7 -18 -119 -18 -125 0 -3 8 8 12 34 13 21 0 47
4 58 9 23 9 40 -2 33 -22z m1858 0 c-3 -13 -6 -30 -6 -38 0 -12 -2 -12 -9 -2
-6 11 -17 11 -51 2 -36 -10 -62 -8 -49 4 9 8 104 55 113 56 4 0 6 -10 2 -22z
m-2116 -13 c0 -12 -14 -15 -65 -15 -51 0 -65 3 -65 15 0 12 14 15 65 15 51 0
65 -3 65 -15z m1060 -23 c0 -26 -2 -27 -59 -27 l-60 -1 27 18 c15 10 32 18 38
18 6 0 17 7 24 15 17 20 30 10 30 -23z m-1534 -20 c-26 -3 -66 13 -66 27 0 5
21 1 46 -8 39 -14 42 -16 20 -19z m1124 18 c0 -17 -7 -20 -39 -20 -22 0 -46
-3 -55 -6 -9 -3 -16 -2 -16 3 0 9 74 41 98 42 6 1 12 -8 12 -19z m990 -45 c0
-19 -4 -35 -10 -35 -5 0 -10 5 -10 11 0 8 -16 10 -47 6 l-46 -5 44 28 c59 38
69 37 69 -5z m640 -7 c0 -13 -4 -27 -8 -33 -7 -10 -112 -15 -112 -5 0 6 99 58
113 59 4 1 7 -9 7 -21z m-2457 -5 c26 -3 47 -10 47 -16 0 -9 -115 -1 -132 9
-15 9 4 26 21 19 9 -4 37 -9 64 -12z m567 -1 c0 -15 -10 -18 -65 -20 -78 -3
-85 10 -12 25 76 15 77 15 77 -5z m810 -38 c0 -30 -2 -34 -14 -25 -8 7 -30 9
-57 6 l-44 -7 45 31 c60 40 70 39 70 -5z m-1062 8 c3 -10 -12 -12 -64 -10 -44
2 -69 7 -72 16 -3 10 12 12 64 10 44 -2 69 -7 72 -16z m649 -16 c-4 -9 -17
-16 -29 -16 -13 0 -33 -3 -45 -6 -27 -7 -32 14 -5 22 9 3 28 12 42 19 28 15
46 5 37 -19z m1003 -33 c0 -26 -3 -34 -11 -26 -6 6 -31 8 -57 6 -44 -5 -46 -4
-27 11 11 8 25 16 31 16 6 0 17 7 24 15 23 27 40 18 40 -22z m-1260 -31 c0
-14 -11 -17 -65 -18 -73 -2 -87 11 -22 21 23 4 49 11 57 15 19 11 30 4 30 -18z
m1890 24 c0 -2 -7 -7 -16 -10 -8 -3 -12 -2 -9 4 6 10 25 14 25 6z m-2459 -30
c22 -2 39 -6 39 -10 0 -3 -2 -6 -5 -6 -3 0 -32 0 -65 0 -53 0 -60 2 -60 20 0
17 3 18 26 10 14 -6 43 -12 65 -14z m1379 -5 c0 -27 -2 -28 -52 -30 -56 -1
-56 2 0 35 49 29 52 29 52 -5z m1030 9 c-20 -13 -33 -13 -25 0 3 6 14 10 23
10 15 0 15 -2 2 -10z m-1445 -10 c3 -6 4 -18 1 -28 -5 -14 -18 -17 -66 -17
l-61 0 53 26 c62 31 65 32 73 19z m-655 -15 c0 -13 -12 -15 -67 -13 -42 2 -68
8 -71 16 -3 9 15 12 67 12 57 0 71 -3 71 -15z m1676 -11 c-3 -9 -6 -22 -6 -29
0 -9 -17 -13 -55 -14 -30 0 -55 2 -55 4 0 7 94 54 109 55 8 0 11 -6 7 -16z
m-456 -63 c0 -33 -10 -44 -29 -32 -7 5 -29 5 -48 0 -31 -7 -34 -6 -21 7 15 15
78 52 91 53 4 1 7 -12 7 -28z m-830 -1 c0 -18 -7 -20 -60 -20 -72 0 -78 13
-12 27 69 15 72 15 72 -7z m-567 -17 c31 -4 47 -10 47 -20 0 -8 -4 -12 -8 -9
-5 3 -32 7 -61 10 -56 6 -71 11 -71 28 0 6 9 8 23 3 12 -3 43 -9 70 -12z m967
-6 c0 -22 -5 -24 -50 -26 -27 -1 -50 1 -50 4 0 6 78 43 93 44 4 1 7 -10 7 -22z
m1040 -7 c0 -13 -9 -22 -27 -26 -16 -3 -41 -10 -56 -15 -43 -13 -29 9 23 37
54 29 60 29 60 4z m-1700 -5 c0 -12 -14 -15 -65 -15 -51 0 -65 3 -65 15 0 12
14 15 65 15 51 0 65 -3 65 -15z m1226 -92 c-3 -3 -12 -1 -19 5 -9 8 -24 9 -45
2 -46 -13 -39 1 16 32 l47 27 3 -31 c2 -16 1 -32 -2 -35z m-830 36 c3 -6 2
-14 -2 -19 -13 -11 -134 -23 -134 -13 0 5 26 16 58 25 74 20 70 20 78 7z m408
-34 c-4 -17 -15 -20 -67 -22 l-62 -3 60 29 c63 30 78 29 69 -4z m-934 -15 c0
-5 -11 -10 -25 -10 -14 0 -25 5 -25 10 0 6 11 10 25 10 14 0 25 -4 25 -10z
m260 -4 c0 -19 -121 -17 -127 2 -4 9 13 12 61 12 50 0 66 -3 66 -14z m1250
-37 c0 -29 -2 -30 -34 -28 -19 2 -38 0 -42 -4 -10 -10 -24 -9 -24 3 0 5 16 17
35 26 20 9 38 20 41 25 11 19 24 8 24 -22z m-850 -37 c0 -19 -3 -23 -11 -15
-7 7 -32 9 -65 6 -37 -4 -54 -2 -54 6 0 6 10 11 23 12 12 0 38 6 57 13 42 16
50 13 50 -22z m410 1 c0 -27 -2 -28 -50 -28 -27 0 -50 2 -50 6 0 5 79 47 93
48 4 1 7 -11 7 -26z m-672 -34 c2 -12 -10 -15 -60 -14 -80 0 -92 18 -18 26 68
7 74 6 78 -12z m397 -53 c0 -14 -12 -18 -70 -21 l-70 -3 60 23 c68 25 80 26
80 1z m417 -6 c-1 -13 -3 -24 -5 -25 -1 -1 -24 0 -50 3 l-49 4 44 23 c51 27
64 26 60 -5z m-682 -48 c0 -14 -9 -17 -52 -15 -77 2 -78 2 -78 12 0 9 22 13
108 19 15 1 22 -3 22 -16z m406 -33 c11 -19 -9 -27 -76 -33 -36 -3 -58 -3 -50
0 8 3 29 12 45 19 65 28 72 29 81 14z m-271 -70 c0 -10 -13 -14 -43 -15 -49
-2 -66 13 -25 22 15 3 33 7 38 9 17 6 30 -1 30 -16z m398 -30 c-15 -15 -123
-40 -123 -28 0 5 8 9 19 9 10 0 34 7 52 15 42 18 68 20 52 4z m-263 -74 c0
-17 -4 -18 -39 -8 -23 6 -23 7 -5 14 30 12 44 10 44 -6z"/>
<path d="M2493 4159 c-40 -28 -43 -34 -43 -75 0 -50 6 -52 68 -24 l42 19 0 56
c0 65 -7 67 -67 24z"/>
<path d="M3068 4183 c-7 -15 4 -153 12 -148 16 10 29 -23 32 -85 l3 -65 35 1
c19 0 55 2 80 5 l45 4 3 -72 3 -73 32 0 c18 0 52 5 76 11 55 12 61 5 61 -80
l0 -64 80 6 c91 6 87 9 92 -88 l3 -50 74 3 c87 4 91 1 91 -80 l0 -58 79 0 c90
0 91 -1 91 -86 l0 -54 53 -2 c28 -1 66 -2 82 -2 30 -1 30 -1 33 -67 l3 -67 57
-5 c31 -2 61 -1 66 4 14 12 20 163 8 185 -8 15 -23 18 -83 18 -70 1 -74 2 -77
25 -5 36 9 42 62 26 97 -29 107 -16 52 69 -31 49 -82 96 -103 96 -4 0 -14 12
-21 28 -7 15 -40 47 -73 72 -33 25 -73 57 -88 72 -31 32 -137 98 -157 98 -8 0
-14 4 -14 9 0 12 -129 92 -139 87 -4 -3 -6 -19 -3 -36 2 -17 0 -30 -6 -30 -6
0 -12 10 -14 22 -4 27 -43 39 -109 31 -32 -4 -49 -11 -49 -19 0 -8 -4 -14 -9
-14 -5 0 -7 31 -5 69 5 92 -6 105 -88 97 -64 -6 -81 -12 -73 -27 4 -5 1 -9 -5
-9 -11 0 -11 73 1 109 7 24 -59 61 -108 61 -37 0 -45 -4 -53 -25 -15 -38 -18
-30 -16 36 2 54 -6 83 -16 62z m554 -414 c2 -6 36 -14 76 -17 40 -2 76 -10 80
-16 9 -13 11 -86 2 -86 -3 0 -11 14 -17 31 l-12 32 -81 -7 c-73 -7 -80 -6 -80
11 0 46 22 81 32 52z m174 -148 c5 -5 41 -12 79 -14 l70 -5 6 -41 c3 -23 2
-44 -3 -47 -4 -3 -8 1 -8 8 -1 31 -19 41 -82 44 -34 1 -68 -2 -75 -8 -14 -12
-27 24 -18 52 7 22 16 25 31 11z m170 -141 c6 -6 41 -13 78 -17 40 -3 70 -11
73 -18 2 -7 3 -30 1 -51 l-4 -39 -9 33 -8 33 -79 -3 c-67 -3 -79 -1 -84 15 -6
19 3 57 15 57 4 0 12 -5 17 -10z"/>
<path d="M2370 4076 c-79 -39 -225 -127 -228 -137 -2 -5 -7 -9 -12 -9 -8 0
-241 -135 -280 -163 -14 -9 -65 -44 -115 -76 -49 -32 -121 -89 -160 -126 -38
-37 -79 -73 -91 -81 -27 -18 -99 -123 -90 -131 3 -4 17 4 31 17 l25 23 0 -46
c0 -35 -4 -47 -15 -47 -8 0 -15 4 -15 9 0 19 -36 -1 -48 -27 -39 -81 -22 -210
39 -307 29 -46 30 -47 54 -31 26 17 28 15 25 -21 -2 -35 16 -58 60 -78 34 -15
45 -16 61 -7 25 16 26 15 32 -7 6 -25 68 -38 103 -22 14 6 31 11 39 11 18 0
161 66 195 90 14 10 59 32 100 49 50 22 88 47 115 75 82 86 149 124 129 73
-11 -31 16 -25 117 27 88 45 104 57 104 77 0 13 -5 23 -10 22 -6 -1 -24 -4
-40 -8 l-30 -6 25 21 c14 12 36 31 49 42 23 20 24 22 18 167 -2 80 -8 153 -11
162 -6 13 -14 15 -41 9 -25 -6 -38 -4 -46 6 -9 11 -7 15 7 21 11 3 36 17 57
30 l37 23 -1 103 c0 56 -3 120 -7 142 -7 40 -8 40 -57 43 -27 2 -52 5 -54 8
-3 3 -6 23 -7 45 -1 23 -6 45 -11 49 -4 5 -28 -2 -53 -14z m-72 -155 c2 -19 1
-43 -2 -55 -5 -20 -8 -21 -81 -12 -41 6 -74 14 -73 18 5 15 122 87 138 85 9
-1 16 -15 18 -36z m162 -141 c0 -58 -12 -85 -24 -54 -5 13 -19 15 -71 12 -74
-3 -86 11 -34 40 17 9 47 29 68 43 50 36 61 28 61 -41z m-467 -42 c-3 -29 -6
-54 -7 -55 -1 -1 -21 2 -44 8 -29 6 -49 6 -62 -1 -41 -22 -19 10 38 54 76 59
82 59 75 -6z m157 -117 c0 -47 -12 -72 -24 -52 -4 5 -29 8 -56 7 -28 -2 -50 0
-49 3 1 10 103 90 117 90 8 1 12 -15 12 -48z m-442 -73 l-3 -43 -49 -2 -49 -2
44 45 c24 24 47 44 52 44 4 0 7 -19 5 -42z m602 -49 c0 -36 -4 -49 -14 -49 -8
0 -17 4 -20 9 -3 5 -14 8 -24 6 -60 -12 -83 -14 -80 -6 5 15 122 99 131 94 4
-2 7 -26 7 -54z m-446 -66 c-8 -48 -17 -57 -41 -45 -12 7 -24 7 -37 0 -37 -21
-29 5 14 43 58 50 73 51 64 2z m606 -40 c0 -52 -13 -86 -23 -60 -4 11 -20 13
-69 11 l-63 -4 35 28 c110 87 120 89 120 25z m-450 -55 c0 -59 -9 -68 -64 -68
l-51 1 50 44 c56 51 65 54 65 23z m-420 -97 c0 -45 -10 -64 -26 -50 -10 8 -22
8 -44 1 -16 -6 -30 -9 -30 -6 0 7 84 84 93 84 4 0 7 -13 7 -29z m570 -35 c0
-49 -13 -65 -35 -46 -14 12 -25 11 -70 -5 -11 -4 5 16 35 44 30 28 58 51 63
51 4 0 7 -20 7 -44z m-425 -100 c-7 -35 -18 -45 -30 -26 -4 6 -15 6 -31 0 -41
-16 -40 -12 6 35 49 50 65 47 55 -9z m145 -101 l0 -45 -45 0 c-25 0 -45 3 -45
8 0 6 80 81 88 82 1 0 2 -20 2 -45z"/>
<path d="M3282 4048 c5 -15 48 -24 48 -10 0 10 -23 22 -42 22 -5 0 -8 -6 -6
-12z"/>
<path d="M3450 3932 c0 -29 3 -31 44 -37 68 -11 76 -2 28 29 -67 42 -72 42
-72 8z"/>
<path d="M3077 3913 c-4 -3 -7 -50 -7 -104 0 -86 2 -97 18 -95 14 1 18 -11 22
-76 3 -43 9 -80 12 -84 4 -3 37 3 74 14 37 12 71 19 76 16 4 -3 8 -38 8 -79 0
-41 4 -76 8 -79 5 -3 38 4 73 14 35 11 70 18 77 15 8 -3 12 -29 12 -80 0 -85
-5 -82 89 -60 77 18 82 14 80 -60 -3 -89 -4 -86 44 -79 23 3 57 10 75 16 18 5
36 7 40 3 4 -4 8 -37 9 -73 0 -37 1 -70 2 -74 1 -9 101 2 125 15 29 14 42 -11
40 -77 -1 -31 3 -59 10 -65 6 -5 40 -5 81 0 69 9 76 7 88 -26 5 -13 55 33 73
67 27 52 20 60 -43 56 l-58 -3 3 52 c5 79 -3 87 -84 84 -38 -1 -71 -7 -72 -12
-2 -5 -8 -7 -12 -4 -5 3 -7 31 -4 62 7 89 4 93 -76 93 -38 0 -72 -4 -75 -10
-16 -26 -24 -4 -22 59 1 38 -1 72 -5 76 -4 4 -35 9 -68 10 -51 2 -65 -1 -81
-18 -19 -21 -19 -21 -14 47 7 95 1 103 -83 105 l-69 2 -11 -33 c-10 -28 -11
-22 -7 45 7 108 0 117 -80 117 -64 0 -65 -1 -80 -32 -14 -32 -14 -29 -11 53 3
47 1 90 -2 96 -10 14 -121 16 -138 2 -8 -6 -14 -22 -14 -35 0 -13 -5 -24 -11
-24 -9 0 -10 24 -5 85 6 84 5 91 -7 78z m1036 -928 c-3 -9 -8 -14 -10 -11 -3
3 -2 9 2 15 9 16 15 13 8 -4z"/>
<path d="M3078 3590 c-4 -8 -8 -63 -10 -123 -3 -103 -2 -107 17 -105 18 3 20
-4 23 -77 1 -44 4 -85 7 -92 4 -13 96 18 126 44 26 22 39 -4 39 -79 0 -82 10
-90 79 -64 85 33 81 34 81 -21 0 -84 49 -110 148 -78 19 6 22 4 22 -19 0 -32
16 -66 31 -66 5 0 23 -10 39 -21 21 -16 37 -20 60 -16 26 6 32 3 40 -17 15
-41 99 -58 204 -41 23 4 48 13 56 20 8 7 22 15 30 19 8 3 -20 5 -64 3 l-78 -2
4 40 c3 22 2 53 -1 69 l-6 29 -82 -1 -81 -2 1 53 c2 75 -2 79 -91 76 l-77 -2
3 46 c5 78 -6 88 -96 85 l-77 -3 0 57 c0 31 -4 60 -8 64 -5 5 -38 9 -73 10
-50 2 -67 -1 -71 -13 -11 -27 -21 6 -16 51 8 68 -5 83 -76 85 -33 1 -62 -3
-66 -9 -15 -24 -24 -6 -27 53 -2 34 -6 55 -10 47z"/>
<path d="M3076 3238 c-5 -16 -5 -36 0 -45 7 -16 8 -15 11 5 3 12 3 32 0 45 -3
21 -4 20 -11 -5z"/>
<path d="M3208 3130 c34 -21 52 -25 52 -12 0 17 -25 32 -54 32 l-31 0 33 -20z"/>
<path d="M3065 2609 c-10 -15 3 -25 16 -12 7 7 7 13 1 17 -6 3 -14 1 -17 -5z"/>
<path d="M3950 2280 c-7 -4 -10 -15 -7 -23 5 -13 11 -13 49 0 24 8 47 18 52
23 11 11 -76 11 -94 0z"/>
</g>
</svg>
