<?xml version="1.0" standalone="no"?>
<!DOCTYPE svg PUBLIC "-//W3C//DTD SVG 20010904//EN"
 "http://www.w3.org/TR/2001/REC-SVG-20010904/DTD/svg10.dtd">
<svg version="1.0" xmlns="http://www.w3.org/2000/svg"
 width="290.000000pt" height="317.000000pt" viewBox="0 0 290.000000 317.000000"
 preserveAspectRatio="xMidYMid meet">

<g transform="translate(0.000000,317.000000) scale(0.100000,-0.100000)"
fill="#000000" stroke="none">
<path d="M1385 2733 c-168 -12 -275 -41 -420 -113 -170 -84 -322 -221 -431
-391 l-44 -68 -58 5 c-160 14 -224 24 -239 39 -17 18 -32 16 -46 -7 -17 -27
-1 -48 37 -48 18 0 78 -9 131 -20 53 -11 108 -20 121 -20 48 0 23 -35 -31 -44
-98 -17 -95 -15 -95 -52 0 -57 15 -76 56 -68 38 7 39 6 20 -56 l-13 -45 -93
-3 c-74 -2 -96 -6 -106 -20 -10 -13 -13 -72 -14 -233 0 -268 -5 -257 124 -261
l89 -3 32 -100 c62 -196 163 -356 314 -497 139 -131 290 -211 489 -260 131
-32 341 -30 474 5 391 103 690 408 797 815 l12 42 89 0 c89 0 90 0 105 30 12
23 15 69 15 225 0 156 -3 202 -15 225 -15 30 -16 30 -104 30 l-88 0 -11 39
c-16 52 -17 50 26 40 58 -13 69 -11 82 20 24 60 13 74 -75 96 -133 34 -140 49
-25 58 51 4 104 16 146 33 36 14 72 23 81 20 38 -15 59 45 23 64 -16 8 -24 6
-41 -11 -27 -27 -160 -58 -251 -59 l-66 0 -30 53 c-154 272 -456 483 -752 526
-94 13 -164 18 -215 14z m299 -82 c193 -53 323 -128 462 -266 97 -96 193 -220
180 -233 -4 -3 -21 0 -39 6 -19 7 -42 12 -53 12 -11 0 -24 4 -29 9 -6 5 -48
18 -94 30 -145 36 -267 122 -351 246 -61 90 -98 127 -154 154 -147 72 -341 30
-434 -93 -22 -28 -55 -76 -74 -106 -53 -85 -120 -133 -227 -166 -40 -12 -47
-12 -57 1 -22 29 -58 34 -130 17 -66 -16 -69 -18 -72 -48 -3 -31 -20 -43 -60
-44 -21 0 66 117 153 205 147 149 317 242 535 290 98 22 341 14 444 -14z m-85
-76 c59 -33 107 -84 152 -162 59 -103 203 -195 359 -230 70 -15 81 -21 91 -45
6 -15 9 -38 5 -51 l-6 -24 -87 14 c-143 22 -309 72 -369 110 -19 12 -20 18
-11 64 36 181 -149 367 -325 329 -69 -14 -119 -42 -162 -91 -61 -67 -79 -117
-74 -213 l3 -81 -53 -28 c-29 -16 -94 -37 -145 -48 -101 -20 -126 -15 -149 36
-17 37 -4 52 49 59 59 8 148 48 186 84 16 15 40 50 54 77 60 118 129 185 223
219 72 26 192 17 259 -19z m-24 -53 c229 -126 141 -472 -121 -472 -71 0 -119
17 -169 62 -58 51 -80 101 -80 188 0 110 44 182 140 229 63 31 166 28 230 -7z
m-1005 -426 c0 -2 -16 -6 -35 -8 -19 -2 -35 0 -35 4 0 4 16 8 35 8 19 0 35 -2
35 -4z m1805 -16 c7 -12 -32 -12 -60 0 -16 7 -13 9 17 9 20 1 40 -3 43 -9z
m-1280 -50 c118 -13 183 -37 201 -72 8 -15 14 -31 14 -36 0 -5 -35 -13 -77
-16 -205 -18 -323 -48 -401 -101 -20 -13 -38 -23 -40 -20 -7 6 44 111 77 157
73 105 73 105 226 88z m-285 -62 c-17 -29 -38 -70 -47 -90 l-15 -38 -169 0
c-93 0 -169 4 -169 8 0 5 7 31 15 59 l15 51 138 25 c75 14 157 26 181 26 24 1
47 3 49 6 3 3 11 5 19 5 9 0 4 -17 -17 -52z m1080 36 c62 -6 66 -8 97 -50 41
-54 112 -204 96 -204 -3 0 -21 12 -40 26 -73 56 -228 105 -374 120 -76 7 -83
16 -46 59 42 49 119 63 267 49z m438 -45 c102 -23 102 -23 112 -59 17 -61 18
-60 -83 -60 -52 0 -128 3 -170 6 -73 7 -76 8 -88 38 -7 17 -23 48 -36 68 l-23
38 93 -4 c51 -2 139 -14 195 -27z m-731 -89 c148 -11 301 -47 377 -88 69 -37
165 -135 202 -207 44 -84 62 -170 66 -315 3 -106 1 -125 -12 -125 -12 0 -16
24 -22 130 -10 206 -47 305 -149 407 -72 72 -173 122 -308 151 -133 29 -539
31 -674 4 -156 -32 -268 -101 -338 -210 -70 -108 -94 -195 -105 -379 -4 -83
-9 -108 -20 -108 -17 0 -18 47 -4 191 12 122 31 191 72 273 39 77 136 173 211
209 134 65 401 90 704 67z m118 -70 c233 -44 371 -146 432 -321 20 -60 26
-100 30 -211 l6 -138 -162 0 -161 0 0 -177 0 -176 22 19 c12 10 29 26 38 34 8
8 93 80 188 159 l172 144 -6 99 -6 98 96 0 c72 0 94 -3 91 -12 -52 -170 -85
-243 -163 -363 -61 -95 -209 -238 -316 -304 -460 -286 -1049 -171 -1380 270
-73 96 -186 338 -186 396 0 10 21 13 85 13 l86 0 -6 -102 -7 -103 70 -55 c172
-137 311 -251 317 -260 3 -5 15 -15 26 -20 18 -10 19 -6 19 165 l0 175 -171 0
-171 0 7 123 c9 143 24 208 68 297 78 156 217 239 435 260 113 11 470 5 547
-10z"/>
<path d="M1385 2408 c-110 -86 -11 -259 118 -205 47 20 70 58 70 114 0 40 -4
50 -36 80 -46 41 -108 46 -152 11z m113 -90 c4 -22 -38 -34 -68 -18 -17 9 -19
14 -9 26 17 20 73 14 77 -8z"/>
<path d="M930 1695 c0 -8 7 -15 15 -15 8 0 28 -27 45 -60 21 -41 37 -61 54
-66 50 -12 68 -1 102 61 l33 60 372 5 c285 4 373 8 377 18 3 9 -84 12 -412 12
-363 0 -416 -2 -416 -15 0 -8 7 -15 15 -15 19 0 19 -3 -6 -53 l-22 -42 -21 43
c-19 41 -20 44 -3 53 34 20 15 29 -58 29 -60 0 -75 -3 -75 -15z"/>
<path d="M1215 1661 c-32 -14 -48 -38 -41 -64 11 -46 104 -63 147 -27 l24 19
-22 1 c-12 0 -25 -4 -28 -10 -9 -15 -41 -12 -55 5 -11 13 -5 15 43 15 31 0 59
5 62 10 4 7 11 7 18 2 7 -5 29 -12 49 -16 47 -8 59 -26 19 -26 -16 0 -33 5
-36 10 -11 18 -47 12 -43 -7 3 -15 15 -18 75 -18 79 0 105 13 87 43 -6 9 -29
21 -52 27 -22 5 -44 13 -48 18 -12 12 45 8 66 -5 21 -14 35 -6 27 15 -8 21
-135 17 -151 -5 -11 -15 -14 -16 -28 -2 -18 19 -85 27 -113 15z m73 -28 c2 -8
-6 -13 -22 -13 -17 0 -26 5 -26 16 0 19 41 16 48 -3z"/>
<path d="M1529 1659 c-7 -4 -5 -8 5 -12 22 -9 23 -115 1 -123 -29 -11 -4 -24
45 -23 49 2 64 11 35 23 -8 3 -15 12 -15 21 0 13 7 15 35 9 51 -9 87 16 83 59
-4 43 -45 66 -87 50 -16 -6 -33 -8 -36 -4 -9 8 -53 9 -66 0z m131 -50 c0 -37
-27 -50 -46 -24 -18 24 -17 30 1 49 22 22 45 9 45 -25z"/>
<path d="M1762 1659 c-13 -5 -22 -15 -20 -21 6 -18 54 -17 50 0 -2 9 6 12 20
10 36 -5 24 -22 -24 -34 -32 -8 -44 -16 -46 -31 -4 -27 13 -32 108 -30 72 2
75 3 78 27 2 23 2 24 -12 7 -16 -21 -22 -14 -24 28 -1 17 -10 36 -19 43 -19
14 -77 15 -111 1z m78 -68 c0 -6 -5 -13 -10 -16 -15 -9 -43 3 -35 15 8 13 45
13 45 1z"/>
<path d="M1223 1352 l-202 -117 -1 -240 0 -240 33 -21 c76 -49 367 -214 377
-214 9 0 300 166 393 224 15 10 17 33 17 251 l-1 240 -201 115 c-110 63 -204
116 -207 117 -3 0 -97 -51 -208 -115z m300 11 c134 -75 231 -136 239 -147 4
-6 8 -7 8 -2 0 5 7 3 15 -4 13 -11 13 -15 3 -21 -10 -7 -10 -9 0 -9 9 0 12
-47 12 -202 0 -200 0 -203 -23 -214 -52 -26 -217 -120 -272 -156 -62 -39 -85
-47 -85 -26 0 6 -3 8 -7 5 -3 -4 -20 2 -37 12 -17 10 -58 33 -91 51 -33 18
-97 55 -142 82 l-83 50 0 209 0 209 27 17 c64 42 329 192 341 192 7 1 50 -20
95 -46z"/>
<path d="M1408 1304 c5 -28 -15 -67 -31 -58 -7 4 -9 4 -5 -1 11 -11 -29 -38
-44 -29 -7 4 -8 3 -4 -4 4 -7 -10 -20 -36 -33 -24 -12 -51 -28 -60 -36 -9 -8
-22 -12 -30 -7 -7 4 -10 4 -7 0 4 -4 -12 -25 -35 -47 l-41 -41 0 -80 c0 -79 0
-80 37 -113 50 -46 96 -54 162 -26 28 11 55 21 59 21 4 0 7 -40 7 -90 l0 -90
55 0 55 0 0 90 c0 73 3 90 15 90 8 0 15 -4 15 -8 0 -5 24 -15 54 -22 91 -22
151 12 177 100 13 44 4 123 -16 144 -8 7 -11 17 -7 21 4 5 1 5 -6 1 -7 -4 -15
-1 -18 8 -3 9 -9 16 -14 16 -11 0 -143 88 -150 101 -4 6 -10 10 -14 10 -19 -3
-26 0 -23 11 1 7 -4 12 -11 13 -16 0 -41 42 -42 67 0 12 -7 17 -23 16 -18 -2
-23 -7 -19 -24z m152 -131 c52 -34 105 -69 118 -78 81 -58 82 -201 3 -248 -40
-23 -87 -21 -148 7 -28 13 -54 22 -57 18 -3 -3 -6 -45 -6 -94 l0 -88 -40 0
-40 0 0 94 0 95 -55 -25 c-75 -32 -122 -32 -163 4 -47 40 -61 105 -38 167 17
44 28 53 145 130 96 62 131 90 140 114 l13 31 17 -32 c11 -22 47 -53 111 -95z"/>
<path d="M1311 1082 c-88 -56 -116 -89 -107 -126 4 -15 18 -32 32 -38 22 -10
34 -7 90 20 l64 32 0 80 c0 44 -1 80 -2 79 -2 0 -36 -21 -77 -47z m69 -37 c0
-55 0 -56 -47 -86 -62 -39 -106 -37 -111 4 -2 16 3 35 10 44 14 18 128 93 141
93 4 0 7 -25 7 -55z"/>
<path d="M1470 1045 l0 -74 66 -31 c76 -35 85 -36 107 -12 20 22 22 62 5 84
-17 22 -149 108 -165 108 -9 0 -13 -22 -13 -75z m88 6 c9 -11 11 -12 6 -2 -12
23 55 -28 72 -54 12 -18 13 -28 4 -44 -14 -26 -35 -26 -89 0 -31 15 -41 25
-37 36 5 13 4 14 -9 3 -13 -11 -15 -5 -15 50 l0 62 28 -18 c15 -9 33 -25 40
-33z"/>
<path d="M1596 1017 c3 -10 9 -15 12 -12 3 3 0 11 -7 18 -10 9 -11 8 -5 -6z"/>
</g>
</svg>
