<?xml version="1.0" standalone="no"?>
<!DOCTYPE svg PUBLIC "-//W3C//DTD SVG 20010904//EN"
 "http://www.w3.org/TR/2001/REC-SVG-20010904/DTD/svg10.dtd">
<svg version="1.0" xmlns="http://www.w3.org/2000/svg"
 width="564.000000pt" height="359.000000pt" viewBox="0 0 564.000000 359.000000"
 preserveAspectRatio="xMidYMid meet">

<g transform="translate(0.000000,359.000000) scale(0.100000,-0.100000)"
fill="#000000" stroke="none">
<path d="M2032 3332 c-123 -117 -137 -144 -146 -291 l-6 -103 51 43 c70 58
147 153 176 215 35 76 56 215 35 228 -4 2 -54 -39 -110 -92z"/>
<path d="M3446 3403 c-13 -58 23 -192 68 -258 46 -66 192 -214 201 -203 1 2
-1 49 -5 105 -9 131 -36 190 -118 259 -31 27 -74 66 -96 87 -21 20 -40 37 -41
37 -2 0 -6 -12 -9 -27z"/>
<path d="M2616 3253 c-4 -5 -74 -8 -154 -8 -134 0 -151 -2 -194 -23 -53 -26
-131 -93 -177 -151 l-30 -38 102 4 c214 8 286 28 372 103 52 44 102 106 93
115 -2 3 -8 2 -12 -2z"/>
<path d="M2970 3238 c0 -3 22 -31 49 -61 90 -98 197 -137 372 -137 48 0 99 -4
113 -10 33 -12 33 -6 -1 39 -45 59 -115 121 -168 149 -48 26 -56 27 -207 27
-87 0 -158 -3 -158 -7z"/>
<path d="M1755 3154 c-80 -105 -127 -189 -133 -239 -2 -25 1 -86 9 -135 15
-105 16 -105 95 13 80 119 99 175 99 292 0 142 -8 150 -70 69z"/>
<path d="M3771 3155 c-17 -95 3 -203 56 -300 23 -42 113 -165 122 -165 4 0 8
17 9 38 1 20 7 61 13 90 18 91 -10 177 -90 277 -22 28 -51 67 -63 87 -13 21
-26 38 -29 38 -4 0 -12 -29 -18 -65z"/>
<path d="M2050 2957 c-30 -13 -75 -36 -100 -52 l-45 -29 45 -9 c25 -4 86 -20
135 -35 129 -39 245 -38 334 3 59 27 62 30 40 38 -13 6 -69 32 -124 58 -89 43
-108 49 -165 49 -44 0 -82 -8 -120 -23z"/>
<path d="M3350 2973 c-8 -3 -60 -28 -114 -54 -54 -27 -106 -49 -115 -49 -27
-1 61 -43 119 -57 76 -18 122 -16 215 8 44 11 116 28 160 38 l80 17 -65 37
c-36 20 -85 43 -109 52 -42 15 -140 19 -171 8z"/>
<path d="M1493 2898 c-6 -18 -28 -71 -50 -118 -33 -74 -38 -94 -38 -160 0 -50
6 -85 16 -105 9 -16 20 -40 23 -52 7 -20 4 -23 -23 -23 -25 0 -34 7 -50 39
-23 45 -69 101 -82 101 -5 0 -9 -14 -9 -32 0 -17 -7 -70 -16 -117 -27 -142
-14 -199 71 -313 24 -32 45 -63 48 -70 9 -26 19 3 29 79 14 107 14 107 38 83
11 -11 31 -20 45 -20 14 0 25 -1 25 -3 0 -2 -11 -25 -24 -53 -27 -57 -50 -124
-44 -129 2 -3 20 6 39 19 19 13 72 38 118 56 97 39 185 93 223 138 15 18 35
32 44 32 10 0 27 8 38 18 33 29 248 57 441 57 150 0 163 -2 210 -25 62 -31 66
-54 10 -57 -142 -9 -369 -38 -420 -55 -118 -38 -210 -109 -277 -212 -43 -67
-45 -76 -20 -76 11 0 23 13 31 35 23 65 115 152 205 194 90 43 101 46 271 67
270 33 677 28 950 -12 122 -17 222 -61 296 -131 56 -51 112 -130 103 -144 -3
-5 7 -9 21 -9 l26 0 -23 42 c-13 23 -50 70 -82 105 -105 113 -185 147 -411
174 -88 10 -184 19 -213 19 -44 0 -53 3 -50 16 14 75 253 93 572 45 87 -13
121 -22 128 -34 5 -9 19 -17 31 -17 13 0 41 -19 67 -46 57 -58 87 -76 204
-124 53 -21 110 -48 127 -60 16 -12 33 -20 36 -17 2 3 -11 43 -31 89 -20 46
-36 87 -36 91 0 4 10 7 22 7 12 0 31 9 43 20 l21 20 13 -89 c7 -49 15 -92 18
-95 8 -7 110 135 128 178 19 45 19 153 0 231 -8 33 -14 75 -15 93 0 17 -3 32
-7 32 -12 0 -63 -62 -84 -102 -14 -28 -26 -38 -44 -38 -29 0 -32 17 -10 59 44
86 37 173 -25 311 -21 47 -41 94 -45 105 l-6 20 -16 -20 c-65 -85 -74 -248
-22 -394 28 -79 29 -76 -16 -72 -30 2 -51 14 -87 46 -71 64 -117 76 -281 73
-75 -2 -137 -4 -137 -6 0 -1 19 -23 41 -47 28 -31 36 -45 26 -45 -9 0 -87 18
-173 40 -239 61 -300 95 -351 194 -36 70 -107 142 -161 163 -66 25 -173 24
-233 -4 -68 -31 -123 -85 -159 -159 -37 -73 -78 -107 -174 -143 -60 -22 -260
-75 -331 -87 l-40 -6 43 44 c23 24 42 46 42 48 0 3 -64 6 -142 8 -131 2 -145
0 -192 -22 -28 -13 -69 -40 -91 -59 -24 -22 -53 -37 -75 -40 -19 -2 -36 -3
-38 -2 -2 2 8 38 21 82 33 103 41 176 28 246 -11 59 -48 157 -61 157 -3 0 -12
-15 -17 -32z m1400 -54 c48 -16 118 -77 142 -125 20 -38 30 -178 16 -221 -6
-19 -24 -48 -40 -64 -31 -31 -93 -71 -90 -57 1 4 -1 15 -4 23 -4 8 -8 35 -10
60 -3 39 -4 36 -5 -16 -3 -83 -15 -89 -28 -12 l-12 63 -1 -67 c-1 -77 -20 -94
-23 -20 l-1 47 -6 -48 c-8 -65 -25 -64 -29 3 -4 84 -10 93 -11 18 -1 -83 -21
-91 -22 -10 l-1 57 -10 -55 c-10 -52 -21 -70 -43 -69 -5 0 -4 3 3 6 8 3 11 25
10 66 l-2 62 -3 -57 c-4 -61 -16 -74 -57 -58 -13 5 -26 7 -29 4 -11 -12 -85
89 -96 131 -26 104 -8 192 53 262 75 85 189 115 299 77z m-383 -257 c0 -128
97 -245 228 -276 48 -12 52 -15 52 -42 0 -26 -3 -29 -35 -29 -30 0 -35 3 -35
24 0 24 -21 36 -63 36 -15 0 -16 -3 -7 -21 18 -33 4 -33 -16 0 -10 17 -32 37
-49 46 -48 22 -185 34 -334 28 -152 -7 -161 -3 -161 69 0 36 2 38 43 48 180
46 343 111 355 141 9 21 22 6 22 -24z m601 17 c28 -34 173 -91 319 -124 30 -7
61 -17 68 -23 17 -13 15 -58 -3 -85 -15 -21 -21 -21 -203 -20 -220 2 -283 -10
-327 -65 -22 -26 -25 -28 -20 -9 6 19 3 22 -24 22 -31 0 -58 -30 -46 -50 4 -6
-9 -10 -29 -10 -33 0 -36 2 -36 30 0 24 5 31 28 36 140 30 227 122 239 255 6
62 12 69 34 43z m-1041 -174 l0 -30 -132 4 -133 5 108 -12 c60 -7 106 -15 102
-19 -4 -4 9 -4 29 -1 45 7 48 -10 4 -25 -32 -11 -32 -12 10 -7 24 3 41 2 38
-3 -7 -11 -201 -36 -215 -27 -6 3 -11 0 -11 -9 0 -8 6 -17 13 -19 8 -4 6 -6
-4 -6 -20 -1 -41 43 -33 73 5 21 1 24 -42 30 -26 3 -119 6 -208 7 -150 0 -309
14 -216 18 100 5 226 13 319 21 58 6 160 10 227 10 71 0 125 4 129 10 11 17
15 11 15 -20z m1470 20 c0 -6 49 -10 128 -10 71 0 175 -4 233 -10 57 -5 151
-12 209 -14 137 -6 144 -7 90 -17 -25 -4 -115 -8 -200 -8 -85 -1 -178 -4 -207
-7 -50 -6 -52 -8 -46 -34 6 -33 -12 -70 -34 -70 -15 0 -15 1 1 13 14 11 1 14
-90 25 -110 13 -185 36 -89 27 50 -5 50 -5 13 6 -52 15 -49 33 3 25 23 -4 38
-3 35 3 -3 5 48 13 117 19 l122 10 -150 -1 -150 -2 -3 28 c-2 15 1 27 7 27 6
0 11 -4 11 -10z m-2060 -90 c14 -4 18 -8 9 -9 -9 -1 -28 -10 -43 -22 l-26 -20
0 30 c0 33 11 37 60 21z m340 0 c0 -5 -17 -14 -37 -19 -135 -35 -290 -74 -300
-74 -7 0 -13 -5 -13 -10 0 -5 8 -6 18 -2 32 13 316 75 327 72 5 -2 -64 -21
-154 -42 -90 -22 -170 -45 -177 -52 -11 -11 -15 -10 -24 6 -16 32 -12 59 13
73 63 35 347 74 347 48z m2182 -14 c59 -13 115 -29 123 -36 17 -14 20 -66 4
-75 -6 -4 -9 0 -7 10 2 14 -26 24 -172 61 -96 24 -176 44 -178 44 -2 0 0 5 3
10 11 17 115 11 227 -14z m177 12 c0 -7 -4 -21 -8 -31 -6 -17 -8 -17 -25 2
-11 12 -29 21 -40 21 -34 0 -1 16 39 18 23 2 35 -2 34 -10z m-1396 -15 c-7 -2
-19 -2 -25 0 -7 3 -2 5 12 5 14 0 19 -2 13 -5z m1139 -43 c73 -17 145 -33 161
-37 15 -3 27 -9 27 -14 0 -5 -6 -6 -12 -4 -7 2 -83 20 -168 40 -141 33 -182
45 -152 45 6 0 71 -14 144 -30z m-2097 -11 c-28 -13 -318 -79 -324 -74 -8 8 0
11 159 48 159 36 201 43 165 26z m2069 -18 c66 -16 138 -33 159 -36 20 -4 37
-11 37 -16 0 -12 -8 -11 -66 5 -27 8 -94 24 -149 37 -55 12 -104 26 -109 31
-15 12 -4 10 128 -21z m-1194 -11 c0 -5 -4 -10 -10 -10 -5 0 -10 5 -10 10 0 6
5 10 10 10 6 0 10 -4 10 -10z m214 -5 c-4 -8 -8 -15 -10 -15 -2 0 -4 7 -4 15
0 8 4 15 10 15 5 0 7 -7 4 -15z"/>
<path d="M2700 2814 c-65 -28 -141 -122 -139 -171 0 -11 4 -7 9 9 4 15 18 44
30 64 18 27 25 33 32 22 8 -10 9 -9 5 4 -3 9 1 22 9 28 11 10 14 9 14 -4 0
-10 5 -14 10 -11 6 4 9 14 8 22 -2 9 3 18 10 20 6 3 12 -3 12 -12 0 -9 5 -13
11 -10 6 4 8 13 5 21 -3 8 -1 14 4 14 6 0 10 -4 10 -10 0 -5 5 -10 10 -10 6 0
10 7 10 15 0 8 5 15 10 15 6 0 10 -7 10 -15 0 -8 5 -15 10 -15 6 0 10 7 10 15
0 8 5 15 10 15 6 0 9 -5 8 -11 -2 -6 3 -14 11 -17 10 -3 12 0 8 12 -4 9 -2 16
3 16 6 0 10 -7 10 -15 0 -8 5 -15 10 -15 6 0 10 5 10 10 0 6 5 10 10 10 6 0
10 -9 10 -20 0 -11 5 -20 10 -20 6 0 10 7 10 16 0 8 5 12 11 9 6 -4 8 -13 5
-21 -3 -7 -1 -16 4 -19 6 -4 10 1 10 9 0 10 6 13 15 10 10 -4 13 -13 9 -27 -5
-15 -3 -19 9 -14 8 3 20 0 27 -6 10 -10 10 -8 2 8 -40 78 -197 120 -292 79z"/>
<path d="M3015 2675 c14 -33 18 -125 6 -125 -6 0 -11 -15 -11 -32 0 -40 -16
-71 -24 -48 -3 8 -7 26 -9 40 -2 14 -5 -1 -6 -32 -1 -59 -21 -84 -21 -26 0 17
-3 28 -7 24 -11 -11 -9 -86 2 -83 20 7 75 89 86 130 13 51 7 143 -11 160 -10
10 -11 8 -5 -8z"/>
<path d="M2744 2599 c-3 -6 -1 -16 5 -22 8 -8 11 -5 11 11 0 24 -5 28 -16 11z"/>
<path d="M2830 2590 c0 -11 5 -20 10 -20 6 0 10 9 10 20 0 11 -4 20 -10 20 -5
0 -10 -9 -10 -20z"/>
<path d="M2871 2594 c0 -11 3 -14 6 -6 3 7 2 16 -1 19 -3 4 -6 -2 -5 -13z"/>
<path d="M2551 2580 c-4 -52 54 -157 105 -191 16 -10 32 -19 35 -19 3 0 6 26
7 58 1 41 -1 51 -8 37 -5 -11 -9 -32 -9 -47 -2 -56 -21 -26 -22 35 -1 34 -3
51 -6 37 -8 -55 -14 -71 -23 -65 -6 3 -11 25 -11 48 -1 39 -2 40 -8 12 -7 -29
-7 -29 -19 -8 -7 12 -9 35 -6 52 5 26 4 30 -9 25 -11 -4 -17 2 -20 18 -2 13
-5 16 -6 8z"/>
<path d="M2775 2560 c-3 -5 -1 -10 4 -10 6 0 11 5 11 10 0 6 -2 10 -4 10 -3 0
-8 -4 -11 -10z"/>
<path d="M2800 2560 c0 -5 5 -10 10 -10 6 0 10 5 10 10 0 6 -4 10 -10 10 -5 0
-10 -4 -10 -10z"/>
<path d="M2740 2540 c0 -5 5 -10 11 -10 5 0 7 5 4 10 -3 6 -8 10 -11 10 -2 0
-4 -4 -4 -10z"/>
<path d="M2841 2541 c-8 -6 -9 -11 -3 -15 6 -3 14 -1 17 5 9 14 2 20 -14 10z"/>
<path d="M2431 2529 c-36 -21 -60 -39 -55 -40 32 -2 -134 -47 -238 -64 -28 -4
-38 -11 -38 -25 0 -10 4 -22 10 -25 5 -3 58 1 117 9 60 8 156 18 215 22 107 7
107 7 92 28 -8 11 -19 38 -25 58 l-10 37 -51 -20 c-28 -11 -52 -18 -55 -16 -2
2 17 12 41 21 41 16 74 41 65 50 -2 2 -33 -14 -68 -35z"/>
<path d="M2245 2376 c-76 -10 -71 -11 110 -11 105 0 203 -4 220 -8 29 -8 29
-8 11 12 -17 19 -29 21 -140 20 -67 -1 -157 -7 -201 -13z"/>
<path d="M3100 2554 c0 -9 22 -24 50 -36 65 -27 58 -35 -8 -9 l-50 20 -12 -45
c-7 -24 -17 -47 -21 -50 -24 -15 0 -22 94 -28 56 -4 151 -13 211 -21 80 -11
113 -12 123 -4 25 21 14 37 -29 44 -91 14 -216 47 -234 61 -10 8 -43 30 -71
49 -39 25 -53 30 -53 19z"/>
<path d="M3018 2380 c-29 -18 -20 -30 13 -18 20 7 97 9 212 6 105 -2 165 -1
142 4 -70 14 -348 20 -367 8z"/>
<path d="M1867 2776 c-55 -23 -144 -85 -181 -125 -16 -18 -12 -19 163 -26 203
-8 244 -1 340 57 65 39 75 58 33 58 -16 0 -73 14 -127 30 -117 36 -152 37
-228 6z"/>
<path d="M3575 2794 c-11 -3 -55 -16 -98 -30 -43 -13 -91 -24 -108 -24 -16 0
-29 -3 -29 -7 0 -15 96 -73 155 -94 56 -20 72 -20 245 -14 l185 8 -59 53 c-33
29 -83 64 -112 79 -51 26 -137 40 -179 29z"/>
<path d="M1165 2118 c3 -40 8 -97 11 -125 l5 -53 90 0 c89 0 90 0 83 23 -22
71 -102 175 -163 210 l-31 18 5 -73z"/>
<path d="M2395 2179 c-131 -13 -196 -29 -272 -65 -78 -37 -163 -112 -201 -176
l-21 -38 26 0 c14 0 24 3 20 6 -12 12 54 94 106 133 95 72 194 100 405 116
l93 7 -3 -131 c-3 -130 -3 -131 20 -131 22 0 22 2 22 130 l0 130 206 0 205 0
-3 -130 -3 -130 25 0 25 0 0 127 0 128 85 -3 c215 -7 366 -58 455 -153 25 -26
50 -60 57 -74 6 -14 19 -25 30 -25 25 0 23 5 -17 60 -104 141 -223 196 -475
219 -132 12 -666 12 -785 0z"/>
<path d="M4380 2156 c-25 -18 -57 -48 -71 -67 -24 -31 -79 -131 -79 -144 0 -3
40 -5 90 -5 104 0 95 -10 104 130 2 47 8 93 11 103 10 25 -4 21 -55 -17z"/>
<path d="M1795 2113 c-11 -8 -61 -35 -111 -59 -88 -42 -154 -86 -154 -105 0
-5 52 -9 115 -9 l115 0 18 38 c22 44 46 126 41 141 -2 5 -12 3 -24 -6z"/>
<path d="M3776 2095 c4 -21 17 -63 28 -94 l22 -56 124 -3 124 -3 -29 32 c-17
17 -73 51 -125 76 -52 25 -108 55 -123 66 l-28 19 7 -37z"/>
<path d="M297 1872 c-16 -3 -17 -24 -15 -235 l3 -232 2510 0 2510 0 3 233 c2
216 1 232 -15 232 -158 3 -4984 4 -4996 2z m3434 -88 c19 -23 -1 -49 -37 -49
-23 0 -30 5 -32 24 -6 39 43 56 69 25z m-3031 -37 c0 -53 6 -61 34 -42 11 8
37 15 58 15 51 0 78 -30 78 -87 0 -37 4 -45 25 -53 15 -6 25 -17 25 -30 0 -18
-6 -20 -80 -20 -78 0 -80 1 -80 24 0 13 7 26 15 30 9 3 15 18 15 35 0 37 -30
57 -59 41 -35 -18 -38 -71 -5 -84 8 -3 14 -15 14 -26 0 -20 -5 -21 -82 -18
-69 3 -83 6 -86 20 -2 12 6 21 22 28 25 9 26 13 26 80 0 66 -2 71 -25 80 -24
9 -32 29 -18 43 3 4 33 7 65 7 l58 0 0 -43z m-210 -2 c0 -20 5 -25 25 -25 21
0 25 -5 25 -30 0 -25 -4 -30 -25 -30 -23 0 -25 -4 -25 -45 0 -45 16 -63 22
-25 4 30 22 25 26 -7 5 -34 -20 -53 -70 -53 -45 0 -58 19 -58 83 0 36 -4 46
-20 50 -30 8 -24 40 10 59 17 9 30 24 30 33 0 10 10 15 30 15 25 0 30 -4 30
-25z m3040 1 c0 -18 6 -25 23 -28 16 -2 22 -10 22 -28 0 -18 -6 -26 -22 -28
-20 -3 -23 -9 -23 -48 0 -24 5 -44 10 -44 6 0 10 9 10 20 0 11 7 20 15 20 20
0 20 -44 -1 -64 -20 -21 -88 -21 -104 -1 -7 9 -15 38 -18 64 -3 37 -9 50 -23
54 -28 8 -23 34 10 52 16 8 32 24 36 35 4 14 15 20 36 20 24 0 29 -4 29 -24z
m-2380 -53 c17 -17 30 -40 32 -58 l3 -30 -79 -5 c-68 -4 -77 -7 -63 -19 12
-10 33 -11 79 -6 l63 7 -21 -22 c-39 -40 -122 -46 -186 -13 -53 26 -63 83 -23
132 28 32 44 38 117 40 39 1 53 -4 78 -26z m424 13 c62 -26 54 -98 -9 -82 -23
6 -26 11 -21 32 6 23 4 25 -21 22 -17 -2 -33 -13 -42 -29 -13 -24 -13 -29 2
-53 18 -27 69 -37 82 -16 3 6 17 10 31 10 21 0 23 -3 15 -19 -28 -51 -150 -55
-201 -6 -88 85 39 193 164 141z m314 -15 c56 -40 50 -106 -13 -147 -35 -23
-140 -23 -182 -1 -75 40 -69 127 11 163 45 21 146 12 184 -15z m179 10 c5 -19
6 -19 40 1 27 17 39 19 58 10 32 -15 41 -49 19 -73 -22 -24 -30 -24 -51 1 -23
27 -42 25 -53 -5 -12 -31 -4 -52 21 -58 11 -3 19 -14 19 -26 0 -20 -5 -21 -85
-21 -84 0 -85 0 -85 25 0 18 5 25 20 25 17 0 20 7 20 41 0 32 -4 42 -20 46
-12 3 -20 14 -20 27 0 19 6 21 56 23 47 2 57 -1 61 -16z m269 9 c7 -7 19 -8
37 -1 66 25 144 -32 133 -97 -10 -67 -80 -107 -136 -79 -29 15 -30 15 -30 -9
0 -17 6 -24 20 -24 15 0 20 -7 20 -25 0 -25 -1 -25 -85 -25 -84 0 -85 0 -85
25 0 18 5 25 20 25 18 0 20 7 20 81 0 72 -2 81 -20 86 -13 3 -20 14 -20 29 0
23 4 24 58 24 32 0 63 -5 68 -10z m414 -6 c47 -19 60 -38 60 -88 0 -58 -74
-100 -162 -90 -76 9 -118 43 -118 96 0 79 118 123 220 82z m210 -4 c0 -19 1
-19 30 -1 36 21 76 17 91 -11 24 -46 -26 -84 -61 -46 -27 29 -50 17 -50 -26 0
-25 5 -35 20 -39 12 -3 20 -14 20 -26 0 -20 -5 -21 -85 -21 -84 0 -85 0 -85
25 0 18 5 25 20 25 17 0 20 7 20 41 0 32 -4 42 -20 46 -13 3 -20 14 -20 29 0
23 3 24 60 24 53 0 60 -2 60 -20z m345 6 c36 -15 42 -28 48 -101 3 -34 5 -36
12 -17 4 12 14 22 21 22 17 0 19 -51 2 -68 -18 -18 -107 -16 -114 3 -5 13 -9
13 -34 0 -61 -32 -140 -12 -140 35 0 23 26 50 48 51 12 0 10 3 -6 10 -31 12
-26 49 8 66 34 17 113 16 155 -1z m433 -55 c3 -55 6 -63 27 -71 17 -7 22 -14
18 -29 -5 -19 -13 -21 -89 -21 -78 0 -84 2 -84 20 0 13 10 24 26 30 21 8 25
15 22 42 -2 23 -10 36 -25 43 -21 9 -30 34 -18 47 3 3 31 4 63 3 l57 -3 3 -61z
m279 54 c44 -19 62 -41 63 -78 0 -38 -15 -64 -48 -81 -100 -50 -232 -9 -232
73 0 80 118 127 217 86z m219 0 c5 -11 12 -10 42 2 71 30 132 -11 132 -87 0
-19 7 -33 20 -40 11 -6 20 -20 20 -30 0 -18 -7 -20 -80 -20 -79 0 -80 0 -80
25 0 16 6 25 15 25 10 0 15 10 15 34 0 43 -22 63 -54 48 -35 -16 -43 -82 -10
-82 8 0 14 -10 14 -25 0 -25 -1 -25 -80 -25 -75 0 -80 1 -80 21 0 12 8 23 20
26 11 3 21 14 21 24 1 11 2 27 3 37 0 9 -9 21 -21 27 -22 9 -30 34 -17 48 13
12 115 5 120 -8z m622 -10 c7 -31 -14 -39 -53 -21 -22 11 -47 15 -61 12 -33
-9 -23 -22 23 -30 60 -11 91 -26 96 -48 14 -53 -32 -78 -143 -78 -79 0 -80 0
-80 25 0 32 23 41 52 21 25 -18 88 -22 88 -6 0 5 -12 12 -27 15 -16 4 -39 9
-53 11 -73 16 -80 90 -10 117 8 4 49 5 90 3 62 -3 76 -6 78 -21z m286 11 c59
-24 56 -91 -3 -84 -21 2 -26 8 -26 31 1 32 -27 37 -57 10 -22 -20 -23 -51 -1
-75 17 -19 68 -25 78 -8 3 6 17 10 30 10 32 0 23 -25 -16 -45 -82 -43 -199 3
-199 78 0 75 106 120 194 83z m-221 -161 c1 -5 -6 -11 -15 -13 -11 -2 -18 3
-18 13 0 17 30 18 33 0z m317 0 c0 -8 -7 -15 -15 -15 -8 0 -15 7 -15 15 0 8 7
15 15 15 8 0 15 -7 15 -15z"/>
<path d="M1043 1673 c-28 -11 -13 -33 22 -33 23 0 35 5 35 14 0 20 -30 31 -57
19z"/>
<path d="M1763 1669 c-30 -11 -38 -45 -19 -74 29 -44 86 -27 86 25 0 44 -27
64 -67 49z"/>
<path d="M2342 1643 c-6 -11 -6 -27 -1 -41 7 -18 15 -23 35 -20 35 4 53 31 38
56 -16 24 -60 28 -72 5z"/>
<path d="M2642 1664 c-40 -28 -22 -94 26 -94 35 0 52 17 52 51 0 24 -30 59
-50 59 -3 0 -16 -7 -28 -16z"/>
<path d="M3191 1668 c-10 -26 5 -34 45 -24 27 7 32 31 8 40 -29 11 -45 6 -53
-16z"/>
<path d="M3217 1604 c-29 -16 -28 -34 2 -34 20 0 41 19 41 37 0 16 -8 16 -43
-3z"/>
<path d="M3902 1658 c-30 -30 -2 -88 42 -88 29 0 46 18 46 50 0 33 -17 50 -50
50 -14 0 -31 -5 -38 -12z"/>
<path d="M5341 1834 c0 -11 3 -14 6 -6 3 7 2 16 -1 19 -3 4 -6 -2 -5 -13z"/>
<path d="M1230 1336 c0 -8 64 -111 98 -156 39 -52 100 -96 151 -109 105 -26
166 -39 169 -36 6 6 -68 115 -115 172 -24 28 -71 70 -104 92 -57 38 -66 41
-130 41 -38 0 -69 -2 -69 -4z"/>
<path d="M1647 1333 c-22 -22 0 -149 44 -251 l21 -47 22 70 c13 39 37 97 53
130 56 110 58 105 -45 105 -49 0 -92 -3 -95 -7z"/>
<path d="M1855 1253 c-29 -66 -40 -105 -43 -155 -5 -85 8 -124 77 -228 l56
-85 6 75 c3 41 14 113 24 159 21 101 16 181 -15 264 -17 45 -26 57 -43 57 -18
0 -29 -16 -62 -87z"/>
<path d="M3653 1328 c-6 -7 -19 -38 -29 -68 -24 -71 -23 -157 4 -290 12 -58
23 -121 24 -140 l3 -35 37 50 c70 93 93 151 92 235 0 65 -6 87 -41 165 -41 91
-66 114 -90 83z"/>
<path d="M3775 1313 c3 -16 26 -69 49 -118 24 -50 47 -106 51 -125 l7 -34 15
27 c34 65 56 164 54 240 l-1 37 -91 0 -91 0 7 -27z"/>
<path d="M4185 1311 c-64 -38 -152 -129 -199 -207 -20 -34 -36 -64 -36 -67 0
-3 15 -1 32 4 18 5 60 14 92 20 79 14 126 39 171 91 33 39 115 168 115 182 0
3 -28 6 -62 6 -51 0 -72 -6 -113 -29z"/>
<path d="M2213 1240 c4 -17 2 -20 -13 -15 -12 4 -27 -2 -40 -15 -19 -19 -20
-24 -7 -43 11 -18 26 -23 71 -25 34 -2 56 1 56 8 0 5 -4 10 -10 10 -5 0 -10
23 -10 50 0 47 -1 50 -26 50 -22 0 -25 -4 -21 -20z m5 -57 c-4 -22 -22 -20
-26 1 -2 10 3 16 13 16 10 0 15 -7 13 -17z"/>
<path d="M2990 1246 c0 -8 -5 -16 -11 -18 -8 -3 -8 -10 2 -26 11 -17 11 -24 1
-34 -20 -20 -14 -28 23 -28 34 0 46 12 25 25 -6 4 -10 14 -9 23 4 45 -2 72
-16 72 -8 0 -15 -6 -15 -14z"/>
<path d="M2314 1220 c-29 -11 -35 -34 -17 -59 11 -17 23 -21 51 -19 19 2 37 8
39 14 2 7 -5 10 -20 7 -14 -3 -28 0 -31 6 -5 7 5 11 28 11 43 0 50 25 10 40
-29 12 -32 12 -60 0z m46 -14 c0 -11 -19 -15 -25 -6 -3 5 1 10 9 10 9 0 16 -2
16 -4z"/>
<path d="M2437 1223 c-27 -7 -18 -45 13 -55 24 -7 24 -8 -2 -4 -19 2 -28 -1
-28 -10 0 -18 71 -19 88 -2 19 19 15 28 -20 44 -30 14 -31 15 -5 9 32 -6 37
10 5 19 -13 3 -25 5 -28 5 -3 -1 -13 -3 -23 -6z"/>
<path d="M2610 1219 c0 -4 4 -10 9 -13 10 -7 9 -31 -2 -42 -19 -19 1 -24 98
-24 95 0 123 7 95 25 -5 3 -10 17 -10 31 0 13 -3 24 -7 25 -58 5 -183 4 -183
-2z m84 -28 c7 -11 -3 -41 -14 -41 -11 0 -21 30 -14 41 3 5 9 9 14 9 5 0 11
-4 14 -9z m70 0 c7 -11 -3 -41 -14 -41 -11 0 -21 30 -14 41 3 5 9 9 14 9 5 0
11 -4 14 -9z"/>
<path d="M2860 1217 c-51 -26 -29 -77 33 -77 38 0 67 17 67 39 0 37 -59 60
-100 38z m56 -46 c-10 -16 -36 -13 -43 5 -8 22 18 37 36 20 7 -8 10 -19 7 -25z"/>
<path d="M3055 1220 c-3 -5 -2 -10 3 -10 15 0 24 -32 12 -44 -18 -18 -11 -26
25 -26 36 0 43 8 24 27 -14 14 -3 33 18 33 12 0 14 -7 10 -30 -6 -28 -4 -30
23 -30 28 0 29 2 23 33 -3 17 -9 36 -14 41 -11 12 -117 18 -124 6z"/>
<path d="M3244 1220 c-29 -11 -35 -34 -17 -59 11 -17 23 -21 51 -19 19 2 37 8
39 14 2 7 -5 10 -20 7 -14 -3 -28 0 -31 6 -5 7 5 11 28 11 43 0 50 25 10 40
-29 12 -32 12 -60 0z m46 -14 c0 -11 -19 -15 -25 -6 -3 5 1 10 9 10 9 0 16 -2
16 -4z"/>
<path d="M3363 1219 c-36 -13 -25 -40 22 -52 14 -4 12 -5 -7 -4 -15 1 -27 -2
-28 -8 0 -5 19 -10 43 -10 35 0 43 4 45 20 2 15 -5 24 -25 32 -21 9 -23 11 -7
10 11 -1 23 2 25 7 5 12 -41 16 -68 5z"/>
<path d="M2042 1133 c0 -26 -5 -83 -12 -125 -15 -90 -10 -148 15 -201 21 -45
90 -123 147 -169 l41 -32 -7 29 c-4 17 -11 87 -16 158 -5 70 -16 152 -24 182
-18 58 -88 169 -122 192 -21 14 -22 13 -22 -34z"/>
<path d="M3506 1140 c-21 -24 -54 -77 -74 -119 -32 -70 -35 -85 -42 -216 -5
-77 -13 -152 -19 -168 -10 -25 -9 -27 7 -18 37 20 121 102 150 148 44 69 54
124 41 225 -6 45 -14 107 -18 137 l-6 54 -39 -43z"/>
<path d="M2240 985 c5 -14 14 -73 20 -132 11 -124 33 -177 96 -239 41 -39 180
-121 190 -111 3 2 -4 22 -15 43 -11 22 -30 75 -42 119 -41 156 -112 265 -211
325 -43 26 -50 25 -38 -5z"/>
<path d="M3300 976 c-98 -72 -146 -146 -189 -299 -17 -60 -38 -122 -47 -139
-8 -16 -13 -32 -11 -35 10 -9 130 60 174 99 74 69 92 110 108 248 8 66 19 129
25 140 16 30 -7 25 -60 -14z"/>
<path d="M1376 991 c-4 -6 -4 -11 1 -11 4 0 44 -35 88 -76 127 -120 145 -128
300 -132 l130 -4 -30 32 c-55 59 -152 130 -221 162 -59 28 -83 33 -165 36 -64
3 -99 0 -103 -7z"/>
<path d="M3982 975 c-76 -30 -135 -69 -215 -146 l-62 -58 111 -1 c158 0 183
11 319 138 43 39 82 72 87 72 5 0 6 5 3 10 -3 6 -45 10 -93 10 -67 -1 -101 -6
-150 -25z"/>
<path d="M2576 666 c2 -115 8 -141 47 -183 30 -33 35 -29 26 20 -4 23 -8 71
-9 106 0 44 -7 78 -21 107 -39 81 -45 73 -43 -50z"/>
<path d="M2990 734 c-29 -46 -34 -70 -44 -211 -5 -73 10 -76 49 -9 20 35 24
57 27 154 2 61 2 112 0 112 -1 0 -16 -21 -32 -46z"/>
<path d="M1682 691 c-67 -23 -71 -28 -36 -41 16 -6 63 -31 104 -55 41 -24 101
-51 134 -60 63 -18 77 -17 229 24 67 17 68 18 45 33 -48 32 -165 86 -217 102
-72 21 -191 20 -259 -3z"/>
<path d="M3666 699 c-51 -12 -195 -81 -226 -107 l-25 -21 22 -1 c13 0 51 -10
85 -22 38 -13 87 -22 125 -22 65 0 57 -3 263 104 l65 34 -45 20 c-52 23 -200
31 -264 15z"/>
<path d="M2105 496 c-58 -19 -125 -52 -159 -80 l-30 -23 48 -7 c26 -4 65 -14
87 -21 128 -45 208 -40 335 21 65 32 81 36 124 31 46 -6 174 -59 213 -88 16
-13 11 -19 -60 -69 -42 -30 -79 -61 -81 -67 -3 -9 11 -13 45 -13 42 0 54 5 89
36 74 69 78 70 121 36 21 -16 47 -39 57 -51 15 -16 31 -21 73 -21 29 0 53 3
53 6 0 10 -49 51 -107 90 -29 19 -53 39 -53 43 0 16 183 94 230 99 42 4 60 -1
136 -39 79 -39 94 -43 158 -43 42 0 99 9 141 22 39 12 90 24 114 28 l44 7 -24
19 c-13 11 -58 36 -99 56 -67 33 -85 37 -171 40 -149 6 -304 -31 -502 -120
l-88 -40 -102 45 c-188 83 -327 117 -465 116 -48 0 -105 -6 -127 -13z"/>
<path d="M2438 342 c-37 -20 -68 -40 -68 -44 0 -21 77 -5 142 29 58 30 68 38
52 44 -35 14 -59 9 -126 -29z"/>
<path d="M3032 371 c-10 -6 3 -18 45 -41 61 -35 135 -50 147 -31 4 6 3 11 -3
11 -5 0 -36 16 -68 35 -57 34 -95 43 -121 26z"/>
</g>
</svg>
