<?xml version="1.0" standalone="no"?>
<!DOCTYPE svg PUBLIC "-//W3C//DTD SVG 20010904//EN"
 "http://www.w3.org/TR/2001/REC-SVG-20010904/DTD/svg10.dtd">
<svg version="1.0" xmlns="http://www.w3.org/2000/svg"
 width="564.000000pt" height="564.000000pt" viewBox="0 0 564.000000 564.000000"
 preserveAspectRatio="xMidYMid meet">

<g transform="translate(0.000000,564.000000) scale(0.100000,-0.100000)"
fill="#000000" stroke="none">
<path d="M1315 4583 c37 -88 54 -157 106 -427 105 -547 117 -608 155 -771 25
-110 37 -186 38 -242 l1 -83 91 0 92 0 6 38 c4 20 45 215 92 432 100 460 226
964 254 1020 11 22 20 42 20 45 0 3 -57 5 -126 5 l-126 0 5 -32 c9 -56 -20
-259 -93 -657 -60 -328 -80 -425 -80 -387 0 4 -22 141 -49 304 -85 512 -104
675 -88 740 l9 32 -157 0 c-146 0 -157 -1 -150 -17z"/>
<path d="M2728 4593 c-90 -3 -97 -5 -103 -26 -18 -61 -19 -58 12 -42 15 8 36
15 46 15 17 0 17 -16 15 -252 -2 -139 -7 -261 -12 -270 -7 -16 -1 -18 63 -18
68 0 71 1 61 19 -6 12 -10 115 -10 266 0 268 2 276 55 241 35 -23 36 -21 18
29 -10 31 -20 44 -31 43 -10 -1 -61 -4 -114 -5z"/>
<path d="M2855 4220 l0 -220 45 0 45 0 -3 115 -4 115 52 0 52 0 -3 -115 -4
-115 45 0 45 0 0 220 0 220 -45 0 -45 0 3 -75 4 -75 -52 0 -52 0 4 75 3 75
-45 0 -45 0 0 -220z"/>
<path d="M3155 4220 l0 -221 105 3 105 3 3 40 c3 39 3 39 -16 21 -11 -10 -39
-20 -61 -23 l-41 -6 0 93 0 92 45 -4 c45 -3 45 -3 45 29 0 31 -1 32 -42 30
l-43 -2 -3 57 c-3 64 3 69 71 57 36 -6 37 -5 37 22 l0 29 -102 0 -103 0 0
-220z"/>
<path d="M2570 3907 c-84 -27 -149 -143 -135 -240 14 -89 46 -126 195 -221 82
-52 110 -93 110 -158 0 -91 -46 -138 -134 -138 -39 0 -51 5 -82 36 -34 35 -36
40 -32 90 4 47 2 54 -13 54 -22 0 -49 -48 -50 -87 0 -45 -63 -88 -150 -104
-60 -11 -72 -10 -80 2 -5 8 -8 86 -6 174 l2 160 60 0 c33 0 71 -3 86 -7 25 -7
25 -7 26 55 l0 63 -89 -4 -89 -4 3 113 3 114 74 3 c53 2 80 -1 96 -12 27 -18
32 -11 37 59 l3 40 -202 3 -203 2 8 -47 c9 -61 9 -671 0 -740 l-7 -53 204 0
203 0 7 65 c4 36 10 65 14 65 3 0 13 -18 22 -39 11 -25 32 -50 60 -68 39 -25
50 -28 128 -28 68 1 94 5 126 22 96 51 134 118 135 231 0 120 -43 182 -180
257 -96 53 -130 92 -130 151 0 56 12 79 51 100 42 21 101 10 145 -28 24 -21
35 -26 38 -16 2 7 9 28 15 47 16 48 14 56 -11 58 -13 0 -48 10 -78 22 -60 22
-125 25 -180 8z"/>
<path d="M4000 3907 c-82 -26 -151 -146 -136 -239 14 -90 54 -136 178 -210 91
-54 128 -103 128 -170 0 -92 -46 -138 -136 -138 -40 0 -51 5 -79 34 -34 37
-47 79 -33 116 21 57 -27 44 -53 -14 -22 -49 -20 -53 -58 144 -17 85 -42 210
-56 278 -26 125 -26 150 1 177 14 13 1 15 -113 14 -70 0 -122 -3 -115 -6 7 -3
12 -23 12 -48 0 -60 -137 -690 -161 -739 -10 -22 -19 -41 -19 -43 0 -2 38 -3
85 -3 l85 0 0 40 c0 21 5 62 11 90 l11 50 68 0 c38 0 71 -4 74 -9 3 -4 7 -45
8 -90 l3 -81 109 0 108 0 -16 25 c-24 37 -20 37 30 2 43 -30 51 -32 132 -31
68 0 96 5 127 21 90 48 135 126 135 237 0 117 -50 180 -218 274 -67 38 -95 77
-94 132 1 50 15 76 53 96 42 21 101 10 145 -28 24 -21 35 -26 38 -16 2 7 9 28
15 47 16 48 14 56 -11 58 -13 0 -48 10 -78 22 -60 22 -125 25 -180 8z m-331
-494 c1 -9 -15 -13 -49 -13 -47 0 -50 1 -45 23 5 23 44 243 46 261 1 11 47
-247 48 -271z"/>
<path d="M2918 3868 c4 -18 7 -356 7 -751 l0 -717 87 0 88 0 -10 26 c-6 15
-10 186 -10 414 l0 388 63 -1 c134 -3 200 34 250 141 27 59 31 79 35 177 5
127 -12 206 -56 265 -59 79 -90 88 -294 89 l-167 1 7 -32z m243 -58 c52 -29
89 -194 70 -318 -19 -120 -50 -172 -103 -172 l-28 0 0 244 c0 244 1 252 33
255 5 1 17 -4 28 -9z"/>
<path d="M2350 2218 c0 -25 7 -45 20 -58 27 -27 25 -35 -15 -60 -36 -22 -45
-40 -21 -40 18 0 50 -51 70 -110 8 -25 16 -85 17 -135 4 -131 -14 -153 -112
-140 -54 8 -89 35 -89 69 0 37 12 66 26 66 23 0 37 50 23 77 -30 56 -80 66
-368 76 -78 3 -118 -14 -105 -46 9 -24 -14 -57 -49 -72 -18 -8 -42 -25 -55
-39 -19 -21 -21 -28 -11 -44 10 -16 8 -26 -11 -60 -29 -52 -22 -62 16 -22 35
36 53 40 30 6 -42 -65 -23 -149 43 -193 39 -26 102 -30 141 -9 14 7 48 26 75
41 54 30 75 32 312 34 l123 1 39 35 c49 45 61 44 61 -2 0 -76 60 -133 140
-133 84 0 130 47 130 130 0 53 -12 86 -39 107 -14 11 -13 12 7 13 12 0 22 3
22 6 0 4 -16 28 -36 55 -33 46 -39 49 -80 49 -40 0 -44 2 -44 24 0 14 -4 28
-10 31 -5 3 -10 14 -10 23 0 9 -24 46 -54 82 -42 53 -50 68 -40 78 10 9 10 19
3 41 -15 42 -33 54 -74 49 -34 -4 -36 -3 -41 34 -4 21 -13 46 -20 55 -12 16
-13 14 -14 -19z m370 -588 c0 -5 -4 -10 -10 -10 -5 0 -10 5 -10 10 0 6 5 10
10 10 6 0 10 -4 10 -10z m-935 -49 c3 -5 1 -12 -4 -15 -5 -3 -11 1 -15 9 -6
16 9 21 19 6z m935 -22 c-6 -11 -15 -17 -20 -14 -6 4 -5 14 2 25 16 24 31 15
18 -11z m-125 1 c3 -5 1 -10 -4 -10 -6 0 -11 5 -11 10 0 6 2 10 4 10 3 0 8 -4
11 -10z m-745 -20 c0 -5 -9 -10 -20 -10 -11 0 -20 5 -20 10 0 6 9 10 20 10 11
0 20 -4 20 -10z m815 -10 c4 -6 -5 -10 -19 -10 -14 0 -26 5 -26 10 0 6 9 10
19 10 11 0 23 -4 26 -10z"/>
<path d="M4730 2217 c0 -21 7 -45 15 -53 23 -24 18 -48 -15 -67 -32 -19 -39
-37 -16 -37 17 0 55 -61 69 -110 14 -51 24 -201 16 -227 -14 -39 -51 -55 -109
-47 -30 4 -61 15 -71 25 -28 28 -24 109 6 109 7 0 16 7 19 16 13 33 5 61 -25
90 -29 27 -36 29 -147 37 -234 16 -265 15 -284 -4 -10 -10 -15 -25 -12 -33 9
-23 -14 -56 -49 -71 -18 -8 -43 -26 -56 -40 -19 -20 -21 -28 -11 -40 10 -12 8
-23 -9 -55 -30 -58 -26 -69 12 -32 43 42 49 40 25 -5 -34 -66 -11 -142 55
-184 42 -26 127 -22 160 8 12 11 33 24 47 28 14 4 31 12 39 18 8 7 80 12 185
14 211 4 226 6 261 43 41 43 55 39 55 -15 0 -37 6 -52 33 -81 28 -31 41 -37
87 -42 95 -9 150 41 150 136 0 40 -6 57 -26 81 -25 30 -25 31 -5 31 27 0 26 4
-6 48 -39 53 -52 62 -95 62 -26 0 -38 4 -38 14 0 30 -39 103 -84 159 -26 31
-42 57 -37 57 17 0 13 53 -5 79 -13 19 -24 22 -55 19 -41 -4 -49 4 -49 46 0
12 -7 31 -15 42 -13 18 -14 17 -15 -19z m370 -587 c0 -5 -4 -10 -10 -10 -5 0
-10 5 -10 10 0 6 5 10 10 10 6 0 10 -4 10 -10z m-940 -50 c0 -5 -4 -10 -10
-10 -5 0 -10 5 -10 10 0 6 5 10 10 10 6 0 10 -4 10 -10z m940 -2 c0 -19 -18
-43 -25 -36 -4 3 -2 16 5 27 12 24 20 27 20 9z m-130 -18 c0 -5 -4 -10 -10
-10 -5 0 -10 5 -10 10 0 6 5 10 10 10 6 0 10 -4 10 -10z m-740 -20 c0 -5 -9
-10 -20 -10 -11 0 -20 5 -20 10 0 6 9 10 20 10 11 0 20 -4 20 -10z m815 -10
c4 -6 -5 -10 -19 -10 -14 0 -26 5 -26 10 0 6 9 10 19 10 11 0 23 -4 26 -10z"/>
<path d="M1178 2208 c3 -18 8 -35 12 -38 4 -3 10 -15 14 -26 5 -17 -1 -27 -30
-49 -35 -27 -36 -29 -16 -36 50 -19 91 -141 91 -273 0 -59 -4 -72 -25 -93 -23
-23 -31 -25 -76 -19 -29 4 -60 11 -70 17 -45 24 -47 95 -2 123 35 24 32 67 -7
100 -17 14 -40 28 -52 31 -23 4 -154 13 -287 18 -84 4 -114 -10 -104 -47 5
-23 -37 -76 -60 -76 -7 0 -25 -13 -41 -30 -23 -24 -26 -32 -16 -44 10 -12 7
-24 -13 -62 -14 -26 -23 -50 -21 -53 3 -2 21 11 40 29 39 37 42 36 20 -6 -68
-131 88 -262 211 -177 76 51 124 61 308 62 175 1 191 5 238 48 29 28 49 24 41
-8 -9 -31 26 -97 64 -120 27 -17 45 -20 90 -17 49 4 61 10 90 41 29 32 33 43
33 91 0 43 -5 60 -25 84 l-25 30 22 5 c20 6 20 7 -11 44 -17 21 -36 44 -42 51
-5 6 -30 12 -55 12 -29 0 -43 4 -39 11 11 17 -15 69 -70 144 -42 57 -50 74
-41 87 7 13 6 26 -7 53 -16 34 -20 36 -60 33 -41 -3 -42 -2 -47 33 -10 61 -40
87 -32 27z m362 -578 c0 -5 -2 -10 -4 -10 -3 0 -8 5 -11 10 -3 6 -1 10 4 10 6
0 11 -4 11 -10z m-930 -61 c0 -6 -4 -7 -10 -4 -5 3 -10 11 -10 16 0 6 5 7 10
4 6 -3 10 -11 10 -16z m926 -17 c-14 -14 -16 -14 -16 -1 0 20 23 44 29 28 2
-6 -4 -18 -13 -27z m-116 8 c0 -5 -4 -10 -10 -10 -5 0 -10 5 -10 10 0 6 5 10
10 10 6 0 10 -4 10 -10z m-745 -20 c4 -6 -5 -10 -19 -10 -14 0 -26 5 -26 10 0
6 9 10 19 10 11 0 23 -4 26 -10z m815 -10 c0 -5 -12 -10 -26 -10 -14 0 -23 4
-19 10 3 6 15 10 26 10 10 0 19 -4 19 -10z"/>
<path d="M3534 2224 c3 -9 6 -27 6 -40 0 -14 4 -23 9 -20 5 3 11 -4 15 -17 4
-17 -3 -29 -32 -54 -27 -23 -32 -32 -20 -33 18 0 65 -62 73 -96 2 -10 9 -37
14 -59 5 -22 10 -73 9 -114 0 -65 -3 -77 -25 -98 -22 -23 -29 -25 -81 -19 -97
12 -133 80 -72 134 42 37 40 72 -6 110 -38 32 -49 33 -334 45 -84 4 -114 -9
-104 -47 5 -23 -37 -76 -60 -76 -7 0 -25 -13 -41 -30 -23 -24 -26 -32 -16 -44
10 -12 7 -24 -13 -62 -14 -26 -23 -50 -21 -53 3 -2 21 11 40 29 39 37 42 36
20 -6 -66 -126 88 -261 206 -181 85 58 92 59 294 64 197 5 221 10 259 52 26
29 36 26 36 -10 0 -134 175 -190 259 -83 32 40 29 123 -5 163 -20 24 -22 31
-10 31 29 0 22 17 -45 98 -5 6 -30 12 -55 12 -25 0 -43 4 -40 9 10 15 -18 76
-67 144 -27 37 -54 67 -60 67 -6 0 -3 6 8 13 13 10 16 21 11 40 -10 41 -34 59
-75 55 -34 -3 -36 -1 -41 32 -4 20 -10 41 -14 48 -11 18 -29 15 -22 -4z m366
-594 c0 -5 -2 -10 -4 -10 -3 0 -8 5 -11 10 -3 6 -1 10 4 10 6 0 11 -4 11 -10z
m-935 -50 c3 -5 2 -10 -4 -10 -5 0 -13 5 -16 10 -3 6 -2 10 4 10 5 0 13 -4 16
-10z m931 -28 c-14 -14 -16 -14 -16 -1 0 20 23 44 29 28 2 -6 -4 -18 -13 -27z
m-116 8 c0 -5 -4 -10 -10 -10 -5 0 -10 5 -10 10 0 6 5 10 10 10 6 0 10 -4 10
-10z m-745 -20 c4 -6 -5 -10 -19 -10 -14 0 -26 5 -26 10 0 6 9 10 19 10 11 0
23 -4 26 -10z m815 -10 c0 -5 -12 -10 -26 -10 -14 0 -23 4 -19 10 3 6 15 10
26 10 10 0 19 -4 19 -10z"/>
<path d="M4430 488 c-11 -18 -20 -49 -20 -68 0 -39 38 -128 63 -149 23 -18 21
-31 -3 -31 -10 0 -24 -10 -31 -21 -10 -20 -9 -21 12 -16 127 30 457 87 479 82
20 -4 31 -2 37 9 6 11 65 27 191 53 100 20 182 40 182 44 0 5 -16 11 -35 15
-28 5 -35 11 -35 29 0 20 -6 23 -46 27 -48 3 -104 -13 -104 -31 0 -6 -9 -15
-21 -21 -17 -9 -23 -8 -34 6 -23 32 -77 23 -124 -19 -47 -43 -52 -44 -69 -17
-7 11 -16 20 -22 20 -5 0 -35 -22 -66 -50 -60 -53 -95 -68 -53 -24 24 25 24
26 5 40 -34 24 -75 18 -93 -15 -16 -27 -99 -88 -108 -79 -11 11 33 75 61 88
27 14 29 19 21 38 -6 12 -16 22 -22 22 -24 0 -74 -63 -83 -104 l-9 -41 -17 37
c-20 47 -20 92 0 127 15 26 15 30 -1 54 -22 35 -31 34 -55 -5z m758 -79 c-2
-6 -8 -10 -13 -10 -5 0 -11 4 -13 10 -2 6 4 11 13 11 9 0 15 -5 13 -11z m-168
-22 c0 -8 -3 -17 -7 -20 -9 -9 -34 13 -27 24 8 14 34 11 34 -4z m100 -16 c0
-5 -11 -11 -25 -13 -29 -6 -33 6 -8 21 18 10 33 6 33 -8z m-180 -15 c0 -11
-33 -36 -48 -36 -13 0 -11 5 8 20 24 19 40 25 40 16z m-240 -25 c0 -5 -7 -11
-15 -15 -15 -5 -20 5 -8 17 9 10 23 9 23 -2z m108 -11 c-7 -11 -19 -20 -27
-20 -11 0 -10 5 4 20 10 11 22 20 27 20 4 0 3 -9 -4 -20z m-160 -38 c2 -7 -5
-12 -16 -12 -11 0 -29 -3 -39 -6 -13 -4 -11 0 7 15 26 22 41 23 48 3z"/>
</g>
</svg>
