<?xml version="1.0" standalone="no"?>
<!DOCTYPE svg PUBLIC "-//W3C//DTD SVG 20010904//EN"
 "http://www.w3.org/TR/2001/REC-SVG-20010904/DTD/svg10.dtd">
<svg version="1.0" xmlns="http://www.w3.org/2000/svg"
 width="563.000000pt" height="564.000000pt" viewBox="0 0 563.000000 564.000000"
 preserveAspectRatio="xMidYMid meet">

<g transform="translate(0.000000,564.000000) scale(0.100000,-0.100000)"
fill="#000000" stroke="none">
<path d="M2570 5619 c-668 -58 -1301 -361 -1770 -845 -184 -190 -318 -368
-439 -581 -481 -850 -477 -1909 10 -2766 203 -356 503 -683 849 -924 366 -255
795 -418 1255 -478 159 -20 533 -20 692 0 559 72 1039 279 1467 633 123 103
173 150 280 268 368 405 608 898 696 1426 17 107 20 168 20 468 0 387 -8 467
-75 719 -145 546 -456 1039 -890 1410 -383 328 -840 546 -1340 637 -215 40
-523 53 -755 33z m665 -178 c408 -70 739 -199 1068 -418 950 -630 1391 -1793
1096 -2892 -88 -327 -239 -633 -458 -926 -95 -127 -367 -400 -492 -493 -348
-259 -748 -437 -1139 -506 -319 -56 -654 -56 -970 1 -854 152 -1607 749 -1954
1546 -351 807 -289 1705 169 2453 258 422 646 773 1099 995 284 138 564 218
906 259 132 16 539 4 675 -19z"/>
<path d="M2540 5395 c-424 -51 -764 -171 -1119 -394 -304 -191 -617 -508 -812
-821 -74 -119 -179 -335 -227 -465 -285 -780 -185 -1632 272 -2325 299 -452
720 -791 1232 -993 220 -87 489 -146 764 -168 467 -37 1013 83 1430 314 600
333 1044 883 1240 1536 170 567 140 1170 -88 1731 -146 360 -417 727 -732 992
-114 96 -339 247 -470 315 -246 129 -530 221 -808 264 -179 27 -517 34 -682
14z m582 -290 c40 -8 111 -34 158 -57 68 -33 102 -58 167 -124 45 -46 94 -86
108 -90 33 -8 53 -47 36 -68 -7 -8 -37 -29 -66 -45 -109 -62 -164 -128 -184
-221 -15 -70 -7 -119 42 -260 83 -240 54 -358 -104 -416 -98 -37 -422 -29
-638 16 -170 35 -225 77 -303 235 -106 212 -126 426 -59 601 42 110 93 186
179 266 81 77 201 141 302 162 88 19 271 20 362 1z m-1343 -385 c23 -18 32
-19 55 -10 36 13 41 8 28 -28 -8 -24 -6 -35 10 -61 l20 -31 -39 0 c-32 0 -42
-5 -53 -25 -16 -30 -32 -28 -40 6 -3 15 -18 30 -38 38 -39 18 -40 24 -7 45 19
12 25 25 25 51 0 41 2 42 39 15z m2211 -15 c0 -26 6 -39 25 -51 33 -21 32 -30
-5 -43 -22 -7 -32 -18 -36 -41 -8 -36 -18 -38 -40 -6 -11 18 -26 26 -56 28
l-40 3 22 28 c20 25 21 31 10 58 -16 37 -11 42 29 28 29 -10 35 -9 54 10 30
29 37 27 37 -14z m-2568 -181 l41 -26 48 23 c27 12 51 21 53 18 2 -2 -1 -28
-6 -57 l-11 -53 38 -39 c42 -43 41 -45 -35 -54 -24 -2 -46 -8 -47 -13 -2 -4
-14 -26 -27 -47 l-24 -40 -26 52 c-23 46 -31 52 -65 58 -66 11 -71 20 -27 59
38 34 39 35 33 90 -3 32 -2 55 4 55 5 0 28 -12 51 -26z m2941 -29 c-6 -55 -5
-56 33 -90 32 -29 36 -36 24 -45 -8 -5 -25 -10 -38 -10 -39 0 -59 -18 -77 -65
-10 -25 -20 -45 -24 -45 -3 0 -19 23 -34 50 -28 49 -29 50 -76 50 -26 0 -50 3
-54 6 -3 4 9 23 28 43 37 38 41 56 25 110 -5 19 -7 37 -5 40 3 2 27 -6 54 -19
l49 -22 43 26 c24 14 47 26 51 26 4 0 4 -25 1 -55z m-3133 -353 c0 -31 5 -41
25 -52 33 -17 32 -23 -7 -41 -23 -10 -35 -23 -41 -49 l-9 -35 -27 34 c-22 27
-33 33 -55 29 -35 -7 -39 2 -17 36 15 23 17 33 8 57 -14 36 -8 41 30 27 26
-10 33 -9 54 10 32 31 39 28 39 -16z m3370 7 c32 11 44 3 29 -19 -13 -23 -11
-51 7 -71 22 -24 10 -40 -25 -33 -24 5 -32 1 -52 -27 l-23 -32 -11 34 c-8 23
-22 39 -43 48 -39 18 -40 24 -7 41 19 10 25 22 25 45 0 43 8 48 42 24 24 -17
34 -19 58 -10z m-2688 -414 c9 -44 20 -101 23 -126 l7 -46 -49 -24 c-151 -73
-254 -285 -255 -529 -1 -108 20 -240 42 -263 4 -5 11 27 15 70 20 215 107 415
238 543 77 77 159 118 249 127 78 7 74 12 82 -98 l7 -76 -42 -7 c-74 -12 -192
-81 -258 -152 -72 -76 -145 -216 -166 -319 -15 -72 -20 -202 -8 -244 6 -22 8
-23 78 -16 76 7 143 20 152 29 3 3 -8 17 -25 31 -54 45 -75 103 -71 198 4 70
10 94 41 159 64 134 154 202 268 203 76 0 107 -17 141 -81 l22 -41 -89 -103
c-117 -134 -123 -143 -126 -171 -2 -18 2 -25 19 -27 39 -6 86 26 179 117 108
107 198 231 266 365 53 105 80 137 113 133 18 -2 21 -12 26 -107 5 -92 10
-114 41 -182 69 -147 68 -220 -3 -326 -16 -24 -28 -47 -25 -49 3 -3 25 -2 49
1 l44 7 42 177 c24 97 51 210 62 251 20 76 19 86 -9 86 -13 0 -17 8 -15 34 1
18 6 37 13 41 6 4 63 13 127 19 96 11 117 10 124 -1 7 -10 14 -9 39 5 41 24
120 24 162 0 18 -10 44 -39 58 -64 22 -38 25 -56 25 -139 0 -86 -3 -101 -32
-162 -17 -37 -46 -88 -63 -113 -18 -26 -30 -49 -27 -52 5 -5 208 25 215 32 2
2 -6 17 -18 33 -61 83 -50 258 26 389 33 57 111 132 159 154 54 25 118 24 166
-3 l38 -21 18 21 c16 18 31 21 116 24 110 3 107 6 83 -78 -46 -163 -87 -326
-83 -331 3 -3 19 3 35 13 32 18 62 14 62 -9 0 -8 -16 -35 -36 -61 -20 -26 -34
-49 -32 -51 1 -2 29 2 61 7 32 6 60 9 61 7 5 -6 -16 -143 -23 -151 -3 -3 -71
-16 -151 -28 -80 -11 -217 -32 -305 -46 -88 -13 -216 -33 -285 -44 -69 -11
-188 -29 -265 -40 -77 -12 -150 -23 -162 -25 -18 -4 -25 -21 -47 -117 -15 -62
-30 -119 -35 -127 -6 -9 -35 -14 -102 -15 -108 -1 -104 -7 -68 107 20 64 25
117 10 117 -5 0 -40 -6 -78 -14 -118 -25 -486 -83 -823 -131 -179 -25 -365
-52 -415 -59 -49 -8 -93 -11 -97 -7 -8 7 4 137 13 145 3 3 54 12 114 21 61 9
123 19 139 24 l30 7 -35 24 c-116 82 -199 276 -199 467 0 181 52 384 136 527
73 125 205 251 254 243 10 -2 20 -28 32 -82z m-1248 -82 c46 -70 59 -120 59
-235 0 -60 2 -108 4 -108 1 0 12 20 24 45 25 52 84 117 129 140 40 21 129 35
136 23 12 -19 -77 -178 -132 -238 -54 -58 -140 -110 -182 -110 -29 0 -81 57
-110 120 -37 78 -36 192 3 313 15 48 31 87 36 87 5 0 20 -17 33 -37z m4287
-34 c60 -30 120 -95 156 -169 35 -73 66 -181 55 -192 -14 -14 -116 43 -165 90
-27 26 -64 75 -84 110 -19 34 -35 62 -36 62 -1 0 -2 -46 -2 -103 0 -85 -4
-109 -22 -142 -26 -48 -87 -110 -101 -101 -16 10 -35 174 -28 243 8 77 34 151
72 200 25 33 29 35 70 29 24 -3 62 -15 85 -27z m-4402 -461 c48 -65 79 -140
87 -216 7 -57 23 -106 24 -70 0 39 45 134 82 174 37 41 111 84 143 84 21 0 19
-27 -11 -122 -46 -146 -101 -226 -186 -272 -31 -17 -40 -18 -67 -7 -46 20
-105 90 -131 157 -19 48 -24 79 -24 164 -1 174 16 196 83 108z m4513 14 c57
-39 93 -93 123 -181 30 -89 45 -231 24 -231 -17 0 -89 56 -122 96 -32 38 -72
117 -87 174 l-13 45 -14 -74 c-20 -105 -55 -166 -122 -216 -54 -39 -61 -35
-61 43 0 143 38 257 111 337 40 43 47 47 80 42 21 -3 57 -18 81 -35z m22 -464
c74 -74 99 -140 100 -273 1 -55 -3 -117 -7 -138 l-8 -38 -29 21 c-62 44 -130
196 -130 292 0 47 -16 50 -25 6 -19 -86 -84 -171 -159 -207 -65 -32 -78 -29
-71 17 9 51 44 159 66 204 39 77 140 168 186 168 15 0 43 -19 77 -52z m-4593
-18 c26 -17 63 -54 83 -83 36 -53 85 -162 87 -194 0 -10 7 17 15 60 16 87 39
139 80 181 29 29 83 66 97 66 12 0 7 -141 -8 -213 -18 -85 -56 -156 -111 -207
l-43 -39 -41 14 c-23 8 -54 24 -69 34 -45 32 -102 124 -122 196 -21 75 -36
215 -24 215 5 0 30 -14 56 -30z m427 -461 c25 -140 0 -282 -63 -365 -21 -27
-33 -34 -61 -34 -52 0 -138 45 -182 95 -64 72 -148 273 -125 296 16 16 127
-48 176 -100 25 -27 60 -74 77 -105 18 -31 33 -56 33 -56 1 0 2 46 2 103 0 80
4 110 19 137 23 44 87 111 101 107 5 -2 16 -37 23 -78z m4084 44 c83 -85 103
-215 59 -379 -30 -110 -35 -116 -66 -79 -48 57 -68 130 -69 245 l-1 106 -33
-56 c-44 -72 -63 -92 -120 -122 -52 -28 -127 -44 -137 -28 -10 16 86 192 133
242 43 46 147 108 182 108 9 0 32 -17 52 -37z m-2489 -94 c36 -18 57 -52 57
-91 0 -31 -4 -38 -20 -38 -11 0 -23 0 -27 0 -5 -1 -10 14 -13 32 -4 29 -9 33
-35 33 l-30 0 -3 -125 c-2 -107 0 -127 14 -137 27 -20 54 1 54 42 0 32 2 35
30 35 29 0 30 -2 30 -46 0 -102 -108 -140 -172 -60 -15 17 -18 43 -18 153 0
142 7 170 48 196 32 19 55 21 85 6z m167 -164 l0 -165 50 0 c49 0 50 -1 50
-30 l0 -30 -80 0 -80 0 0 195 0 195 30 0 30 0 0 -165z m200 11 c0 -127 3 -157
16 -170 12 -12 20 -13 35 -6 18 10 19 23 19 170 l0 160 30 0 30 0 0 -169 c0
-154 -2 -171 -20 -194 -25 -32 -72 -43 -111 -27 -51 22 -59 51 -59 230 l0 160
30 0 30 0 0 -154z m351 125 c34 -34 39 -86 12 -131 -15 -26 -15 -30 0 -44 38
-39 33 -132 -10 -166 -22 -17 -38 -20 -97 -18 l-71 3 -3 180 c-1 98 0 185 2
192 4 9 27 13 71 13 60 0 69 -3 96 -29z m-2187 -283 c54 -122 70 -258 41 -354
-23 -79 -33 -87 -103 -87 -115 0 -223 78 -308 223 -57 97 -57 104 4 96 74 -10
150 -53 226 -129 38 -38 66 -62 63 -53 -43 112 -45 201 -6 279 20 40 47 77 56
77 2 0 14 -24 27 -52z m3797 -9 c68 -68 83 -209 36 -332 -26 -68 -86 -177 -97
-177 -19 0 -44 83 -48 161 -4 82 -1 102 35 224 3 11 -18 -7 -48 -39 -68 -75
-131 -106 -216 -106 -63 0 -82 10 -64 32 6 7 33 41 60 74 79 98 157 151 252
174 55 13 68 11 90 -11z m-2042 -194 c16 -16 24 -35 25 -61 1 -37 -1 -39 -29
-39 -27 0 -31 4 -35 35 -6 45 -36 53 -50 14 -6 -15 -9 -72 -8 -127 2 -82 6
-102 20 -111 24 -14 36 0 41 47 3 30 0 41 -14 50 -11 7 -19 22 -19 34 0 21 5
23 50 23 l50 0 0 -57 c0 -85 -15 -130 -50 -148 -41 -21 -64 -19 -99 11 l-31
26 0 137 c0 109 3 141 16 159 33 47 89 50 133 7z m-678 15 c23 -13 49 -61 49
-90 0 -12 -8 -35 -17 -51 -15 -26 -16 -30 -1 -46 30 -34 27 -115 -7 -148 -21
-22 -33 -25 -92 -25 l-69 0 3 178 c2 97 3 180 3 185 0 11 109 8 131 -3z m159
-139 c0 -155 6 -179 44 -165 14 5 16 27 16 160 l0 154 30 0 30 0 0 -164 0
-164 -31 -26 c-36 -31 -63 -33 -105 -7 -39 24 -44 47 -44 222 l0 139 30 0 30
0 0 -149z m232 -8 l3 -158 48 -3 c42 -3 47 -6 47 -27 0 -29 -4 -31 -90 -27
l-70 4 0 184 0 184 30 0 29 0 3 -157z m498 150 c0 -5 13 -87 30 -183 17 -106
25 -179 20 -184 -6 -6 -19 -5 -35 2 -20 9 -25 19 -25 47 0 35 -1 36 -32 33
-30 -3 -33 -6 -36 -39 -3 -37 -18 -49 -53 -42 -14 4 -13 22 13 176 16 95 31
178 33 185 5 13 85 18 85 5z m250 -3 c38 -21 52 -117 24 -175 -14 -30 -14 -39
4 -108 l19 -75 -23 -5 c-33 -6 -40 2 -54 65 -16 68 -23 83 -43 75 -11 -4 -13
-19 -10 -71 l5 -66 -30 0 c-38 0 -38 -2 -34 208 l3 162 60 0 c33 0 69 -4 79
-10z m151 -174 c-1 -99 -4 -182 -6 -186 -3 -4 -16 -5 -30 -2 l-26 4 2 177 c1
97 4 180 6 184 3 5 16 7 30 5 l25 -3 -1 -179z m222 5 c15 -95 26 -179 23 -186
-2 -7 -15 -11 -29 -8 -20 4 -26 13 -31 44 -6 35 -9 39 -34 39 -25 0 -29 -5
-38 -42 -8 -38 -12 -43 -34 -40 -14 2 -26 5 -27 6 -2 1 11 81 27 177 16 96 30
178 30 182 0 5 19 7 42 5 l43 -3 28 -174z m-2373 2 c86 -130 130 -264 116
-355 -11 -74 -21 -81 -119 -86 -80 -4 -90 -2 -153 27 -50 23 -89 53 -151 116
-52 52 -82 89 -77 96 5 8 30 10 84 6 85 -5 153 -30 227 -83 27 -19 51 -34 55
-34 4 0 -9 30 -30 68 -34 61 -37 73 -36 142 0 73 23 150 43 150 5 0 23 -21 41
-47z m3332 -32 c56 -21 71 -185 26 -281 -39 -87 -167 -235 -185 -216 -13 13
-15 121 -3 175 6 31 29 89 51 129 21 39 36 72 34 72 -3 0 -27 -16 -54 -35 -61
-44 -120 -65 -184 -65 -52 0 -127 18 -127 31 0 11 88 82 150 121 56 34 119 64
155 71 37 8 114 7 137 -2z m-3005 -303 c117 -114 173 -216 173 -313 0 -38 -3
-43 -42 -66 -38 -21 -55 -24 -144 -24 -98 0 -103 1 -185 42 -91 45 -169 100
-169 119 0 19 107 37 173 30 50 -5 144 -32 212 -61 11 -5 -2 15 -31 47 -60 67
-86 116 -92 180 -5 56 5 118 20 118 6 0 44 -33 85 -72z m2660 -23 c44 -13 51
-19 57 -46 17 -88 -2 -160 -65 -245 -36 -50 -141 -135 -207 -168 -43 -22 -49
-8 -27 75 20 80 54 139 122 210 56 59 68 81 31 57 -78 -50 -224 -63 -308 -27
-27 11 -51 27 -54 34 -5 15 126 79 219 106 75 22 166 24 232 4z m-2314 -176
c141 -71 250 -169 294 -265 l25 -55 -23 -25 c-13 -13 -48 -37 -78 -52 -51 -24
-66 -27 -166 -27 -95 0 -122 4 -195 29 -87 29 -140 53 -140 62 0 3 26 17 58
32 47 22 74 27 162 30 58 2 129 0 158 -6 51 -9 74 0 28 12 -34 8 -121 80 -156
127 -39 54 -62 169 -34 169 2 0 33 -14 67 -31z m1903 -75 l59 -30 -1 -52 c-4
-126 -137 -246 -348 -311 -87 -27 -90 -27 -81 6 19 77 122 186 241 253 30 18
54 34 52 36 -2 2 -22 -2 -44 -8 -21 -6 -76 -11 -121 -11 -72 0 -91 4 -146 31
-62 31 -106 67 -95 78 3 3 46 14 94 24 65 14 122 19 210 17 113 -2 124 -4 180
-33z m-1248 -128 c34 -15 75 -34 90 -44 40 -24 107 -86 128 -116 15 -24 15
-28 0 -51 -25 -39 -104 -92 -171 -116 -76 -27 -234 -36 -345 -20 -105 16 -114
19 -99 38 18 21 91 62 150 83 55 20 166 39 259 43 l55 2 -72 17 c-135 32 -237
102 -272 185 -25 62 -14 65 107 33 60 -16 137 -40 170 -54z m607 39 c78 -20
157 -60 191 -96 l27 -28 -17 -45 c-30 -79 -131 -154 -256 -189 -105 -30 -310
-49 -310 -29 0 14 66 79 114 112 50 34 166 82 241 101 55 13 91 35 40 25 -44
-9 -173 10 -240 35 -58 22 -155 102 -155 129 0 18 283 7 365 -15z"/>
<path d="M2845 5021 c-162 -20 -304 -106 -404 -244 -64 -87 -91 -167 -98 -284
-6 -105 6 -185 43 -285 48 -129 74 -150 219 -187 137 -35 272 -51 440 -51 165
0 270 15 286 41 12 20 2 68 -45 204 -37 110 -41 128 -41 225 0 94 3 111 28
164 18 38 49 80 92 121 36 34 65 67 65 73 0 6 -25 36 -55 66 -58 59 -179 124
-265 144 -65 15 -196 22 -265 13z m35 -354 l45 -92 105 -16 c58 -9 107 -17
110 -18 2 0 -31 -37 -74 -80 l-78 -79 17 -101 c10 -56 16 -104 13 -106 -3 -3
-43 15 -89 40 -46 24 -92 45 -102 45 -11 0 -57 -21 -104 -46 -46 -25 -86 -44
-88 -42 -3 2 2 42 10 89 23 127 24 122 -62 205 -43 41 -76 74 -73 75 3 1 52 9
110 18 l105 16 45 92 c25 51 50 92 55 93 6 0 30 -42 55 -93z"/>
<path d="M3870 3299 c-41 -58 -71 -143 -77 -219 -5 -55 -2 -69 15 -90 l20 -25
35 37 c70 74 109 238 75 313 -16 35 -33 31 -68 -16z"/>
<path d="M3232 3194 c-59 -72 -95 -259 -58 -309 13 -18 14 -17 40 8 73 73 117
269 73 325 -15 19 -23 15 -55 -24z"/>
<path d="M2581 2994 c-25 -42 -25 -44 -7 -44 12 0 12 -6 -1 -39 -14 -37 -14
-42 3 -78 33 -66 90 -49 86 25 -3 42 -39 159 -52 167 -4 3 -17 -11 -29 -31z"/>
<path d="M2203 3010 c-33 -13 -60 -76 -54 -124 1 -9 100 115 101 127 0 9 -19
8 -47 -3z"/>
<path d="M3884 2909 l-29 -31 35 7 c73 14 74 14 54 36 -22 25 -25 24 -60 -12z"/>
<path d="M2427 2797 c-8 -13 -45 -52 -81 -87 -36 -35 -64 -66 -62 -68 5 -4
238 28 249 35 4 2 -8 22 -27 43 -18 21 -37 52 -41 69 -8 37 -17 39 -38 8z"/>
<path d="M3110 2790 c0 -15 7 -20 27 -20 25 0 26 0 8 20 -10 11 -22 20 -27 20
-4 0 -8 -9 -8 -20z"/>
<path d="M3130 2070 c0 -41 3 -50 18 -50 27 0 42 20 42 56 0 31 -13 44 -46 44
-10 0 -14 -14 -14 -50z"/>
<path d="M3130 1906 c0 -53 1 -56 25 -56 57 0 59 102 2 108 -27 3 -27 2 -27
-52z"/>
<path d="M2049 1628 c-7 -13 -4 -80 2 -84 32 -19 67 32 48 68 -8 14 -45 26
-50 16z"/>
<path d="M2045 1429 c2 -28 6 -53 7 -55 2 -2 14 -1 26 3 25 6 37 41 28 78 -5
20 -13 25 -35 25 -29 0 -30 0 -26 -51z"/>
<path d="M2960 1550 c0 -8 -3 -32 -6 -52 -5 -31 -4 -38 10 -38 12 0 16 9 16
38 0 36 -19 87 -20 52z"/>
<path d="M3179 1626 c-6 -6 -3 -106 4 -112 2 -2 16 0 31 6 25 9 27 14 24 57
-3 43 -6 48 -28 51 -14 2 -28 1 -31 -2z"/>
<path d="M3557 1560 c-3 -8 -8 -34 -10 -57 -4 -37 -3 -43 14 -43 21 0 22 12
10 75 -5 24 -10 34 -14 25z"/>
</g>
</svg>
