<?xml version="1.0" standalone="no"?>
<!DOCTYPE svg PUBLIC "-//W3C//DTD SVG 20010904//EN"
 "http://www.w3.org/TR/2001/REC-SVG-20010904/DTD/svg10.dtd">
<svg version="1.0" xmlns="http://www.w3.org/2000/svg"
 width="500.000000pt" height="583.000000pt" viewBox="0 0 500.000000 583.000000"
 preserveAspectRatio="xMidYMid meet">

<g transform="translate(0.000000,583.000000) scale(0.100000,-0.100000)"
fill="#000000" stroke="none">
<path d="M2976 4579 c-27 -21 -61 -77 -52 -86 2 -3 12 9 21 26 20 40 35 39 35
-1 0 -37 17 -105 28 -112 4 -2 7 28 7 67 0 59 3 72 17 75 10 2 19 -6 23 -19
11 -32 7 -127 -5 -150 -15 -28 -62 -24 -101 8 -29 25 -31 25 -18 4 17 -28 82
-63 103 -55 34 13 51 57 51 136 0 67 -3 79 -24 102 -30 31 -50 33 -85 5z"/>
<path d="M2751 4446 c-13 -13 -34 -27 -47 -30 -23 -6 -33 -30 -15 -40 4 -3 22
0 40 7 21 8 31 18 31 32 0 12 5 26 12 33 6 6 9 14 7 17 -3 3 -16 -6 -28 -19z"/>
<path d="M2881 4390 c0 -8 4 -24 8 -35 5 -13 0 -30 -16 -53 -12 -19 -23 -44
-23 -54 0 -11 25 -59 56 -106 31 -47 60 -97 66 -111 6 -15 12 -21 15 -14 3 7
-10 39 -28 70 -90 163 -86 151 -68 169 28 27 54 9 84 -58 42 -94 83 -212 78
-225 -6 -15 -33 -17 -33 -3 0 29 -18 2 -38 -57 -58 -167 -179 -341 -247 -357
-65 -14 -271 -18 -341 -7 -88 15 -127 38 -156 93 -31 59 -31 171 0 242 30 67
21 70 -12 5 -23 -46 -26 -66 -26 -148 0 -82 3 -100 25 -137 36 -61 83 -80 230
-93 231 -21 280 -37 241 -80 -25 -27 -84 -41 -182 -42 -49 -1 -127 -4 -174 -8
l-85 -8 96 -1 c53 -1 184 1 291 5 l195 6 6 72 c18 210 129 371 295 426 34 11
62 25 62 30 0 5 -15 15 -32 23 -18 7 -43 25 -56 38 -24 27 -75 141 -112 251
-16 51 -28 71 -47 80 -13 6 -35 31 -48 56 -13 26 -24 39 -24 31z"/>
<path d="M2780 4380 c-12 -8 -9 -10 11 -10 16 0 33 -9 42 -22 13 -19 16 -20
16 -6 1 19 -25 48 -42 48 -7 0 -19 -5 -27 -10z"/>
<path d="M2777 4344 c-15 -15 -7 -45 11 -42 9 2 17 12 17 22 0 20 -16 31 -28
20z"/>
<path d="M1543 4224 c-39 -9 -53 -42 -53 -124 0 -103 14 -146 53 -170 59 -36
134 -22 186 34 42 44 105 56 361 67 129 6 249 14 265 18 42 9 46 51 10 87 -26
26 -28 27 -123 20 -54 -3 -149 -9 -212 -12 l-115 -6 -115 42 c-111 40 -203 55
-257 44z m273 -65 l119 -41 177 -1 c127 -2 181 -6 189 -14 28 -28 -9 -34 -237
-39 -310 -6 -325 -8 -376 -50 -111 -94 -165 -83 -175 34 -6 69 9 125 40 148
33 23 123 11 263 -37z"/>
<path d="M1674 3872 c-102 -30 -176 -83 -274 -195 -23 -27 -21 -26 30 8 112
75 280 135 380 135 160 0 272 -62 315 -175 26 -66 8 -100 -73 -143 -119 -63
-198 -71 -480 -47 -46 4 -50 3 -22 -4 19 -5 56 -12 82 -16 40 -5 49 -10 54
-31 9 -35 -19 -72 -61 -80 -44 -8 -77 12 -104 64 -24 45 -28 24 -4 -25 21 -46
67 -73 121 -73 75 0 152 55 152 110 0 15 7 20 25 20 30 0 32 -19 6 -76 -54
-119 -229 -173 -326 -100 -38 30 -60 65 -75 123 -9 36 -9 36 -5 -14 5 -67 34
-122 86 -167 88 -75 230 -60 346 38 37 31 82 114 91 167 7 41 8 42 83 68 144
51 184 107 159 227 -14 69 -68 132 -145 172 -45 23 -63 26 -175 29 -98 2 -138
-1 -186 -15z"/>
<path d="M1439 3851 c-91 -57 -134 -138 -144 -266 l-5 -60 15 63 c20 88 70
177 133 240 29 28 51 52 49 52 -2 0 -23 -13 -48 -29z"/>
<path d="M3190 3837 c-26 -7 -62 -23 -82 -35 -47 -29 -121 -110 -147 -160 -30
-59 -26 -65 8 -11 41 65 95 115 157 145 97 48 258 33 395 -36 125 -64 73 -114
-135 -129 -130 -10 -153 -19 -271 -111 -44 -35 -98 -71 -120 -82 -34 -17 -36
-18 -10 -13 17 4 69 29 117 56 48 27 91 49 96 49 5 0 32 -7 60 -15 39 -12 56
-23 67 -45 23 -44 19 -78 -14 -110 -52 -53 -112 -52 -162 3 -33 36 -39 29 -9
-13 62 -88 200 -66 256 41 18 35 18 106 -1 139 -19 34 -18 40 5 40 20 0 51
-49 64 -102 17 -72 -53 -189 -132 -221 -143 -57 -257 -3 -291 140 l-9 38 -1
-41 c-1 -53 49 -156 93 -189 18 -14 47 -28 65 -31 17 -4 33 -9 35 -13 2 -3
-467 -5 -1042 -4 -576 2 -1061 0 -1078 -2 -28 -5 -44 -26 -165 -219 -74 -118
-135 -213 -137 -211 -2 1 11 44 29 94 23 66 36 91 48 91 28 0 41 21 41 66 0
79 19 74 -276 74 -204 0 -264 -3 -265 -12 0 -7 -2 -31 -4 -53 -3 -48 8 -72 35
-77 18 -2 31 -35 85 -196 35 -106 69 -200 75 -208 16 -18 133 -20 147 -1 6 6
20 44 33 82 12 39 26 74 31 79 5 6 44 -24 96 -75 71 -68 483 -454 760 -712
l52 -49 538 32 c296 17 760 44 1032 60 271 15 497 32 502 37 5 5 87 126 182
269 l173 259 45 3 c88 5 89 5 89 72 0 44 -4 61 -17 68 -15 9 -14 12 5 39 l21
30 -22 21 c-21 21 -21 22 -2 22 22 0 60 -56 44 -65 -11 -8 -12 -172 0 -179 5
-3 60 -6 124 -7 122 -1 152 7 193 53 42 45 47 109 14 163 -13 21 -16 35 -10
45 15 23 12 136 -3 149 -12 9 -78 13 -202 11 -16 0 -42 -7 -59 -15 -36 -18
-36 -18 -36 -1 0 21 -34 29 -74 18 -19 -6 -65 -8 -103 -5 l-68 6 -120 124
-120 124 -263 -3 c-144 -2 -262 -2 -262 -1 0 1 19 7 43 14 101 27 196 113 222
202 24 79 19 128 -19 218 -6 13 1 20 28 29 80 26 107 78 70 135 -23 35 -101
82 -164 98 -83 22 -227 29 -280 14z m-16 -843 c9 -8 16 -28 16 -43 0 -59 -56
-86 -96 -46 -29 29 -31 58 -4 85 24 24 63 26 84 4z m-2544 -44 c0 -36 -2 -40
-25 -40 -14 0 -25 -3 -25 -7 0 -17 65 -263 70 -263 3 0 17 51 33 113 15 61 30
122 33 135 5 19 2 22 -20 22 -24 0 -26 4 -26 40 l0 40 110 0 110 0 0 -39 c0
-35 -3 -40 -27 -43 -25 -3 -30 -14 -97 -210 l-71 -208 -52 0 -51 0 -69 208
c-60 179 -73 207 -91 210 -18 3 -22 10 -22 43 l0 39 110 0 110 0 0 -40z m2280
25 c38 -20 60 -63 60 -119 0 -58 -17 -94 -53 -112 -15 -8 -27 -19 -25 -23 2
-4 19 -37 38 -73 34 -65 35 -66 82 -72 27 -4 52 -5 56 -2 4 2 7 46 7 98 -1 88
-2 93 -23 96 -18 3 -22 10 -22 43 l0 39 75 0 74 0 3 -137 c3 -135 4 -138 26
-141 18 -3 22 -10 22 -43 l0 -39 -175 0 -175 0 -55 111 c-48 95 -59 110 -78
107 -12 -2 -21 -6 -19 -10 1 -5 2 -33 2 -63 0 -52 1 -55 25 -55 23 0 25 -4 25
-45 l0 -46 -117 3 -118 3 0 40 c0 36 3 40 28 43 l27 3 0 165 0 164 -30 0 c-28
0 -30 2 -30 40 l0 40 170 0 c133 0 177 -3 200 -15z m679 -192 c-2 -205 -1
-208 20 -211 17 -3 21 -10 21 -43 l0 -39 -75 0 c-69 0 -75 2 -75 20 0 20 0 20
-29 -1 -38 -28 -103 -29 -139 -2 -100 73 -92 272 14 328 44 23 88 19 123 -11
l31 -26 0 56 c0 53 -1 56 -25 56 -22 0 -25 4 -25 40 l0 40 81 0 80 0 -2 -207z
m-2913 71 c-4 -15 -10 -39 -13 -55 -8 -41 -17 -36 -31 16 -17 63 -16 65 19 65
29 0 31 -2 25 -26z m485 -27 c42 -27 79 -98 79 -150 l0 -39 -120 3 c-130 4
-136 2 -99 -45 26 -33 86 -37 113 -7 15 16 23 18 54 9 53 -15 54 -16 32 -48
-26 -37 -96 -70 -146 -70 -54 1 -116 31 -145 71 -21 29 -24 46 -24 114 0 68 3
85 24 113 36 51 77 72 142 72 42 0 65 -6 90 -23z m287 11 c10 -10 14 -10 21 0
5 8 22 12 42 10 33 -3 34 -4 37 -55 l3 -53 -40 0 c-28 0 -48 7 -61 20 -24 24
-72 26 -90 5 -19 -22 -5 -30 82 -49 62 -14 82 -23 103 -47 42 -51 30 -124 -27
-159 -36 -22 -116 -27 -149 -10 -13 7 -19 7 -19 0 0 -5 -18 -10 -40 -10 l-40
0 0 65 0 65 40 0 c22 0 40 -4 40 -10 0 -18 40 -50 63 -50 31 0 67 27 61 45 -3
8 -22 17 -42 21 -123 21 -172 53 -172 114 0 41 29 86 64 100 32 13 110 12 124
-2z m279 -7 c5 -20 5 -20 26 0 14 13 35 19 68 19 84 0 139 -69 139 -176 0
-136 -100 -221 -195 -166 l-35 21 0 -49 c0 -45 2 -50 23 -50 20 0 22 -4 19
-40 l-4 -40 -99 0 -99 0 0 40 c0 36 2 40 25 40 l25 0 -2 168 c-3 165 -3 167
-25 170 -19 3 -23 10 -23 43 l0 39 76 0 c67 0 76 -2 81 -19z m509 4 c48 -20
64 -62 64 -175 0 -83 1 -90 20 -90 17 0 20 -7 20 -40 l0 -41 -72 3 c-52 2 -72
7 -71 16 4 15 -6 15 -37 -3 -14 -8 -45 -14 -68 -15 -37 0 -50 6 -78 34 -38 38
-44 77 -19 126 24 45 67 63 141 57 59 -4 61 -4 56 17 -12 52 -66 73 -103 40
-13 -12 -28 -14 -58 -9 -23 4 -41 10 -41 15 0 15 35 49 65 65 38 19 135 19
181 0z m1674 -7 c38 -27 65 -75 74 -135 6 -39 4 -42 -22 -47 -15 -3 -69 -5
-119 -4 -51 0 -93 -2 -93 -5 0 -4 0 -11 0 -17 0 -5 9 -19 20 -30 26 -26 77
-26 104 -1 19 17 26 18 64 8 23 -6 42 -16 42 -22 0 -21 -65 -73 -107 -85 -117
-35 -233 49 -233 167 0 60 18 110 52 144 40 40 61 48 129 48 42 1 64 -4 89
-21z m235 -10 c-1 -16 1 -28 3 -28 2 0 15 14 29 30 18 23 33 30 59 30 l34 0 0
-55 c0 -55 0 -55 -30 -55 -46 0 -75 -35 -83 -99 -8 -64 -5 -71 34 -71 27 0 29
-2 29 -40 l0 -40 -110 0 -110 0 0 39 c0 33 4 40 23 43 21 3 22 8 25 96 l3 92
-26 0 c-23 0 -25 3 -25 45 l0 46 73 -3 c71 -3 72 -3 72 -30z m327 21 c15 -8
22 -8 28 1 4 6 22 10 41 8 33 -3 34 -4 37 -55 l3 -53 -40 0 c-28 0 -48 7 -61
20 -21 21 -65 26 -89 11 -27 -18 -3 -38 60 -50 75 -15 112 -33 133 -63 33 -46
10 -125 -44 -153 -33 -17 -96 -20 -134 -5 -17 6 -26 6 -26 0 0 -6 -18 -10 -40
-10 l-40 0 0 65 0 65 40 0 c22 0 40 -4 40 -10 0 -18 40 -50 63 -50 31 0 67 27
61 45 -3 8 -22 17 -42 20 -118 18 -172 54 -172 115 0 41 29 86 64 100 30 12
94 12 118 -1z m-2742 -631 c0 -31 -15 -36 -39 -14 -30 26 -57 27 -84 5 -34
-26 -37 -79 -7 -109 27 -27 56 -25 86 5 28 28 44 32 44 11 0 -41 -93 -71 -142
-45 -31 17 -49 70 -37 112 14 53 42 68 116 65 61 -3 63 -4 63 -30z m105 22 c3
-6 -1 -13 -9 -16 -12 -5 -16 -22 -16 -75 l0 -69 30 0 c28 0 30 3 30 35 0 24 5
35 15 35 11 0 15 -12 15 -45 l0 -45 -70 0 c-40 0 -70 4 -70 10 0 6 5 10 10 10
6 0 10 30 10 69 0 53 -4 70 -16 75 -25 10 -6 26 31 26 19 0 37 -5 40 -10z
m145 -5 c0 -8 -4 -15 -10 -15 -14 0 -12 -114 2 -128 18 -18 46 -14 58 7 16 32
13 118 -6 125 -25 10 -6 26 32 26 24 0 34 -5 34 -15 0 -8 -4 -15 -10 -15 -5 0
-10 -25 -10 -56 0 -64 -12 -91 -46 -104 -26 -10 -73 2 -86 23 -4 7 -8 40 -8
75 0 34 -4 62 -10 62 -5 0 -10 7 -10 15 0 10 11 15 35 15 24 0 35 -5 35 -15z
m242 -2 c20 -18 23 -44 8 -59 -8 -8 -6 -15 5 -24 20 -16 19 -49 -2 -72 -12
-13 -31 -18 -75 -18 -32 0 -58 4 -58 10 0 6 7 10 15 10 22 0 22 135 -1 144
-28 11 -3 26 43 26 29 0 53 -6 65 -17z m248 -15 c0 -33 -4 -34 -30 -8 -22 22
-29 24 -49 11 -20 -13 -7 -37 26 -45 40 -10 63 -35 63 -66 0 -38 -19 -50 -78
-49 l-52 2 0 33 c0 24 5 34 15 34 8 0 15 -7 15 -15 0 -18 37 -38 56 -31 26 10
12 48 -21 59 -61 20 -80 54 -48 89 11 13 29 18 60 16 40 -1 43 -3 43 -30z
m110 17 c0 -8 -4 -15 -10 -15 -6 0 -10 -30 -10 -70 0 -68 1 -70 24 -70 20 0
25 6 28 32 5 52 28 47 28 -6 l0 -46 -70 0 c-65 0 -90 10 -55 24 22 8 21 131
-1 140 -25 10 -6 26 32 26 24 0 34 -5 34 -15z m251 -14 c38 -39 39 -87 3 -130
-21 -26 -33 -31 -68 -31 -52 0 -81 20 -96 66 -33 98 87 169 161 95z m102 22
c4 -3 2 -12 -4 -19 -7 -9 -5 -27 8 -63 10 -28 20 -51 23 -51 3 0 15 25 26 54
18 46 19 56 7 60 -24 10 -4 26 33 26 24 0 34 -5 34 -15 0 -8 -6 -15 -13 -15
-7 0 -26 -36 -42 -80 -19 -53 -34 -80 -45 -80 -10 0 -25 28 -45 80 -16 44 -36
80 -42 80 -7 0 -13 7 -13 15 0 10 10 15 33 15 19 0 37 -3 40 -7z m262 -3 c3
-5 -1 -10 -10 -10 -12 0 -15 -5 -10 -17 4 -10 16 -43 27 -73 12 -30 25 -56 29
-58 22 -9 6 -22 -26 -22 -33 0 -48 14 -24 22 7 2 9 13 4 27 -5 18 -13 22 -37
19 -33 -3 -63 -37 -40 -45 26 -10 10 -23 -28 -23 -22 0 -40 5 -40 10 0 6 6 10
13 10 15 0 68 138 56 146 -5 3 -9 9 -9 15 0 12 87 12 95 -1z m135 -5 c0 -8 -6
-15 -12 -15 -7 0 -13 -11 -13 -25 0 -32 6 -31 36 1 16 19 20 28 11 31 -23 8
-1 23 34 23 37 0 49 -24 16 -32 -10 -3 -28 -19 -40 -35 l-21 -29 40 -43 c21
-24 39 -45 39 -47 0 -2 -18 -4 -40 -4 -38 0 -54 14 -28 22 8 3 4 15 -12 36
-14 17 -28 31 -32 31 -11 1 0 -63 12 -67 25 -9 7 -22 -30 -22 -40 0 -53 13
-25 24 11 4 15 22 15 71 0 51 -3 65 -15 65 -8 0 -15 7 -15 15 0 11 11 15 40
15 29 0 40 -4 40 -15z m180 0 c0 -8 -4 -15 -10 -15 -6 0 -10 -30 -10 -70 0
-40 4 -70 10 -70 6 0 10 -4 10 -10 0 -5 -16 -10 -35 -10 -19 0 -35 5 -35 10 0
6 5 10 10 10 6 0 10 30 10 70 0 40 -4 70 -10 70 -5 0 -10 7 -10 15 0 10 11 15
35 15 24 0 35 -5 35 -15z m160 6 c0 -5 -5 -11 -12 -13 -14 -5 27 -126 48 -144
23 -18 16 -24 -26 -24 -40 0 -53 13 -25 24 13 5 14 10 5 26 -16 30 -74 24 -78
-7 -2 -13 1 -23 7 -23 6 0 11 -4 11 -10 0 -5 -18 -10 -40 -10 -42 0 -49 6 -26
24 21 18 62 139 48 144 -29 9 -8 22 38 22 28 0 50 -4 50 -9z"/>
<path d="M2730 2860 c0 -27 0 -53 0 -57 0 -5 16 -9 36 -11 44 -4 74 20 74 59
0 39 -24 59 -71 59 l-39 0 0 -50z"/>
<path d="M3370 2738 c-22 -24 -28 -95 -10 -128 26 -48 80 -48 105 0 47 91 -31
196 -95 128z"/>
<path d="M1016 2748 c-9 -12 -16 -26 -16 -30 0 -5 29 -8 65 -8 36 0 65 3 65 8
0 25 -34 52 -65 52 -24 0 -39 -7 -49 -22z"/>
<path d="M1763 2755 c-13 -9 -28 -33 -34 -54 -16 -53 12 -114 54 -119 36 -4
54 11 67 57 16 62 -14 131 -57 131 -5 0 -18 -7 -30 -15z"/>
<path d="M2100 2636 c-16 -20 -9 -56 13 -70 21 -14 70 10 75 38 7 36 -63 62
-88 32z"/>
<path d="M3767 2752 c-31 -34 -21 -42 48 -42 l66 0 -16 30 c-13 24 -22 30 -49
30 -19 0 -40 -8 -49 -18z"/>
<path d="M2160 2185 c0 -22 4 -26 23 -23 14 2 22 10 22 23 0 13 -8 21 -22 23
-19 3 -23 -1 -23 -23z"/>
<path d="M2160 2104 c0 -31 3 -35 21 -32 12 2 27 11 33 21 9 15 7 21 -8 33
-33 24 -46 17 -46 -22z"/>
<path d="M2735 2208 c-28 -16 -35 -28 -35 -65 0 -38 29 -73 60 -73 29 0 70 44
70 73 0 49 -56 87 -95 65z"/>
<path d="M3138 2194 c-3 -11 -9 -27 -13 -36 -6 -15 -2 -18 20 -18 23 0 25 3
19 23 -12 42 -21 51 -26 31z"/>
<path d="M3610 2198 c0 -7 -3 -23 -6 -35 -5 -19 -2 -23 16 -23 18 0 21 4 16
23 -3 12 -6 28 -6 35 0 6 -4 12 -10 12 -5 0 -10 -6 -10 -12z"/>
<path d="M3209 3750 c-35 -9 -109 -47 -109 -56 0 -3 19 5 43 17 57 29 155 35
227 14 88 -26 113 -30 108 -15 -11 34 -190 60 -269 40z"/>
<path d="M1226 3724 c-15 -39 5 -74 43 -74 17 0 26 71 10 81 -22 14 -46 11
-53 -7z"/>
<path d="M1675 3710 c-8 -13 105 -13 125 0 11 7 -5 10 -52 10 -37 0 -70 -4
-73 -10z"/>
<path d="M1645 3660 c-13 -5 27 -8 105 -8 78 0 114 3 95 8 -41 10 -176 10
-200 0z"/>
<path d="M1630 3600 c-33 -10 194 -10 235 0 19 5 -15 8 -90 8 -66 0 -131 -4
-145 -8z"/>
<path d="M1685 3540 c-13 -6 11 -8 70 -8 74 0 83 2 50 9 -51 10 -95 10 -120
-1z"/>
<path d="M2927 3399 c7 -7 15 -10 18 -7 3 3 -2 9 -12 12 -14 6 -15 5 -6 -5z"/>
<path d="M911 2382 c63 -65 242 -254 399 -420 281 -298 286 -302 325 -302 22
0 173 9 335 20 162 11 606 40 985 65 380 24 724 47 765 51 l75 6 64 92 c65 91
342 475 383 531 13 16 18 26 13 23 -6 -3 -116 -134 -245 -291 l-235 -285 -55
-6 c-30 -3 -506 -35 -1058 -71 l-1002 -66 -34 28 c-50 42 -650 587 -738 670
-42 40 -80 73 -84 73 -4 0 44 -53 107 -118z"/>
</g>
</svg>
