<?xml version="1.0" standalone="no"?>
<!DOCTYPE svg PUBLIC "-//W3C//DTD SVG 20010904//EN"
 "http://www.w3.org/TR/2001/REC-SVG-20010904/DTD/svg10.dtd">
<svg version="1.0" xmlns="http://www.w3.org/2000/svg"
 width="512.000000pt" height="512.000000pt" viewBox="0 0 512.000000 512.000000"
 preserveAspectRatio="xMidYMid meet">

<g transform="translate(0.000000,512.000000) scale(0.100000,-0.100000)"
fill="#000000" stroke="none">
<path d="M644 3262 c-56 -41 -122 -118 -154 -182 -44 -88 -60 -155 -60 -256 0
-226 114 -475 315 -692 43 -46 75 -85 72 -89 -4 -3 -56 -16 -117 -28 -61 -12
-112 -24 -113 -26 -2 -2 -12 -24 -23 -49 -10 -24 -30 -57 -43 -73 -13 -15 -21
-30 -18 -33 3 -3 135 20 294 51 824 160 995 193 1433 280 261 51 491 95 510
97 l35 3 -3 -43 -4 -43 44 7 c23 4 65 12 93 18 l50 11 10 55 10 55 245 48
c135 26 436 86 670 132 234 47 508 100 609 119 101 19 186 37 188 40 3 3 -6
20 -20 38 -23 28 -31 32 -65 29 -30 -2 -52 5 -91 29 -47 30 -52 30 -73 16 -32
-23 -71 -20 -96 7 -26 27 -27 58 -7 142 22 91 28 85 -91 85 -97 0 -106 -2
-111 -20 -7 -25 -14 -25 -66 2 -61 33 -203 33 -264 0 -58 -31 -111 -79 -144
-131 -21 -32 -52 -58 -116 -97 l-87 -53 -24 42 c-31 56 -69 94 -117 120 -57
30 -197 29 -274 -2 -84 -34 -170 -99 -179 -134 -6 -24 -35 -49 -142 -124 -131
-92 -135 -94 -143 -71 -41 106 -100 188 -148 203 -14 5 -83 -50 -276 -218
-142 -123 -268 -229 -280 -235 -26 -14 -116 -16 -111 -3 2 5 48 49 103 97 55
48 101 90 103 95 5 12 -34 82 -60 106 -74 69 -206 86 -303 38 -60 -29 -122
-96 -144 -156 -7 -19 -16 -40 -20 -48 -6 -12 -425 -291 -437 -291 -11 0 -2 95
16 153 51 164 204 301 352 314 32 3 58 10 58 15 0 5 -17 35 -38 66 -21 31 -51
78 -66 104 -25 44 -29 46 -57 38 -56 -16 -148 -81 -209 -147 -99 -108 -165
-268 -185 -446 l-7 -59 -23 32 c-44 60 -95 177 -120 275 -50 197 -24 339 91
487 24 31 44 59 44 63 0 3 -22 34 -49 67 -28 34 -65 92 -82 130 -18 37 -36 68
-40 68 -3 0 -24 -13 -45 -28z m3289 -432 c49 -39 44 -110 -9 -131 -37 -13 -90
14 -103 53 -14 41 -14 41 10 72 25 32 66 34 102 6z m-746 -123 c13 -13 26 -39
29 -59 12 -71 -70 -114 -129 -68 -50 40 -56 121 -10 149 26 17 83 5 110 -22z
m446 -26 c4 -16 20 -45 37 -65 l31 -35 -23 -6 c-78 -20 -298 -62 -296 -56 2 3
9 17 17 31 10 20 201 157 222 159 4 1 9 -12 12 -28z m525 7 c18 -18 15 -25
-14 -32 -33 -9 -39 -3 -24 23 12 24 21 26 38 9z m-1332 -145 c-2 -16 -8 -49
-11 -75 -3 -26 -11 -51 -17 -54 -14 -9 -232 -54 -236 -49 -2 2 2 15 10 29 11
21 228 173 251 175 5 1 6 -11 3 -26z m-536 -69 c14 -36 -6 -75 -48 -94 -31
-13 -33 -18 -29 -47 6 -37 16 -33 -122 -58 -46 -8 -86 -14 -88 -12 -4 5 259
236 270 236 4 1 12 -11 17 -25z m776 -16 c-6 -4 -23 -8 -38 -8 -21 0 -28 5
-28 18 0 29 9 32 45 14 20 -11 28 -20 21 -24z m-1301 -19 c6 -6 6 -12 0 -17
-97 -83 -122 -101 -133 -90 -19 19 -14 54 13 87 33 39 89 48 120 20z m-257
-197 l59 -59 -206 -40 c-113 -23 -207 -40 -209 -38 -3 3 280 193 291 194 4 1
33 -25 65 -57z"/>
</g>
</svg>
