<?xml version="1.0" standalone="no"?>
<!DOCTYPE svg PUBLIC "-//W3C//DTD SVG 20010904//EN"
 "http://www.w3.org/TR/2001/REC-SVG-20010904/DTD/svg10.dtd">
<svg version="1.0" xmlns="http://www.w3.org/2000/svg"
 width="564.000000pt" height="564.000000pt" viewBox="0 0 564.000000 564.000000"
 preserveAspectRatio="xMidYMid meet">

<g transform="translate(0.000000,564.000000) scale(0.100000,-0.100000)"
fill="#000000" stroke="none">
<path d="M2580 5023 c-225 -28 -410 -155 -500 -340 -31 -66 -60 -181 -60 -244
l0 -42 63 6 c91 8 218 56 432 161 261 129 341 150 412 106 50 -30 58 -54 56
-161 -2 -151 -30 -200 -192 -337 -169 -143 -363 -263 -555 -342 -50 -20 -94
-44 -100 -52 -7 -12 0 -29 29 -69 137 -189 198 -215 327 -140 129 76 505 355
679 506 99 86 123 126 138 230 49 334 -56 539 -334 654 -115 48 -294 77 -395
64z"/>
<path d="M2810 4660 c-60 -15 -200 -77 -237 -106 -35 -27 -35 -27 -29 -88 9
-83 61 -374 68 -382 4 -3 55 36 114 88 200 173 192 164 210 248 20 97 15 193
-12 220 -23 24 -67 32 -114 20z m71 -68 c50 -42 9 -132 -60 -132 -35 0 -50 17
-58 63 -10 67 65 111 118 69z"/>
<path d="M2306 4417 c-13 -10 -17 -22 -13 -48 7 -49 45 -204 67 -274 10 -33
24 -79 30 -102 12 -46 17 -50 43 -30 19 13 20 6 -44 245 -11 42 -26 108 -33
146 -13 74 -21 84 -50 63z"/>
<path d="M2103 4382 c-118 -30 -110 -14 -88 -172 19 -138 52 -283 77 -342 25
-58 40 -60 148 -22 107 37 133 52 125 72 -18 46 -82 321 -102 437 -10 62 -18
64 -160 27z"/>
<path d="M3490 4073 c-135 -17 -410 -147 -410 -194 0 -30 32 -23 96 23 86 60
229 125 293 132 69 7 58 -2 -53 -44 -123 -47 -256 -133 -256 -167 0 -7 19 -22
43 -34 62 -32 195 -130 250 -185 l47 -48 68 22 c189 60 336 59 484 -3 15 -6
16 -3 7 29 -14 51 -132 335 -160 387 -24 43 -25 44 -105 60 -88 18 -247 29
-304 22z"/>
<path d="M1638 4019 c-25 -14 -24 -127 2 -284 11 -66 20 -123 20 -127 0 -4
-11 -3 -25 4 -29 13 -78 -4 -100 -34 -9 -13 -20 -18 -33 -14 -11 4 -31 2 -45
-3 -72 -28 -55 -267 28 -403 34 -54 35 -59 35 -157 0 -82 4 -109 20 -141 11
-22 20 -53 20 -69 0 -39 16 -81 32 -81 6 0 25 15 42 34 26 27 43 35 98 45 37
6 86 20 110 31 24 11 57 20 74 20 16 0 39 6 49 14 18 13 17 18 -33 117 -57
114 -62 143 -32 182 11 14 31 49 45 79 35 74 33 131 -6 204 -30 56 -31 64 -31
174 1 63 4 174 8 246 7 145 0 174 -41 174 -47 0 -62 -55 -69 -253 -4 -105 -19
-159 -30 -106 -3 13 -17 83 -31 154 -32 162 -32 162 -58 185 -24 23 -26 23
-49 9z m84 -243 c13 -29 5 -56 -16 -56 -20 0 -39 36 -31 60 9 27 33 25 47 -4z
m158 -3 c0 -16 -5 -35 -10 -43 -9 -13 -11 -13 -20 0 -11 17 -13 54 -3 63 16
16 33 5 33 -20z m-12 -235 c18 -18 14 -52 -9 -83 -18 -21 -28 -26 -53 -22 -17
2 -41 1 -53 -4 -12 -4 -36 -4 -54 1 -25 8 -37 6 -50 -6 -10 -9 -31 -15 -51
-13 -18 2 -45 -3 -60 -10 -34 -17 -58 -2 -58 38 0 35 17 51 55 51 17 0 41 7
54 16 16 12 35 15 63 11 28 -4 49 -1 64 9 18 12 27 13 44 4 16 -8 25 -7 42 5
27 18 50 19 66 3z m-58 -270 c0 -57 -10 -63 -114 -66 -93 -4 -96 -3 -121 24
-14 15 -25 35 -25 45 0 21 25 25 168 27 l92 2 0 -32z"/>
<path d="M2997 3812 c-15 -15 -43 -34 -64 -41 -20 -8 -92 -40 -159 -72 -238
-115 -258 -146 -274 -404 -12 -194 -13 -201 -46 -236 -16 -17 -32 -54 -44
-105 -10 -43 -46 -135 -79 -204 -85 -177 -85 -168 -9 -212 69 -40 168 -127
168 -147 0 -7 -21 3 -47 23 -179 137 -218 148 -177 51 8 -20 13 -39 10 -42 -8
-9 -27 8 -36 33 -8 20 -14 23 -36 18 -26 -7 -27 -6 -20 29 9 48 -5 73 -51 88
-36 11 -37 13 -15 22 44 20 21 76 -46 111 -17 9 -44 34 -62 56 -27 34 -37 40
-71 40 -21 0 -69 -11 -106 -25 -37 -14 -83 -28 -103 -31 -19 -3 -47 -12 -62
-20 -27 -14 -28 -18 -28 -84 0 -60 4 -77 30 -118 39 -65 68 -131 86 -198 50
-194 163 -367 295 -449 85 -54 181 -69 283 -46 93 22 203 130 307 299 98 160
105 180 179 477 22 88 53 199 70 247 21 64 31 116 36 191 7 115 1 139 -56 192
-18 17 -41 43 -53 59 l-20 29 49 -29 c27 -15 63 -36 79 -46 33 -20 61 -23 70
-9 5 9 -16 141 -31 189 -12 41 7 23 31 -30 14 -29 25 -64 25 -78 1 -48 17 -55
25 -11 8 49 20 53 29 9 5 -26 -1 -44 -33 -97 -53 -88 -87 -181 -100 -273 -6
-41 -15 -87 -21 -102 -13 -34 -80 -295 -80 -310 0 -6 20 26 44 71 47 90 103
167 165 227 53 52 62 41 13 -15 -71 -81 -145 -184 -164 -226 -15 -35 -17 -56
-12 -123 5 -53 13 -89 24 -102 16 -20 18 -17 73 88 62 117 169 270 244 347 43
44 84 68 51 30 -107 -125 -222 -309 -297 -476 -31 -68 -43 -167 -21 -167 5 0
69 60 142 133 140 139 256 243 263 235 3 -2 -20 -26 -50 -51 -58 -51 -297
-310 -327 -355 -24 -36 -23 -58 6 -87 30 -30 94 -48 281 -79 233 -39 501 -59
705 -53 180 6 371 25 381 39 3 4 2 34 -2 65 -4 32 -8 129 -8 215 -1 86 -5 159
-10 162 -5 3 -26 -18 -47 -46 -56 -79 -134 -158 -176 -179 -21 -11 -38 -16
-38 -12 0 4 42 48 93 98 52 49 101 104 110 120 49 90 57 112 56 165 0 76 -24
239 -37 252 -7 7 -23 -2 -55 -33 -55 -55 -67 -78 -67 -128 0 -23 -4 -41 -10
-41 -5 0 -10 14 -10 30 0 17 -3 30 -6 30 -4 0 -32 -22 -63 -49 -58 -50 -119
-91 -136 -91 -14 0 100 114 162 162 l53 40 -6 102 c-8 148 -4 140 -82 170
-115 44 -252 52 -374 21 -33 -9 -40 4 -113 204 -29 80 -62 168 -74 195 -32 73
-95 158 -149 199 -48 36 -325 197 -340 197 -5 0 -20 -13 -35 -28z"/>
<path d="M3780 3579 c-94 -13 -233 -54 -243 -71 -8 -11 3 -43 40 -124 28 -60
58 -130 67 -156 9 -27 23 -69 32 -94 l17 -47 112 7 c96 6 126 4 200 -13 48
-12 100 -30 116 -41 l28 -21 7 37 c12 65 -31 345 -61 390 -8 12 -40 35 -72 51
-55 27 -64 28 -200 28 -78 0 -139 3 -135 7 4 4 61 18 127 32 97 19 110 24 70
24 -27 0 -75 -4 -105 -9z"/>
<path d="M4191 2953 c1 -178 6 -192 44 -118 20 40 28 69 26 101 -1 43 -39 136
-61 149 -7 4 -10 -41 -9 -132z"/>
<path d="M2928 2034 c-12 -12 -9 -62 4 -70 6 -4 46 -13 87 -20 42 -7 128 -22
191 -33 205 -36 715 -61 830 -40 170 31 320 65 320 72 0 5 -10 7 -22 3 -13 -3
-89 -13 -170 -22 -127 -14 -184 -14 -404 -5 -272 12 -402 29 -617 81 -139 34
-209 45 -219 34z"/>
<path d="M2942 1918 c6 -16 118 -45 228 -58 47 -6 96 -13 110 -15 89 -15 285
-46 340 -55 107 -17 341 -29 580 -30 l225 -2 3 25 c4 29 -30 102 -51 110 -8 3
-56 -4 -108 -15 -52 -11 -114 -24 -138 -29 -128 -26 -228 -31 -450 -19 -125 6
-260 15 -301 20 -216 26 -316 42 -367 60 -67 23 -76 24 -71 8z"/>
<path d="M2896 1853 c-13 -26 -20 -62 -17 -88 1 -6 135 -10 381 -10 209 0 373
3 363 7 -10 3 -94 14 -188 23 -194 19 -312 38 -405 65 -117 33 -118 33 -134 3z"/>
<path d="M1354 1637 c-2 -7 -3 -85 -2 -172 l3 -160 63 -3 62 -3 0 81 c0 72 2
81 18 78 14 -3 17 -16 20 -81 l3 -77 59 0 60 0 0 75 c0 71 -2 76 -25 87 -28
12 -33 28 -10 28 35 0 47 83 17 120 -22 27 -79 39 -185 40 -54 0 -79 -4 -83
-13z m161 -87 c0 -25 -5 -36 -17 -38 -15 -3 -18 4 -18 38 0 34 3 41 18 38 12
-2 17 -13 17 -38z"/>
<path d="M1697 1643 c-4 -3 -7 -82 -7 -175 l0 -168 110 0 110 0 0 35 c0 35 0
35 -45 35 l-45 0 0 40 0 40 40 0 c38 0 40 2 40 30 0 28 -2 30 -40 30 -39 0
-40 1 -40 35 0 34 1 35 40 35 39 0 40 1 40 35 l0 35 -98 0 c-54 0 -102 -3
-105 -7z"/>
<path d="M1995 1641 c-33 -14 -49 -40 -49 -81 0 -49 14 -64 95 -105 50 -26 68
-41 73 -60 8 -31 1 -45 -24 -45 -19 0 -30 19 -30 51 0 16 -7 19 -55 19 -55 0
-55 0 -55 -31 0 -41 14 -64 47 -77 116 -44 243 -4 243 77 0 48 -24 75 -100
116 -76 41 -101 75 -65 89 24 9 35 -1 35 -30 0 -24 2 -25 58 -22 49 3 57 6 60
24 2 12 -8 34 -22 50 -23 27 -30 29 -108 31 -45 2 -92 -1 -103 -6z"/>
<path d="M2287 1643 c-4 -3 -7 -82 -7 -175 l0 -169 63 3 62 3 3 66 3 67 59 6
c73 8 85 22 85 97 0 69 -14 88 -77 100 -52 10 -182 12 -191 2z m158 -98 c0
-30 -4 -41 -17 -43 -15 -3 -18 4 -18 43 0 39 3 46 18 43 13 -2 17 -13 17 -43z"/>
<path d="M2600 1475 l0 -175 110 0 110 0 0 35 0 35 -51 0 -50 0 3 38 c3 35 5
37 39 40 30 2 38 8 42 27 6 32 1 35 -45 35 -37 0 -38 1 -38 35 0 35 0 35 46
35 45 0 45 0 42 33 l-3 32 -102 3 -103 3 0 -176z"/>
<path d="M2915 1636 c-52 -23 -57 -35 -56 -160 1 -63 4 -122 7 -131 19 -48
177 -68 241 -30 33 19 53 58 53 101 0 23 -3 24 -64 24 l-65 0 -3 -42 c-2 -35
-7 -43 -23 -43 -19 0 -20 8 -23 116 -2 100 0 118 14 123 26 10 34 -2 34 -50
l0 -44 65 0 65 0 0 29 c0 82 -49 121 -150 121 -36 -1 -79 -7 -95 -14z"/>
<path d="M3187 1629 c-9 -34 2 -49 39 -49 l34 0 0 -140 0 -141 63 3 62 3 3
137 3 137 37 3 c34 3 37 6 37 33 l0 30 -136 3 c-132 2 -137 2 -142 -19z"/>
<path d="M3610 1475 l0 -176 63 3 62 3 3 73 3 72 40 0 c38 0 40 2 37 28 -3 23
-8 27 -40 30 -36 3 -38 5 -38 38 0 33 1 34 40 34 39 0 40 1 40 35 l0 35 -105
0 -105 0 0 -175z"/>
<path d="M3899 1627 l-34 -23 -3 -126 -3 -126 30 -24 c54 -46 188 -43 238 4
21 20 23 30 23 135 0 63 -5 123 -10 134 -18 32 -64 49 -138 49 -55 0 -76 -5
-103 -23z m131 -151 c0 -106 -10 -137 -37 -115 -9 8 -13 41 -13 113 0 106 10
137 37 115 9 -8 13 -41 13 -113z"/>
<path d="M4204 1637 c-2 -7 -3 -85 -2 -172 l3 -160 63 -3 62 -3 0 81 c0 72 2
81 18 78 14 -3 18 -17 22 -78 l5 -75 58 -3 57 -3 0 66 c0 71 -12 105 -35 105
-8 0 -15 5 -15 10 0 6 7 10 15 10 35 0 47 83 17 120 -21 26 -81 39 -190 39
-51 1 -74 -3 -78 -12z m161 -87 c0 -25 -5 -36 -17 -38 -15 -3 -18 4 -18 38 0
34 3 41 18 38 12 -2 17 -13 17 -38z"/>
<path d="M4135 1233 c-64 -9 -103 -24 -129 -49 -21 -22 -26 -36 -26 -79 0 -71
22 -97 113 -130 143 -54 187 -77 193 -101 12 -49 -20 -84 -65 -69 -15 5 -21
17 -23 53 l-3 47 -109 3 -109 3 6 -52 c12 -100 71 -129 266 -129 140 0 212 17
239 58 18 28 19 122 1 150 -17 27 -83 62 -179 97 -96 34 -120 50 -120 79 0 32
24 50 55 42 21 -5 25 -12 25 -41 l0 -35 110 0 c109 0 110 0 110 24 0 45 -21
84 -54 100 -60 28 -203 42 -301 29z"/>
<path d="M1340 981 l0 -251 197 0 c304 2 343 17 343 133 0 77 -22 113 -76 123
-42 8 -55 24 -19 24 38 0 75 41 75 84 0 54 -19 84 -69 108 -41 20 -64 22 -248
26 l-203 5 0 -252z m297 147 c18 -15 16 -63 -3 -82 -8 -9 -26 -16 -40 -16 -23
0 -24 3 -24 61 l0 61 27 -7 c16 -4 34 -11 40 -17z m5 -191 c12 -19 9 -92 -4
-105 -7 -7 -25 -12 -40 -12 l-28 0 0 71 0 72 32 -7 c18 -3 36 -12 40 -19z"/>
<path d="M1970 980 l0 -251 113 3 112 3 3 248 2 247 -115 0 -115 0 0 -250z"/>
<path d="M2295 1218 c-3 -8 -4 -119 -3 -248 l3 -235 115 0 115 0 -1 98 c0 53
2 97 6 97 4 0 26 -45 50 -100 l45 -100 117 0 c65 0 118 2 118 4 0 3 -31 62
-70 133 -38 70 -70 132 -70 137 0 4 29 57 64 117 l65 109 -107 0 -108 0 -48
-90 c-27 -49 -52 -90 -55 -90 -3 0 -6 39 -7 88 l-1 87 -111 3 c-85 2 -114 0
-117 -10z"/>
<path d="M2908 990 c-2 -132 -1 -245 0 -250 2 -6 80 -10 203 -10 l199 0 0 50
0 50 -85 0 -85 0 0 55 0 55 70 0 70 0 0 50 0 50 -70 0 -70 0 0 45 0 45 75 0
75 0 0 50 0 50 -190 0 -189 0 -3 -240z"/>
<path d="M3380 981 l0 -251 115 0 115 0 0 116 0 117 32 -7 c18 -3 36 -12 40
-19 4 -6 8 -56 8 -109 l0 -98 105 0 105 0 0 100 c0 94 -2 103 -25 125 -13 14
-36 25 -50 25 -14 0 -25 5 -25 10 0 6 11 10 25 10 62 0 93 78 61 154 -24 57
-69 68 -303 74 l-203 5 0 -252z m298 140 c15 -18 9 -71 -9 -82 -6 -3 -20 -6
-32 -5 -19 1 -22 8 -25 45 -4 59 3 74 30 66 13 -4 29 -14 36 -24z"/>
</g>
</svg>
