<?xml version="1.0" standalone="no"?>
<!DOCTYPE svg PUBLIC "-//W3C//DTD SVG 20010904//EN"
 "http://www.w3.org/TR/2001/REC-SVG-20010904/DTD/svg10.dtd">
<svg version="1.0" xmlns="http://www.w3.org/2000/svg"
 width="564.000000pt" height="547.000000pt" viewBox="0 0 564.000000 547.000000"
 preserveAspectRatio="xMidYMid meet">

<g transform="translate(0.000000,547.000000) scale(0.100000,-0.100000)"
fill="#000000" stroke="none">
<path d="M2628 4751 c-81 -17 -132 -72 -158 -171 -6 -25 -18 -68 -26 -96 l-15
-51 -57 -13 c-31 -7 -82 -20 -114 -30 l-56 -17 -74 74 c-117 120 -173 135
-299 82 -126 -54 -233 -133 -260 -193 -25 -55 -24 -82 7 -204 l27 -104 -82
-82 -83 -83 -111 29 c-123 32 -169 29 -228 -13 -62 -44 -173 -233 -189 -321
-14 -73 6 -114 97 -209 l84 -87 -20 -69 c-11 -37 -23 -85 -26 -105 -4 -21 -12
-41 -19 -47 -6 -5 -49 -19 -96 -31 -171 -46 -206 -82 -222 -231 -7 -61 -7
-120 0 -180 18 -147 55 -184 235 -230 l87 -23 10 -41 c6 -22 19 -73 31 -114
l20 -73 -80 -83 c-44 -45 -85 -94 -91 -109 -30 -80 12 -213 110 -345 88 -118
142 -133 315 -87 l90 25 84 -84 85 -84 -27 -100 c-32 -117 -33 -152 -8 -207
22 -49 124 -127 233 -179 147 -70 194 -61 319 61 l86 84 39 -13 c21 -8 71 -22
111 -31 l72 -18 19 -66 c11 -37 25 -86 31 -110 15 -54 71 -117 119 -134 24 -8
88 -13 182 -13 137 0 149 2 195 26 65 33 85 65 120 191 l29 105 75 18 c42 10
92 23 111 30 l35 12 86 -82 c129 -122 177 -130 334 -55 100 48 194 123 219
174 25 51 23 99 -8 216 l-24 94 83 83 83 82 92 -24 c112 -31 183 -32 227 -5
74 45 200 252 211 345 7 68 -13 108 -101 201 l-80 85 23 92 c36 141 27 131
127 157 198 51 233 101 233 326 0 131 -14 189 -59 237 -33 35 -50 43 -151 72
l-115 32 -17 69 c-10 38 -24 87 -32 110 l-14 41 83 87 c120 127 130 177 61
322 -64 135 -143 224 -217 244 -35 10 -57 7 -157 -18 l-115 -29 -82 83 -82 83
27 115 c30 121 29 155 -4 212 -25 41 -117 108 -216 156 -153 74 -202 66 -329
-57 -78 -75 -88 -82 -111 -73 -14 5 -63 20 -110 32 l-85 21 -31 109 c-36 124
-53 151 -115 186 -40 22 -56 25 -179 27 -74 1 -152 -2 -172 -6z m289 -32 c96
-21 111 -46 173 -276 8 -34 15 -43 33 -43 18 0 119 -27 220 -57 14 -4 42 17
105 80 122 121 148 128 274 73 93 -41 203 -117 229 -160 25 -42 24 -87 -7
-212 l-27 -106 95 -95 94 -94 102 25 c176 45 216 35 297 -79 54 -75 115 -206
115 -248 0 -45 -27 -87 -112 -173 l-80 -82 25 -88 c14 -49 29 -107 34 -129 l9
-40 122 -36 c185 -55 197 -72 197 -289 0 -214 -16 -238 -190 -285 -127 -35
-131 -37 -139 -82 -4 -21 -19 -78 -33 -126 l-26 -88 86 -87 c121 -122 128
-148 74 -273 -41 -93 -117 -201 -161 -229 -44 -27 -90 -25 -214 7 l-103 26
-97 -96 -96 -96 27 -100 c31 -115 33 -159 11 -207 -29 -60 -197 -169 -304
-195 -68 -17 -97 -2 -197 94 l-92 89 -94 -26 c-51 -15 -110 -29 -130 -33 -21
-3 -39 -12 -41 -22 -3 -9 -17 -59 -31 -111 -37 -139 -68 -173 -175 -191 -36
-6 -109 -8 -164 -5 -164 9 -194 36 -241 211 -15 59 -33 108 -39 110 -6 2 -64
17 -129 35 l-119 31 -88 -85 c-83 -80 -127 -106 -180 -106 -27 0 -170 68 -227
107 -127 87 -139 125 -95 291 l31 116 -95 95 -95 95 -103 -27 c-123 -32 -170
-34 -212 -8 -75 46 -194 249 -194 333 0 59 21 95 109 182 l79 78 -19 62 c-11
33 -26 91 -35 128 l-15 67 -57 16 c-228 63 -247 79 -263 222 -7 62 -7 117 1
174 16 129 47 159 212 203 l105 28 22 89 c12 48 28 105 35 126 l13 38 -83 87
c-91 94 -104 117 -104 179 0 77 118 285 187 331 39 25 106 23 221 -8 l98 -26
96 95 97 96 -31 115 c-34 130 -33 167 9 216 58 70 253 180 317 180 50 0 101
-31 182 -112 l82 -80 48 16 c27 8 85 24 129 34 l80 19 31 111 c53 190 78 208
286 211 53 0 119 -4 145 -10z"/>
<path d="M2655 4691 c-82 -15 -101 -40 -141 -191 -15 -58 -32 -111 -37 -117
-5 -7 -21 -13 -36 -13 -14 -1 -78 -16 -141 -34 l-115 -34 -88 87 c-98 96 -127
113 -176 105 -46 -7 -174 -73 -236 -121 -77 -60 -82 -85 -44 -241 l31 -127
-107 -106 -107 -107 -110 29 c-127 33 -168 36 -204 12 -59 -38 -174 -239 -174
-304 0 -45 21 -76 112 -167 l84 -82 -27 -88 c-15 -48 -33 -114 -41 -146 l-13
-60 -115 -31 c-133 -37 -151 -45 -173 -79 -36 -55 -39 -295 -4 -363 20 -38 42
-48 177 -86 l113 -32 33 -124 c17 -68 37 -134 42 -146 9 -20 1 -31 -75 -106
-92 -91 -113 -123 -113 -167 0 -69 123 -277 181 -307 40 -21 69 -19 195 15
l111 30 109 -108 c59 -59 107 -111 105 -117 -75 -258 -73 -292 22 -362 88 -65
195 -113 253 -113 46 0 49 2 144 96 l98 96 79 -25 c43 -14 108 -31 143 -38 36
-7 66 -14 68 -14 1 -1 18 -57 36 -124 47 -168 64 -184 206 -196 102 -8 214 7
249 33 25 18 43 65 92 236 l14 49 63 13 c34 7 99 24 144 38 l83 25 90 -89 c50
-49 103 -92 119 -96 67 -16 188 30 291 113 84 68 88 88 47 245 l-31 122 108
108 107 108 123 -32 c157 -40 176 -37 244 47 49 61 113 182 123 234 9 42 -18
86 -112 181 l-85 86 16 44 c9 25 27 89 40 144 14 54 26 100 27 101 2 1 50 15
108 30 176 47 188 58 203 180 7 59 7 112 0 171 -15 119 -29 132 -184 175 -66
18 -123 37 -127 43 -5 6 -17 47 -27 91 -10 44 -26 105 -36 135 l-18 54 89 92
c118 122 125 143 78 250 -39 91 -111 195 -150 218 -37 23 -78 20 -202 -13
l-108 -29 -109 108 -108 108 29 114 c35 136 37 167 9 202 -35 44 -127 107
-211 143 -112 49 -127 44 -249 -74 l-96 -93 -44 16 c-24 8 -88 26 -143 39 -54
14 -100 26 -101 27 -1 2 -17 55 -34 118 -36 130 -48 153 -92 176 -35 18 -226
28 -294 15z m264 -96 c11 -11 36 -89 82 -257 8 -31 15 -38 34 -38 37 0 149
-27 258 -62 l98 -32 102 102 c68 68 110 102 125 102 47 0 242 -115 242 -143 0
-7 -16 -73 -36 -148 l-36 -135 141 -142 141 -141 132 34 c73 19 141 35 150 35
33 0 148 -189 148 -244 0 -13 -37 -58 -102 -123 l-102 -102 33 -101 c18 -55
40 -138 48 -183 9 -45 19 -85 23 -90 4 -4 69 -25 144 -46 76 -21 142 -44 146
-51 27 -44 20 -258 -9 -283 -9 -8 -63 -27 -121 -42 -168 -43 -164 -41 -178
-121 -7 -38 -29 -122 -49 -187 l-37 -118 102 -102 c66 -66 102 -110 102 -124
0 -49 -105 -227 -141 -238 -10 -3 -77 10 -149 30 -72 19 -136 35 -143 35 -7 0
-25 -19 -42 -41 -30 -41 -141 -151 -204 -202 l-34 -28 37 -144 c24 -90 35
-149 29 -159 -21 -37 -193 -136 -238 -136 -12 0 -60 40 -123 103 l-103 103
-97 -32 c-53 -18 -137 -41 -187 -50 -49 -10 -91 -19 -93 -20 -2 -1 -20 -63
-41 -138 -21 -75 -44 -142 -50 -150 -21 -25 -262 -28 -287 -3 -4 4 -26 71 -48
149 l-41 142 -105 22 c-58 12 -140 34 -184 48 -43 15 -82 25 -86 24 -5 -2 -54
-47 -109 -100 -56 -54 -110 -98 -120 -98 -30 0 -128 47 -187 90 -66 49 -66 51
-20 220 l34 125 -61 55 c-79 70 -100 91 -164 164 l-52 59 -147 -38 -147 -39
-34 40 c-38 45 -113 184 -113 210 0 9 47 65 105 123 l105 107 -20 51 c-19 51
-63 217 -74 285 -7 41 0 37 -196 89 -47 12 -92 28 -100 36 -12 11 -15 41 -15
143 0 102 3 132 15 143 8 8 77 31 152 52 l138 38 6 36 c11 68 53 229 73 282
l21 53 -33 34 c-17 19 -65 68 -105 109 -39 41 -72 81 -72 89 0 27 71 160 109
204 l39 45 146 -38 147 -38 47 53 c61 69 115 123 179 178 l51 45 -34 130 c-19
72 -34 140 -34 152 0 29 82 92 173 133 37 16 70 30 73 30 4 0 55 -48 114 -106
l108 -106 95 31 c52 17 137 39 189 49 l93 19 37 134 c20 74 41 141 46 149 5 8
31 18 58 22 73 9 217 -1 233 -17z"/>
<path d="M2430 3922 c0 -4 9 -36 21 -71 19 -56 24 -62 47 -59 22 3 29 13 48
71 l23 67 -24 0 c-19 0 -24 -7 -30 -38 -11 -65 -21 -69 -35 -13 -9 39 -16 51
-31 51 -10 0 -19 -4 -19 -8z"/>
<path d="M2590 3860 l0 -70 51 0 c58 0 66 23 10 28 -32 3 -40 26 -10 28 8 1
20 2 27 3 26 2 10 21 -18 21 -20 0 -30 5 -30 15 0 10 11 15 35 15 24 0 35 5
35 15 0 11 -12 15 -50 15 l-50 0 0 -70z"/>
<path d="M2724 3922 c-29 -19 -19 -72 14 -72 10 0 27 -6 38 -14 18 -14 18 -15
1 -22 -10 -3 -23 -2 -30 5 -14 14 -47 15 -47 1 0 -5 11 -17 25 -26 45 -30 116
6 99 50 -3 9 -24 21 -45 27 -21 7 -39 15 -39 20 0 12 29 19 35 9 7 -12 45 -13
45 -2 0 27 -67 44 -96 24z"/>
<path d="M2840 3860 c0 -63 2 -70 20 -70 13 0 20 7 20 20 0 15 7 20 24 20 29
0 56 24 56 50 0 31 -28 50 -76 50 l-44 0 0 -70z m80 21 c0 -19 -23 -35 -34
-24 -14 15 -5 43 14 43 13 0 20 -7 20 -19z"/>
<path d="M2981 3865 c-26 -78 -25 -75 -1 -75 11 0 20 7 20 15 0 9 9 15 24 15
13 0 26 -7 30 -15 3 -8 14 -15 24 -15 18 0 18 3 -6 70 -21 59 -28 70 -47 70
-20 0 -27 -10 -44 -65z m56 -21 c-12 -12 -25 7 -19 28 l5 22 10 -22 c6 -12 7
-25 4 -28z"/>
<path d="M1691 3780 c-61 -61 -111 -117 -111 -124 0 -8 42 -59 93 -115 l92
-101 5 102 c7 149 32 177 164 187 l81 6 -90 78 c-49 42 -97 77 -106 77 -9 0
-66 -50 -128 -110z"/>
<path d="M3641 3808 l-83 -73 68 -6 c77 -6 103 -17 133 -55 18 -23 21 -41 21
-138 l1 -111 99 105 c55 57 100 110 100 117 0 22 -214 233 -236 233 -12 0 -58
-33 -103 -72z"/>
<path d="M1835 3665 c-25 -24 -25 -26 -25 -205 0 -179 0 -181 25 -205 l24 -25
916 0 917 0 29 29 29 29 0 172 0 172 -29 29 -29 29 -917 0 -916 0 -24 -25z
m254 -181 c22 -64 41 -122 41 -130 0 -9 -11 -14 -31 -14 -24 0 -32 6 -40 30
-10 27 -16 30 -50 30 -35 0 -41 -3 -50 -30 -9 -25 -16 -30 -45 -30 -19 0 -34
1 -34 3 0 2 18 55 40 118 22 63 43 120 45 127 2 7 21 12 43 12 l39 0 42 -116z
m141 14 l0 -103 52 0 c50 0 53 -2 53 -25 0 -25 -2 -25 -87 -28 l-88 -3 0 131
0 130 35 0 35 0 0 -102z m200 3 l0 -100 53 -3 c49 -3 52 -5 55 -31 l3 -28 -88
3 -88 3 -3 128 -3 127 36 0 35 0 0 -99z m324 74 c14 -13 26 -31 26 -40 0 -20
-53 -20 -70 1 -17 20 -64 14 -68 -8 -2 -13 8 -20 40 -28 77 -19 93 -31 96 -77
3 -34 -1 -44 -24 -62 -56 -44 -184 -16 -184 40 0 24 44 26 66 4 20 -20 58 -19
75 1 16 20 1 31 -56 41 -78 13 -110 81 -59 128 22 20 38 25 79 25 41 0 57 -5
79 -25z m246 0 c0 -22 -4 -25 -35 -25 l-35 0 0 -106 0 -105 -32 3 -33 3 -3
103 -3 102 -34 0 c-31 0 -35 3 -35 25 l0 25 105 0 105 0 0 -25z m196 -105 c24
-69 44 -126 44 -127 0 -2 -15 -3 -34 -3 -29 0 -36 5 -45 30 -9 27 -14 30 -51
30 -37 0 -42 -3 -51 -30 -9 -24 -17 -30 -40 -30 -17 0 -29 5 -29 13 0 12 56
183 75 230 6 14 17 17 47 15 l40 -3 44 -125z m234 105 c0 -22 -4 -25 -35 -25
l-35 0 0 -106 0 -105 -32 3 -33 3 -3 103 -3 102 -34 0 c-31 0 -35 3 -35 25 l0
25 105 0 105 0 0 -25z m200 1 c0 -23 -4 -25 -52 -28 -46 -3 -53 -6 -56 -25 -3
-19 2 -23 25 -24 15 -1 39 -2 53 -3 18 -1 26 -7 28 -23 3 -22 0 -23 -53 -23
-55 0 -56 0 -53 -27 3 -26 5 -27 56 -24 l52 2 0 -30 0 -31 -85 0 -85 0 0 130
0 130 85 0 c84 0 85 0 85 -24z"/>
<path d="M1992 3490 c-10 -39 -9 -40 15 -40 23 0 25 3 19 31 -3 17 -6 35 -6
40 0 5 -4 9 -9 9 -5 0 -13 -18 -19 -40z"/>
<path d="M3093 3490 c-10 -39 -10 -40 17 -40 27 0 27 1 17 40 -6 22 -14 40
-17 40 -3 0 -11 -18 -17 -40z"/>
<path d="M2158 3053 c183 -179 197 -205 197 -358 0 -102 -2 -114 -29 -165 -19
-37 -76 -103 -169 -197 l-141 -143 249 0 250 0 81 41 c105 53 180 61 281 31
38 -12 86 -33 107 -47 l37 -25 261 2 261 3 -94 85 c-125 113 -189 186 -224
256 -26 53 -29 69 -30 154 0 142 20 178 197 357 l142 143 -249 0 -250 0 -70
-35 c-101 -51 -175 -63 -262 -41 -37 9 -90 30 -116 46 l-48 30 -261 0 -261 0
141 -137z m697 -219 c74 -35 105 -146 63 -218 -32 -54 -68 -78 -127 -84 -62
-6 -101 9 -141 54 -72 83 -41 207 65 256 43 20 87 17 140 -8z"/>
<path d="M1397 2919 c-41 -22 -77 -71 -77 -106 0 -21 5 -23 55 -23 39 0 55 4
55 13 0 23 35 47 68 47 58 0 81 -54 43 -101 -10 -13 -64 -62 -120 -109 -99
-83 -101 -86 -98 -125 l2 -40 178 -3 177 -2 0 50 0 51 -95 -3 c-52 -2 -95 0
-95 3 0 3 33 34 74 69 114 97 139 163 91 236 -40 62 -178 85 -258 43z"/>
<path d="M1842 2923 c-92 -45 -135 -182 -97 -310 29 -96 91 -143 191 -143 82
0 134 32 169 105 59 119 25 285 -69 340 -51 30 -142 34 -194 8z m146 -113 c21
-31 23 -44 20 -117 -3 -70 -6 -85 -27 -107 -38 -41 -81 -33 -108 18 -33 64
-14 221 29 240 31 12 63 0 86 -34z"/>
<path d="M3525 2926 c-34 -15 -85 -70 -85 -91 0 -7 -3 -20 -6 -29 -5 -14 3
-16 55 -16 46 0 61 3 61 14 0 49 88 64 117 20 16 -24 16 -28 -1 -57 -10 -18
-65 -72 -122 -122 -103 -89 -105 -91 -102 -130 l3 -40 175 0 175 0 0 45 0 45
-98 0 c-53 0 -97 2 -96 5 0 3 33 32 72 66 89 75 117 115 117 166 0 57 -25 96
-73 119 -50 22 -147 25 -192 5z"/>
<path d="M3965 2926 c-41 -18 -92 -77 -104 -123 -14 -49 -14 -147 0 -196 12
-43 59 -101 100 -123 35 -18 129 -18 173 0 155 65 154 376 -1 442 -41 17 -128
17 -168 0z m122 -91 c22 -15 43 -82 43 -136 0 -166 -144 -189 -158 -25 -11
132 45 210 115 161z"/>
<path d="M1870 2153 c-8 -3 -25 -15 -37 -26 -22 -20 -23 -26 -23 -202 l0 -182
26 -24 26 -24 901 -3 c666 -2 909 1 930 9 49 21 57 52 57 223 0 99 -4 165 -12
181 -26 57 10 55 -960 54 -491 0 -900 -3 -908 -6z m213 -100 c19 -5 50 -57 40
-67 -12 -12 -51 -6 -63 10 -15 18 -71 15 -78 -3 -4 -13 11 -20 88 -44 33 -10
47 -21 54 -40 22 -64 -23 -109 -109 -109 -38 0 -52 5 -76 29 -16 16 -29 34
-29 40 0 16 59 13 76 -4 19 -19 58 -19 73 -1 15 18 -1 31 -59 46 -59 15 -80
36 -80 75 0 65 69 94 163 68z m244 2 c26 -7 73 -60 73 -81 0 -25 -56 -17 -74
11 -43 65 -126 -5 -101 -84 15 -48 87 -62 100 -20 5 14 16 19 41 19 32 0 35
-2 29 -22 -4 -13 -21 -36 -38 -51 -28 -25 -38 -28 -85 -24 -60 4 -95 30 -113
84 -13 40 -4 100 19 131 19 24 87 53 112 47 8 -2 25 -6 37 -10z m326 -35 c50
-56 32 -172 -33 -205 -58 -30 -140 -12 -174 37 -10 14 -16 44 -16 80 0 49 4
62 28 89 50 56 144 56 195 -1z m234 35 c12 -3 34 -20 48 -36 20 -25 25 -41 25
-88 0 -85 -44 -131 -125 -131 -80 0 -125 51 -125 139 0 41 5 57 28 82 15 17
43 34 62 39 35 8 45 7 87 -5z m293 -20 c0 -22 -4 -25 -35 -25 l-34 0 -3 -102
-3 -103 -32 -3 -33 -3 0 105 0 106 -35 0 c-31 0 -35 3 -35 25 l0 25 105 0 105
0 0 -25z m210 0 c0 -24 -3 -25 -55 -25 -52 0 -55 -1 -55 -25 0 -23 3 -25 50
-25 47 0 50 -2 50 -25 0 -23 -3 -25 -50 -25 -47 0 -50 -2 -50 -25 0 -24 3 -25
55 -25 54 0 55 0 55 -30 l0 -30 -90 0 -90 0 0 130 0 130 90 0 c89 0 90 0 90
-25z m216 1 c34 -29 38 -84 9 -116 -18 -20 -18 -21 3 -66 12 -24 22 -47 22
-49 0 -3 -16 -5 -35 -5 -32 0 -37 4 -57 45 -30 62 -58 62 -58 -1 0 -45 0 -45
-32 -42 l-33 3 -3 128 -3 127 80 0 c70 0 83 -3 107 -24z"/>
<path d="M2524 2002 c-65 -43 -21 -170 49 -143 61 23 47 151 -17 151 -12 0
-26 -4 -32 -8z"/>
<path d="M2797 1992 c-24 -27 -22 -97 3 -122 24 -24 38 -25 67 -5 40 28 39
111 -1 137 -20 13 -53 8 -69 -10z"/>
<path d="M3490 1974 c0 -34 1 -35 31 -32 63 6 61 68 -2 68 -27 0 -29 -3 -29
-36z"/>
<path d="M1668 1850 c-54 -57 -98 -108 -98 -113 0 -17 223 -237 240 -237 16 0
157 120 173 147 6 10 -6 13 -61 13 -55 0 -75 4 -96 21 -42 33 -50 58 -56 168
l-5 105 -97 -104z"/>
<path d="M3780 1850 c0 -156 -22 -182 -159 -190 l-83 -5 92 -82 c51 -46 97
-83 102 -83 15 0 238 222 238 237 0 12 -176 223 -186 223 -2 0 -4 -45 -4 -100z"/>
<path d="M2153 1580 c-31 -13 -46 -46 -38 -86 7 -37 29 -54 73 -54 26 0 62 25
62 43 0 11 -29 8 -49 -5 -10 -6 -26 -8 -35 -5 -20 8 -22 60 -2 76 14 12 46 5
46 -10 0 -5 9 -9 20 -9 23 0 25 9 8 33 -16 20 -57 29 -85 17z"/>
<path d="M2296 1569 c-30 -24 -35 -72 -10 -107 20 -28 83 -31 107 -4 27 30 22
87 -9 111 -15 12 -34 21 -44 21 -10 0 -29 -9 -44 -21z m68 -25 c19 -19 20 -35
3 -58 -20 -27 -51 -17 -55 17 -3 27 12 57 29 57 4 0 15 -7 23 -16z"/>
<path d="M2430 1510 c0 -56 3 -70 15 -70 11 0 15 12 16 43 l1 42 19 -42 c11
-24 24 -43 30 -43 5 0 18 19 29 43 l19 42 0 -42 c1 -31 5 -43 16 -43 12 0 15
14 15 70 0 67 -1 70 -23 70 -19 0 -27 -8 -37 -40 -7 -22 -17 -40 -21 -40 -5 0
-14 18 -20 40 -10 32 -17 40 -36 40 -22 0 -23 -3 -23 -70z"/>
<path d="M2610 1510 c0 -61 2 -70 18 -70 15 0 18 7 15 40 -2 22 -1 40 2 40 3
0 12 -18 21 -40 9 -22 22 -40 28 -40 7 0 19 19 28 43 l17 42 0 -42 c1 -31 5
-43 16 -43 12 0 15 14 15 70 0 64 -2 70 -20 70 -15 0 -26 -13 -40 -42 l-18
-43 -18 43 c-13 33 -22 42 -41 42 -22 0 -23 -3 -23 -70z"/>
<path d="M2800 1526 c0 -64 16 -86 64 -86 47 0 66 26 66 88 0 45 -3 52 -19 52
-17 0 -20 -8 -23 -52 -3 -46 -6 -53 -25 -56 -22 -3 -23 0 -23 52 0 49 -2 56
-20 56 -18 0 -20 -7 -20 -54z"/>
<path d="M2950 1510 c0 -54 3 -70 14 -70 10 0 16 13 18 42 l3 42 29 -42 c43
-62 56 -56 56 28 0 56 -3 70 -15 70 -11 0 -15 -11 -15 -37 l-1 -38 -32 38
c-47 55 -57 49 -57 -33z"/>
<path d="M3100 1510 c0 -54 3 -70 14 -70 11 0 15 18 18 70 3 61 1 70 -14 70
-15 0 -18 -10 -18 -70z"/>
<path d="M3152 1568 c3 -7 14 -14 26 -16 20 -3 22 -10 22 -58 0 -41 4 -54 15
-54 12 0 15 13 15 55 0 48 2 55 20 55 11 0 20 7 20 15 0 12 -13 15 -61 15 -44
0 -60 -3 -57 -12z"/>
<path d="M3305 1530 c14 -27 25 -59 25 -70 0 -34 33 -21 37 15 3 16 13 44 24
61 24 39 24 44 1 44 -11 0 -24 -12 -31 -27 l-13 -28 -14 28 c-9 15 -23 27 -34
27 -20 0 -19 -2 5 -50z"/>
</g>
</svg>
